<svg xmlns="http://www.w3.org/2000/svg" id="Capa_2" viewBox="0 0 200.63 205.94"><defs><style>.cls-1{fill:#717e5d;stroke-width:0px;}</style></defs><g id="Capa_1-2"><g id="Capa_1-2"><path class="cls-1" d="M91.49,29.82c-21.33,0-42.66.11-63.99-.09-4.76-.05-6.31,1.4-6.29,6.24.16,40.83.18,81.66-.01,122.49-.02,5.23,1.83,6.43,6.69,6.41,36.83-.16,73.66-.09,110.49-.1,1,0,2.03-.16,2.99.02,2.36.45,6.24-1.54,6.62,2.24.32,3.15-3.54,2.18-5.52,2.79-7.1,2.19-12.38,9.02-12,16,.41,7.42,5.76,13.58,13.08,15.02.82.16,1.65.23,2.46.41,1.22.28,2.27.91,2.24,2.29-.04,1.7-1.37,2.12-2.78,2.27-.83.09-1.66.1-2.5.1-40.5,0-80.99.08-121.49-.05-12.8-.04-21.83-9.26-21.47-21.37.25-8.33,4.54-14.44,11.86-17.66,4.29-1.88,5.03-4.33,5.02-8.38-.1-41.83-.06-83.66-.06-125.49,0-8.11.04-8.14,8.01-8.15,6.5,0,13-.14,19.5.06,3.75.11,5.46-1.08,5.53-5.07.08-4.98.8-9.96,1.11-14.94.24-3.81,2.03-5.15,5.86-4.81,45.95,4.03,91.91,7.99,137.87,11.89,4.46.38,6.3,1.75,5.85,6.84-4.04,45.45-7.77,90.93-11.62,136.4-.91,10.79-1.98,21.56-2.83,32.35-.31,4.03-2.03,5.8-6.12,4.97-.97-.2-1.99-.18-2.98-.31-6.15-.77-12.32-1.78-14.89,6.24-.35,1.11-1.78,1.94-2.83,2.75-1.17.92-2.5,1.11-3.52-.22-.89-1.16-.31-2.31.63-3.08,5.59-4.56,5.77-10.77,5.76-17.28-.08-47.83-.04-95.66-.04-143.48,0-7.25-.02-7.29-7.17-7.3-21.16-.02-42.33,0-63.49-.01h.03ZM167.09,106.02c0,25,0,49.99.02,74.99,0,1.78-.72,4.4,1.06,5.08,3.53,1.36,7.56,2.18,11.23,1.25,3.17-.8,2.25-4.39,2.47-6.91,2.21-24.88,4.33-49.76,6.52-74.64,2.45-27.87,4.88-55.74,7.45-83.59.38-4.14-1.18-5.67-5.16-6-40.49-3.36-80.97-6.85-121.46-10.21-13.13-1.09-13.14-.97-14.44,12.13-.66,6.68-.66,6.71,5.9,6.71h97.48c5.95,0,8.93,2.9,8.94,8.7v72.49h-.01ZM132.85,169.15H24.52c-2.83,0-5.64.02-8.42.85-10.92,3.27-15.02,16.69-7.77,25.46,3.47,4.2,7.98,5.63,13.29,5.62,35.33-.05,70.66,0,105.99-.04,1.36,0,3.02.65,4.15-1.16-8.36-9.92-7.75-19.93,1.09-30.72h0Z"></path><path class="cls-1" d="M90.04,125.37c.06-6.8,6.17-12.76,13.48-12.61,3.47.07,6.31-.47,9.26-2.5,4.67-3.21,9.82-3.11,14.48.24,3.55,2.56,6.53,2.89,10.36.22,5.9-4.1,12.15-3.4,16.92,1.1,4.63,4.36,5.53,10.1,2.1,16.39-5.03,9.23-13.4,15.06-21.88,20.7-.76.5-2.26.96-2.77.58-4.62-3.47-7.79-.11-10.96,2.33-3.24,2.5-5.97,2.6-9.39.14-5.97-4.3-11.75-8.74-16.44-14.44-2.91-3.53-5.04-7.43-5.18-12.16h.02ZM153.89,120.56c-.11-3.14-1.8-5.71-5.03-6.97-4.4-1.71-7.98-.28-11.18,3.11-5.06,5.37-5.16,5.27-10.33.06-4.31-4.35-9.39-5.09-13.27-1.94-3.73,3.04-4.01,7.95-.57,13.02,4.37,6.44,10.39,11.14,16.71,15.52,1.83,1.27,3.3.91,4.99-.24,5.52-3.77,10.68-7.93,14.91-13.15,2.12-2.62,3.75-5.5,3.78-9.41h-.01ZM103.32,117.24c-5.86-.16-10.14,6.47-7.51,12.19,3.93,8.52,11.16,13.97,18.9,18.67,3.09,1.88,5.61-.94,7.29-2.83,2.24-2.54-1.43-3.04-2.56-4.15-6.17-6.08-13.09-11.6-12.95-21.5.03-1.88-1.5-2.4-3.17-2.38Z"></path><path class="cls-1" d="M72.88,50.8c-8.48,0-16.95.04-25.43-.03-1.91-.02-4.67.23-4.67-2.45s2.8-2.3,4.68-2.31c17.12-.05,34.24-.05,51.36,0,1.89,0,4.72-.47,4.87,2.15.18,3.17-2.89,2.6-4.88,2.62-8.64.1-17.29.04-25.93.04,0,0,0,0,0-.02Z"></path><path class="cls-1" d="M73.46,82.01c8.47,0,16.94-.04,25.4.03,1.9.02,4.72-.38,4.84,2.21.15,3.12-2.88,2.62-4.89,2.63-16.93.07-33.87.05-50.8.03-.99,0-1.99-.09-2.97-.26-1.22-.22-2.3-.83-2.29-2.21,0-1.39,1.11-2.04,2.33-2.15,2.14-.19,4.3-.26,6.46-.27,7.31-.03,14.61-.01,21.92-.01v.02-.02Z"></path><path class="cls-1" d="M73.54,55.79c8.64,0,17.28-.03,25.92.03,1.71,0,4.25-.46,4.22,2.16-.04,2.56-2.56,2.13-4.28,2.14-17.45.04-34.9.04-52.34,0-1.72,0-4.25.4-4.21-2.21.03-2.62,2.58-2.08,4.28-2.09,8.81-.07,17.61-.03,26.42-.03h-.01Z"></path><path class="cls-1" d="M58.75,139.87c-4.32,0-8.65.05-12.97-.03-1.54-.03-3.18-.43-3.08-2.44.08-1.67,1.55-2.13,2.9-2.14,8.81-.06,17.63-.06,26.44,0,1.35,0,2.86.47,2.87,2.16,0,1.96-1.65,2.37-3.18,2.4-4.32.08-8.65.03-12.97.03v.03h-.01Z"></path><path class="cls-1" d="M58.52,104.21c-4.32,0-8.65.04-12.97-.02-1.38-.02-2.81-.35-2.78-2.13.03-1.75,1.45-2.12,2.83-2.13,8.81-.04,17.63-.05,26.45,0,1.35,0,2.82.4,2.8,2.16-.02,1.75-1.48,2.07-2.84,2.09-4.49.05-8.98.02-13.47.02h-.02Z"></path><path class="cls-1" d="M54.52,121.95c-3.16,0-6.33.07-9.49-.03-1.22-.04-2.32-.65-2.28-2.13.03-1.49,1.17-2,2.39-2.01,6.33-.05,12.66-.04,18.98.03,1.24.01,2.33.62,2.28,2.1-.05,1.46-1.17,2.01-2.39,2.04-3.16.09-6.33.03-9.49.03v-.02h0Z"></path></g></g></svg>