<svg xmlns="http://www.w3.org/2000/svg" id="Capa_2" viewBox="0 0 125.4 505.25"><defs><style>.cls-1{fill:#2e2c2c;stroke-width:0px;}</style></defs><g id="Capa_1-2"><path class="cls-1" d="M55.49,505.25c0-58.47-.48-109.16.17-159.85.4-31.6,2.1-61-27.66-84.86-20.37-16.33-14.01-37.38,11.46-44.18,18.65-4.98,15.83-16.33,15.86-28.29.18-61.87.08-123.74.08-188.08,15.94,8.79,10.8,21.48,10.89,31.64.43,51.47.07,102.94.04,154.41,0,14.57-1.79,26.42,20.32,30.83,23.53,4.69,24.32,27.23,8.6,41.39-29.57,26.63-30.71,59.13-29.3,94.55,1.54,38.81.61,77.72.24,116.58-.09,9.58,3.23,20.42-10.7,35.85Z"></path><path class="cls-1" d="M0,226.49c.23-22.95,19-40.04,40.91-37.14,7.99,1.06,14.52,4.99,19.8,11,1.24,1.41,1.82,2.59,3.73.39,9.51-10.94,21.5-14.32,35.25-10.03,13.94,4.36,21.93,14.31,24.94,28.48,2.28,10.77-.66,20.37-6.37,29.37-5.42,8.54-12.38,15.74-19.9,22.4-10.09,8.94-21.04,16.73-32.57,23.7-1.58.96-2.94,2.01-5.05.71-18.86-11.61-36.7-24.46-50.39-42.2C3.28,244.04-.08,234.95,0,226.49Z"></path></g></svg>