<svg xmlns="http://www.w3.org/2000/svg" id="Capa_2" viewBox="0 0 244.69 298.96"><defs><style>.cls-1{fill:#717e5d;stroke-width:0px;}</style></defs><g id="Capa_1-2"><path class="cls-1" d="M120.34,38.59c1.65-9.58-.48-17.99-5.33-25.9-2.75-4.48-1.63-9,2.41-11.71,3.09-2.07,9.6-.77,11.24,3.27,3.94,9.74,10.17,18.02,15.98,26.53,5.59,8.18,9.85,17.08,14.97,25.48,3.86,6.33,10.72,8.93,17.34,11.45,1.58.6,2.96,1.39,4.31,2.35,1.46,1.03,3.16,2.63,4.9,1.29,1.54-1.19.34-3.19-.16-4.62-2.74-7.79-.38-15.85-1.43-23.72-.14-1.06.61-1.83,1.46-2.45,5.47-3.98,11.28-7.22,18.31-6.52,5.94.59,13.92,8.48,14.85,14.3.59,3.71-.74,6.64-3.33,9.43-4.81,5.19-4.78,8.66-.88,14.59.99,1.5,2.03,2.29,3.78,2.82,9.08,2.73,17.36,5.16,18.56,17.72.59,6.21,2.61,13.37,5.85,19.59,3.66,7.01-.14,13.58-3.32,19.42-5.43,10-11.37,19.62-14.32,30.81-1.99,7.54.19,14.87.1,22.29-.09,8.08.49,16.15,1.23,24.23.72,7.85-1.17,16.47.31,24.27,1.94,10.25,1.27,20.68,3.61,30.82.96,4.15.85,8.54,1.46,12.79.72,5.08-1.34,8.61-5.52,11.25-5.13,3.24-10.02,6.92-15.35,9.78-3.68,1.98-7.65-.09-10.89-1.82-2.11-1.12-.52-3.47,1.23-4.23,9.76-4.21,12.05-11.89,12.31-21.91.27-10.37-3.04-19.86-4.36-29.78-1.35-10.13-7.4-19.02-6.63-29.71.3-4.19-1.93-8.62-3.33-12.84-.45-1.34-.62-3.9-2.64-3.56-2.11.36-3.99,2.22-4.2,4.47-.88,9.46-3.67,18.54-4.12,28.19-.49,10.36-1.84,20.82-3.76,31.19-1.61,8.72-3.29,17.83-1.67,26.96.74,4.17-1.1,5.69-5.47,6.12-6.5.64-12.94,2.2-19.33,3.71-5.5,1.3-10.38,1.02-14.86-2.92-2.72-2.39-5.89-4.24-9.74-4.37-7.32-.26-14.63-.54-21.95-.81-2.53-.09-4.7,1.04-6.17,2.83-2.84,3.46-6.35,4.25-10.6,4.13-6.48-.18-13.01.47-19.3-1.7-2.94-1.01-5.51.93-8.27.94-6.63.03-13.32.8-19.81-1.37-1.06-.36-2.52-.63-3.42-.18-8.16,4.04-14.99-.11-22.04-3.27-2.26-1.01-4.48-2.13-7.08-2.28-6.6-.38-10.77-4.84-14.2-9.64-2.01-2.82-1.05-6.24,1.43-9.13,6.18-7.17,13.98-12.35,21.41-18.01.91-.69,2.11-1.17,2.71-2.07,8.63-12.79,21.51-21.97,29.65-35.21,6.5-10.57,11.19-21.72,13.48-33.96,2.06-11.02,3.6-22.22,10.39-31.83,4.39-6.21,5.7-12.97-.06-19.39-1.21-1.34-2.44-2.76-4.6-2.45-2.31.33-1.79,2.3-2.43,3.74-2.25,5.11-3.96,11.06-9.1,13.75-3.62,1.89-8.04,2.53-11.97,4.2-6.26,2.65-13.25,3.59-17.28,10.49-1.42,2.44-5.55,3.6-8.94,1.36-2.68-1.77-5.16-8.5-3.97-10.65,1.05-1.9,2.89-1.63,4.41-1.11,6.03,2.09,10.65-.66,15.77-3.43,5.1-2.76,9.4-6.35,13.9-9.8,4.38-3.35,7.64-16.56,5.4-21.2-.95-1.96-2.2-.78-3.37-.7-4.67.31-5.79-1.47-4.49-5.98,1.74-6.04,6.92-9.05,10.85-13.15,2.86-2.99,3.9-6.17,4.5-10.39,1.15-8.16,4.63-15.87,6.49-24.01.9-3.94,5.5-7.71,9.82-9.97,5.19-2.71,18.66.87,18.95,9.7.2,6.08,2.92,11.48,3.24,17.41.05.98.19,2.32,1.4,2.24.82-.05,1.77-.92,2.34-1.67,5.76-7.65,8.64-16.39,9.27-25.87.24-3.65.04-7.32.04-10.64ZM116.39,110.41c0,5.32-.27,10.66.05,15.97.83,13.49,7.36,25.48,10.45,38.41,2.11,8.82,1.32,17.91,4.23,26.73,2.17,6.57-.03,14.25,2.12,21.19,2.82,9.08,2.54,18.64,4.71,27.85,1.44,6.11,4.52,11.82,5.18,17.95,1.23,11.44,8.77,18.38,16.34,25.5,1.53,1.44,3.14,1.11,4.4-.15,4.42-4.41,7.79-21.69,5.64-26.38-3.44-7.51.19-15.26-1.38-22.77-.03-.14.09-.32.16-.47,1.8-3.8,1.61-7.96,1.01-11.79-1.31-8.48-1.12-16.71.8-25.11.77-3.35,2.47-6.68,2.23-10.09-.58-8.28,3.32-15.54,4.74-23.36,1.18-6.48,1.48-10.96-6.22-12.13-9.59-1.46-10.33-3.45-6.8-12.61.65-1.68.23-3.69,1.73-5.1,3.83-3.59,3.57-8.4,2.41-12.58-2.65-9.59,1.03-18,4.25-26.36,2.32-6,1.87-10.46-3.81-13.29-4.29-2.13-8.43-4.43-12.41-7.07-7.58-5.02-14.99-10.07-16.93-20.01-.55-2.8-2.51-5.31-3.76-7.99-.57-1.23-1.36-1.88-2.73-1.52-1.23.32-1.3,1.28-1.29,2.35.06,11.45-4.19,21.51-9.59,31.37-2.43,4.43-6.06,9.06-5.72,14.06.39,5.83.06,11.6.19,17.39Z"></path></g></svg>