<svg xmlns="http://www.w3.org/2000/svg" id="Capa_2" viewBox="0 0 568.34 609.25"><defs><style>.cls-1{fill:#717e5d;stroke-width:0px;}</style></defs><g id="Capa_1-2"><path class="cls-1" d="M99.87,226.29c1.28-3.05,2.45-6.15,3.88-9.13.65-1.35.87-3.81,2.97-3.26,1.41.37,1.29,2.47,1.26,4-.07,4.01.45,7.91,2.59,12.44.5-4.77-1.08-9.09,2.13-13.55,0,3.64-.08,6.31.04,8.97.06,1.27-.27,3.02,1.02,3.64,1.63.79,2.56-.95,3.67-1.84.48-.38.91-.82,1.36-1.23,1.57.98.89,2.12.68,3.19-.16.81-.39,1.63-.4,2.45-.03,3.01.62,5.69,3.97,6.68,1.53.45,3.79,1.53,4.43-.36.92-2.71,1.66-5.93-.29-8.58-1.64-2.23-3.73-4.14-5.37-6.36,3,3.51,8.09,5.23,7.72,11.57-.24,4.11,5.54,7.5,9.75,6.89,1.01-.15,1.45-.63,1.63-1.52.24-1.14.5-2.27.69-3.42,1.36-8.1-.7-10.36-8.89-9.8-.8.06-1.61.08-2.85.14q3.56-2.26,10.72-1.03c.46-1.75-.88-3.13-.97-4.75.61.25,1.7.8,1.75.71,1.82-2.96,3.88-5.84,5.16-9.03.93-2.32-2.47-2.7-3.19-4.54-.62-1.59-1.51-3.09-2.34-4.74-1.17,1.33-2.13,2.88-3.64,2.87-4.91-.06-4.31,2.57-3.05,5.67-3.62-3.47-3.71-8.51-5.69-12.98.98,4.86,1.92,9.85-4.19,11.31-3.44.82-3.86-3.02-4.57-5.42-1.74-5.87,4.52-1.84,5.6-4.82-3.48-3.11-4.37-6.55,1.74-10.05-8.68-.91-3.88-10.87-10.73-12.83,2.84,5.59,2.84,11.54,3.12,17.44.29,6.16-2.55,10.02-8.57,10.78-2.98.38-5.29,1.83-7.77,3.12-4.76,2.48-9.67,1.62-12.88-2.7-1.95-2.62-4.31-4.51-7-6.24-4.03-2.59-6.41-6.37-4.42-11.04,3.96-9.28,7.84-18.91,18.81-22.3,2.27-.7,2.29-2.48,3.09-4.05,2.23-4.38,2.34-10.42,8.79-11.6.6-.11,1.21-.14,3.01-.35-3.55,2.92-6.65,4.58-8.12,8-1.94,4.52-1.63,9.66-4.16,14-.72,1.23.15,2.19,1.37,2.73,6.38,1.58,9.7-.1,8.55-4.56-2.92,1.54-5.02,4.58-8.65,4.63,6.54-5.84,13.36-11.36,19.62-17.59.16,2.93-2.51,3.8-3.82,5.61-1.44,2-3.9,3.29-4.43,5.91-.37,1.87-1.46,4.46.63,5.43,1.9.88,4.5,1.16,6.57-.71,3.15-2.85,4.71-6.21,3.28-10.95,3.3,2.01,3.23,5.68,6.02,7.68,2.61-3.22,2.09-7.09,2.25-10.9q3.79,2.44.54,12.2c1.91.75,1.92-1.29,2.88-1.91,1.7,2.68,2.73,5.62,3.1,8.99,1.84-3.29,1.68-7.38,5.2-10.08-1.2,6.72-4.82,13.87,3.36,18.92,1.64-2.32.66-5.38,2.37-7.52.53-.67,1.05-1.46,1.98-.95.93.51.52,1.29.21,2.13-3.36,9.13-.62,15.54,8.3,19.76.61.29,1.27.88,1.73.31,2.24-2.77,3.42-6.1,4.25-9.49.64-2.63-2.19-2.46-3.44-3.54-.98-.84-2.21-1.37-3.39-2.07-1.87,1.94.45,4.39-1.3,6.37-2.99-3.66-.9-8.02-2.01-11.94,2.67,3.43,6.49,5.02,9.8,7.54,1.58-5.63.76-6.99-6.32-10.92.73-1.23,1.67-.4,2.53-.29,1.46.19,3.22,2.74,4.16.62.86-1.94.3-4.6-2.35-5.88-2.98-1.44-6.2-2.47-8.68-4.82-.21-.2-.21-.6-.56-1.66,4.23,2.94,8.37,4.08,13,4.41,6.39.45,6.87.39,7.04-6.88-4.41,2.47-8.46,3.3-11.06-2.22-2.31-4.9-.25-9.11,5.13-9.86,1.47-.2,3.07.2,3.78-1.63.93-2.42-1.46-2.11-2.44-2.91-2.56-2.1-3.08-4.63-1.7-7.57,1.45-3.1,3.85-4.5,7.29-3.83,3.02.59,4.6,2.42,4.75,5.53.23,4.79.26,4.79,4.77,7.62.66-2.82,1.89-5.32,3.65-7.47,1.93-2.36,1.26-3.44-1.53-3.86-3.98-.6-5.94-3.12-6.85-6.89-.71-2.91-2.12-4.94-5.7-3.12-2.27,1.15-2.55-.97-3.67-2.31q8.21-.78,11.52,6.54c.63,1.4,1.56,2.6,2.98,3.23,1.19.53,2.56,1.47,3.76.7,1.15-.75.07-2.16.16-3.27.24-2.69-1.2-5.39-.18-8.55,2.25,1.37,1.57,3.42,2.03,4.99.49,1.68,1.31,3.1,3.09,3.62,1.01.3,2.19.06,2.66-.85.85-1.65-.97-2.63-1.34-3.99-.5-1.82-2.71-3.05-1.94-5.33.42-.06.99-.15.99-.14,1.45,8.04,8.78,9.47,14.43,12.64,4.34,2.43,6.96,1.08,8.29-3.81.88-3.26,2.5-6.42,1.9-10.85-4.27,4.56-8.75,3.08-13.76,1.14,1.36,5.01,4.43,7.76,7.53,10.79-4.31-.84-9.23-6.81-9.35-10.85-.04-1.14.44-1.53,1.38-1.51.65.02,1.29.26,1.93.44,3.45,1.01,7.88,3.39,9.67-1.1,1.42-3.57-4.2-3.6-6.02-6.01,2.05-2,4.65-.43,6.74-1.38,0,0-.09-.09-.09-.09,1.48,3.35,3.9,1.53,5.92.93,1.63-.49,3.11-1.33,1.55-3.6-.85-1.24.43-2.01,1.41-1.63,2.68,1.05,4.66-1.61,7.24-1.06,2.39.51,4-1.96,6.59-2.49-3.38,4.78.03,12.23-7.58,14.53-1.01-.3-.65-2.67-2.72-2.92-.23,5.09,3.34,9.51,2.1,14.63-.32,1.33,1.4,1.65,2.42,2.13,1.52.71,2.08-.52,2.67-1.49,1.75-2.87,2.99-5.94,3.55-9.27.18-1.04-.33-2.54,1.94-2.49,0,3.31-.63,6.56-2.34,9.27-2.25,3.58-2.42,6.52.88,9.46.93.83,1.46,2.12,2.66,3.94,1.23-5.65.51-10.44-.63-15.79,2.87,1.2,3.51,3.56,4.9,5.22.67.8.72,2.57,2.3,2.08,1.25-.39,1.3-1.85,1.55-2.96.85-3.82-.41-7.19-2.15-10.57,5.64,3.5,2.92,12.23,10.39,14.64-3.08,1.89-3.71-1.11-6.49-.25-.77.42.67,2.57-.51,3.8-1.12-2.71-2.33-3.75-3.99-.3-1.43,2.97-.63,5.48,1.23,7.88,1.49,1.93,2.98,3.85,4.49,5.78,4.34-3.47.45-8.21,2.38-11.96,2.01,1.31-.4,3.3,1.28,4.78,1.99-1.63,5.07-2.54,3.16-6.31-.13-.26-.07-.68.04-.98,2.62-7.18,3.52-13.92-5.87-18.18,3.46-.89,4.66,1.63,6.69,1.47.36-6.03-3.9-10.86-9.19-9.96-2.58.44-2.56-1.34-3.79-2.85,4.33,1.43,8.6.6,12.35,3.48,2.53,1.94,3.76-1.41,5.01-3.58,3.85,3.6,7.29,7.43,12.03,10.03,1.49-6.23-3.12-9.91-5.5-14.53,3.14-.71,5.21,1.83,7.98,1.62.37-2.81-2.22-5.17-1.3-8.22,3.58.8,2.32,5.27,5.47,6.31,2.36-1.95.81-5.5,2.66-8.12,2.04,1.46,1.65,3.77,2.6,5.4.93,1.59,1.73,3.13,3.32,4.26,1.93,1.38,4.3,3.35,6.19,2.51,2.49-1.1-.79-3.72.46-6.49.67,2.09,1.21,3.62,1.67,5.18.7,2.41,2.08,4.08,4.59,4.79,3.26.93,6.94,1.91,9.8.53,3.92-1.91-.07-5.57.52-8.44.16-.77-.14-1.65-.28-2.47-1.2-7.27-7.1-10.22-13.83-6.91-1.17.57-2.91,1.01-2.77,2.51.16,1.67,2.03,2.22,3.4,2.43,2.51.39,5.08.33,7.96.47-4.4,5.64-7.95,2.52-11.52-.14-2.33-1.73-4.66-3.48-6.94-5.66,3.2,1.57,5.38,1.09,8.23-1.26,2.47-2.03,6.66-1.31,10.53-1.36-1.56-4.2-3.59-6.55-8.43-5.39-4.05.97-8,2.16-12.06,3.3,2.9-3.29,7.03-4.45,11.68-5.68-5.29-3.72-10.33-4.41-16.46-2.62,3.01-2.9,6.65-1.44,8.91-3.35,2.35-1.98,4.51-4.19,7.18-5.98-5.76,1.71-12.12,1.5-17.03,6.6-.95-4.08,3.2-4.03,4.16-6.45-3.69-2.38-7.32-.38-10.9.18-1.58.25-.98,1.66-1,2.82-.04,2.68,2.54,4.33,2.45,6.95-2.38-1.32-4.07-3.75-7.47-4.54,3.35,5.9,3.3,11.83,1.72,18.52,5.76-3.8,5.61-8.98,5.65-14.09,2.26,3.86,1.95,10.48-1.97,13.47-4.64,3.55-8.77,8.09-14.83,9.61-7.82,1.97-16.78-3.58-18.43-11.56,4.52,9.25,17.2,13.92,22.41,7.57-6.51-3.47-15.05-1.7-20.99-7.74-.18-.18-.9.17-1.37.27-2.58-3.38-1.9-7.76-3.48-11.56-1-2.4,1-5.73,2.88-8.19,3.86-5.05,10.15-5.33,15.34-7.67,5.62-2.53,11.06-1.51,15.46,3.14,1.63,1.72,3.51,1.68,5.52,1.06,3.96-1.22,7.81-1.25,11.54.8.29.16.58.35.9.42,2.9.66,5.84-.52,7.02-2.53.92-1.58-2.28-2.71-3.77-3.86-2.75-2.1-5.74-2.33-8.88-.73-1.11.56-2.21,1.61-3.92.57.78-1.79,2.55-1.75,3.94-2.23,6.02-2.04,11.59-5.03,17.13-8.05,4.56-2.48,7.34-8.51,6.27-13.29-.42-1.9-2.07-1.3-3.27-1.45-4.79-.61-7.32-3.62-8.49-7.98-.43-1.62-.5-3.42,1-4.62,1.61-1.29,3.58-1.32,5.1-.08,2.36,1.93,3.71,2.02,4.87-1.2.75-2.09,2.51-3.45,5.05-3.37,2.35.08,3.17,1.8,3.61,3.55.55,2.22,1.35,2.09,3.02,1.06,2.01-1.23,4.9-.73,4.89,1.36-.01,6.18,6.41,6.66,8.27,11.17,2.59-2.71.44-3.8-1.02-4.96-3.89-3.1-4.32-7.26-3.78-11.75.1-.83.18-1.74,1.09-2.07,1.16-.43,1.95.31,2.46,1.18,1.72,2.95,3.36,5.95,5.2,9.23,1.77-2,.41-3.38-.47-4.54-2.33-3.07-2.13-6.57-1.85-10.04.13-1.57.3-3.76,2.34-3.93,2.2-.19,2.84,1.7,3.2,3.44-1.44,1.37-2.5-2.15-3.33-.2-1.47,3.46-.39,6.76,1.58,9.81,1.73-.57,1.52-1.77,1.37-2.93-.09-.65-.4-1.32-.31-1.94.23-1.69,4.56,2.4,2.89-1.94-.66-1.72-1.45-3.32-1.49-5.2-.04-2.02.05-4,.86-5.88.47-1.09,1.1-2.18,2.5-2.08,1.78.13,1.95,1.5,1.99,2.9-1.19-.4-2.51-1.37-3.16.71-.67,2.14-.76,4.25.52,6.2.45.68,1.2.44,1.78.1,1.96-1.12,2.01-2.84,1.43-4.75-.24-.79-.46-1.58-.68-2.38,2.32-.16,1.75-2.49,2.74-3.66.84-1,1.47-2.57,2.85-2.48,1.55.11,1.6,1.91,2.03,3.09.39,1.07.38,2.3,1.53,2.96.28,1.03-1.68,2.5-.08,2.93,2.62.72,4.87-.61,6.99-2.49-2.62-2.08-4.83-.2-7.02-.33.06-.16.07-.36.18-.46,2.39-2.26,5.14-1.92,7.88-.92,1.05.38,1.73,1.66,1.07,2.42-1.82,2.14-3.88,4.17-7,4.14-2.67-.02-5.33-.15-7.59,2.03.59,1.28,1.87,1.3,2.83,1.44,1.92.3,4.02.75,4.18,2.8.13,1.61-1.78,2.64-3.16,3.53-1.58,1.02-3.69.75-3.92,3.98-.15,2.12-3.95,1.34-6.2,1.53-1.1.1-2.89-.38-2.91,1.08-.03,2.15,1.91,1,3.05,1.15,1.82.23,4.81-1.63,5.22.72.52,3-2.87,3.48-5.21,4.25-2.78.92-7.16-1.17-7.71,4.36,5.37-1.35,10.66-2.5,15.83-4.05,5.4-1.61,6.91-.78,6.02,4.81-.62,3.91.37,6.7,3.58,9.54,1.9-10.43,10.26-12.77,18.53-15.15,2.06-.59,4.38-1.12,5.36,1.82-4.01-1.14-7.54.66-11.1,1.96-3.53,1.3-4.94,5.96-2.9,8.98q1.55,2.29-.68,3.39c-.62-2.96-1.25-5.95-2-9.54-1.17,1.11-2.01,1.66-2.52,2.42-3.89,5.86-4.25,13.12-7.8,19.24.92-3.11-.14-6.25.42-9.33.36-2,1.15-4.6-1.46-4.89-2.3-.26-2.36,2.73-3.02,4.51-.22.59-.3,1.4-.06,1.95,1.88,4.45.48,7.66-3.36,9.47-1.06,2.71,4.14.31,1.91,3.02-2.16,2.63-.34,2.36,1.34,2.91,2.04.66,4.14,1.41,5.9,2.59,1.94,1.29,2.73.87,3.74-1.05,2.37-4.5,6.46-6.79,11.34-7.13,4.94-.34,9.98-.38,14.89.17,6.23.7,9.36,4.02,10.52,10.29.51,2.77.5,5.62.87,8.42.13.98-.4,2.41,1.49,2.63,2.9.33,18.35-6.93,20.03-9.54.68-1.06.96-2.13.35-3.28-.74-1.38-1.85-.94-3.03-.69-2.2.45-4.26,2.2-6.9,1.1,1.52-1.86,4.3-1.2,5.56-3.59-2.07-.46-3.76-.83-5.45-1.2,9.19.5,11.48-6.72,14.85-12.65,1.14-2-.14-2.31-1.67-2.36-8.9-.3-17.11,1.72-24.25,7.29-.72.56-1.22,1.72-2.79.77,2.27-3.75,4.53-7.48,7.05-11.64-8.32-.28-12.81,6.45-19.35,8.79,1.44-2.23,3.96-3.97.7-6.41-3.28-2.46-7.86-.55-11.26,4.69.78,1.39,2.82-.87,3.71,1.38-2.99.34-5.66.81-8.64,0,9.97-9.45,13.05-16.56,13.51-22.73.32-.08.64-.23.96-.24,5.8-.05,9.58-2.66,11.26-8.39.6-2.03,2.07-1.82,3.27-.18,2.79,3.82,3.5,7.87,1.13,12.14-.94,1.69-2.15,3.24-2.78,5.43,2.17-1.34,4.32-2.7,6.51-4,1.1-.65,2.2-1.84,3.6-.89,1.49,1.02,1.23,2.7.9,4.13-.87,3.84-2.12,7.58-3.94,11.28,3.66-2.11,8.41-.99,11.32-4.52,6.72,2.82,5.02-3.8,6.88-6.28,1.92-2.56,4.34-5.06,7.31-3.75,3.35,1.48,4.5,5.15,4.17,8.94-.18,2.15-1.57,3.86-2.74,5.95,4.43.09,6.49-1.23,6.42-5.71-.05-3.31,1.37-6.5,4.08-8.82,1.55-1.33,3.28-2.7,5.37-1.74,2.28,1.04,2.66,3.34,2.37,5.57-.24,1.78-.92,3.51-1.51,5.67,4.71-1.07,8.92-.57,12.46,2.92,2.15,2.12,2.01,3.87-.04,5.91-4.14,4.13-10.84,4.21-14.44-.59-2.56-3.42-4.91-4.59-9.16-1.86,5.42,1.63,9.09,4.37,6.48,10.38,2.93,0,5.57-.15,8.19.05,1.9.15,4.48-.39,5.38,1.7.8,1.87-1.84,2.85-2.91,5.32,6.47-2.42,11.87-.68,16.93,2.35,2.04,1.22,2.92.17,4.05-1.2,2.43-2.93,5.66-4.59,9.32-5.44,3.11-.72,4.6.11,3.13,3.5-.79,1.82-1.65,3.62-2.88,6.31,1.74-1.15,2.86-1.88,3.96-2.61,6.09-4.07,12.11-4.03,18.2,0,2.7,1.79,3.92,3.25-.15,4.85-3.72,1.46-7.32,3.41-11.36,3.6-2.31.11-2.56,1.44-3.11,3.05-.68,1.97.55,2.36,1.9,2.64,2.95.6,2.49,3.68,3.99,5.3.79.85,1.87,1.5,2.93.19-.58-.44-1.16-.89-1.8-1.38,1.35-.75,2.68-.59,3.99-.42,1.34.17,2.91.3,2.94,2.03.03,1.5-1.49,1.48-2.58,1.8q-5.51,1.62-2.09,7.34c3.33-3.76,6.55-7.66,11.87-8.54,1.5-.25,3.16-.6,4.27.57,1.26,1.32.18,2.85-.33,4.2-1.17,3.12-3.42,5.53-5.94,8.16,2.97.62,3.33-1.63,4.3-2.95,4.49-6.11,9.26-7.27,16.05-3.81,4.02,2.05,4.31,3.62.97,6.55-1.32,1.15-2.98,1.91-4.55,2.89,1.93,2.36,4.51,1.3,6.63,1.92,2.55.75,5.55,1.36,4.74,5.11-.88,4.06-3.48,5.42-7.25,4.06-.62-.22-1.49-.93-1.76-.73-5.05,3.64-7.8-.77-11.17-3.37-.63,2.04,1.91,4.16-.18,5.52-1.66,1.08-3.48-.4-5.2-.89-1.69-.48-3.2-1.71-5.47-1.25,2.4,2.75,4.63,5.31,7.02,8.05,2.96-2.99,5.51-6.97,10.4-5.51,2.64.78,2.54,3.51,2.3,6.02,2.61-.61,5.45-3.91,6.88-2.05,2.56,3.35,5.94,4.3,9.29,5.88,1.29.61.85,1.67-1.64,4.55,1.94.48,3.82.82,5.62,1.41,1.3.43,2.96,2.08,2.04,2.81-3.51,2.8-.85,5.21-.06,7.77.3.97.57,2.02-.24,2.82-1.13,1.11-2.13.12-3.12-.42-3.77-2.07-4.95-5.94-6.29-9.8-1.69,1.36-.27,2.22-.08,3.19.23,1.21,1.79,2.59.35,3.6-1.5,1.05-1.69-.86-2.37-1.65-.23-.27-.96-.46-1.21-.3-5.34,3.41-5.31-1.63-6.41-4.27-.87-2.08-.55-4.76-3.66-5.4-.94,1.8.73,3.02,1.03,4.52.38,1.87.87,3.66-1.61,4.49-.93.31-2.13.71-1.83,1.95.39,1.64,1.88.88,2.94.99,2.98.31,5.99.41,8.92.94,2.54.45,3.08,1.84.94,3.69-2.7-3.96-6.68-2.49-10.31-2.39-1.54.04-3.67,1.27-4.08-1.26-.73-4.47-3.28-3.57-6.18-2.58-2.74.93-5.48,1.32-8.23-2.56,3.93,1.34,6.79,2.29,9.71.81,1.2-.61,3.48-.24,2.98-2.44-.54-2.39-2.61-1.59-4.13-1.16-5.63,1.59-11.18,1.37-16.69-.49-5.35-1.81-8.03-5.81-8.06-12.62.64,1.15,1.05,1.82,1.4,2.53,4.04,8.13,13.84,12.05,22.6,9.18,2.33-.76,2.88-1.33,1.32-3.68-3.11-4.71-7.38-6.89-12.82-7.35-3.72-.31-7.29-1.08-9.69-4.44,4.94,3.68,11.13,2.06,17.09,4.78-4.45-9.03-11.39-11.77-20.2-11.4,4.3-3.14,8.83-1.17,12.89-1.53-4.58-9.75-12.81-6.48-21.59-4.42,2.27-2.41,3.88-2.32,5.24-2.83,1.18-.44,3.1.17,3.39-1.45.24-1.33-1.35-2.15-2.19-3.15-3.15-3.79-8.31-4.14-11.98-6.99-4.21-3.27-7.95-3.25-11.43,1.08-1.15,1.42-2.77,1.83-4.51,1.04-1.63-.75-2.46-2.01-2.71-3.87-.25-1.8,1.89-2.69,1.5-4.51-1.84-.55-2.17,1.32-3.26,1.85-1.51.75-2.76-.98-2.43-1.22,2.51-1.76,4.12-3.84,4.02-7.01,3.12.65,4.92-3.47,8.19-2.29,1.18,2.38,1.24,2.5,3.44,1.48,2.94-1.37,5.87-2.73,10.42-3.71-4.5-.33-7.44-1.87-10.64-.93.96-1.14,2.33-2.51,1.14-3.87-1.05-1.19-2.47.23-3.56.79-5.33,2.75-11.79,4.11-13.42,11.38-.41,1.83-2.19,3.04-4.2,2.95-1.96-.09-2.68-1.74-3.18-3.4-.24-.79-.37-1.64-1.35-1.9-6.03,4.52-7.9,4.45-13.35-.5-.98-.9-1.91-2.09-3.09-2.5-5.03-1.73-2.66-3.93-.58-6.22,2.44-2.68,5.72-4.76,6.75-8.57-9.81-1.36-12.88,9.09-21.19,10.78,2.67,2.12,10.03.95,4.14,7.57,5.33.51,9.44,2.71,13.63,4.72,2.36,1.13,2.54,2.27.98,4.57-2.2,3.24-5.52,4.09-8.73,5.38-2.08.83-5.29.62-3.44,4.63.6,1.31-.98,2.36-2.32,2.75-5.07,1.46-9.74-3.34-14.89-.99-.29-4.64-5.48-5.6-7.29-9.24.59-.16.94-.38,1.17-.29.45.17.92.44,1.24.79,4.27,4.6,9.74,6.53,15.8,7.25,1.19.14,2.41.45,3.24-.57.78-.97-.12-1.82-.59-2.68-.49-.91-1.8-1.47-1.33-2.9,5.43,1.74,9.73-.86,13.97-3.53,2.21-1.39,2.65-2.59-.32-4.03-4.78-2.33-9.53-4.35-15.09-3.14.23-2.39,1.7-3.36,2.75-4.61.63-.75,1.54-1.43.53-2.51-1.27-1.35-8.03-.61-8.33,1.11-.48,2.73-2.52,2.87-4.1,3.82-1.33-1.52,1.49-2.93-.21-3.71-.94-.43-2.57.24-3.74.76-2.92,1.29-3.58,4.17-4.4,6.87-2.35,7.7-10.21,12.63-17.05,9.14-1.71-.87-3.89-.76-5.84-1.21-6.42-1.47-12.63-3.29-15.55-10.15,1.77-4.37-.1-8.99,1.6-13.75-8.27,4.15-8.54,4.77-5.93,9.99.99,2,3.32,2.14,4.42,3.83-3.95-1.44-6.94,4.49-11.27,1.23,2.75,2.08,4.8,4.47,6.8,6.91,4.3,5.25,4.12,5.96-2.07,8.04-1.16.39-2.86,1.37-3.6-.07-1.13-2.21,2.68-.41,2.34-2.6-3.57-1.16-7.17-2.33-11.22-3.64,1.02,3.25,4.79,2.16,5.19,4.31,1.14,6.1,6.96,7.68,10.39,11.52,1.59,1.78,2.78.96,4.09-.47,2.42-2.62,2.17-6.14,3.33-9.5,2.55,2.47,4.83,6.34,8.4,1.53,2.53,5.94,2.81,12.1,3.47,18.82-3.18-1.25-5.53-2.17-8.56-3.36,1.83,4.96,3.16,9.1,9.06,6.02.3-.16,1.12.12,1.35.45,3.15,4.48,4.15.04,5.62-1.45,1.99-2,1.01-4.73,1.25-7.16l-.09.11c1.9-.02,2.65,1.34,3.02,2.82,1.88,7.48,7.78,11.99,12.75,18.05.79-3.22,3.56-5.67.4-8.23-5.66-4.59-8.42-10.3-7.37-17.93,1.39,4.16,4.77,2.9,8,3.47-1.18-4.08-.45-8.1-2.59-11.66,2.69,1.27,5.68,1.42,3.48,6.2-1.35,2.92,2.94,6.05,4.99,9.57.97-2.06,4.32-3.5-.35-4.6-1.14-.27-4.08-2.63-1.58-3.99,3.5-1.9,7.8-1.39,11.72-.37,1.07.28,2.34,1.73,1.86,2.67-2.62,5.11,1.88,4.92,4.3,6.7.62-3.29-.22-6.44,2.67-9.95-1.59,5.21-1.43,9.38-1.62,13.52-.1,2.08-.39,4.09-3.13,4.27-1.48.1-3.14-.2-2.73,2.31.3,1.83.98,2.75,2.89,3.44,5.03,1.81,3.59-2.69,5.23-4.95-2.33,12.99,6.79,20.58,12.57,29.72.97-3.38-.7-6.23-1.16-9.27-.47-3.12-.3-6.55-1.62-9.25-.93-1.89-1.01-6.64-5.66-4.5-.42-1.73.16-3.28.94-4.76.95-1.8,1.91-.55,2.76.09,1.99,1.5,3.95,3.03,6.3,4,4.43,1.84,8.84.53,12.22-4.18-6.71,2.1-12.09-2.1-18.21-2.4-4.29-.2-6.23-4.19-6.92-8.16-1.17-6.66,4.41-17.59,10.39-20.85,4.82-2.62,19.85-1.17,23.85,2.32.37.32.75.69.99,1.11,4.86,8.52,6.61,18.7-2.82,25.44-7.84,5.6-7.67,8.56-4.77,16.96,1.78-1.99,2.02-5.11,5.46-7.17-2.4,5.35-4.29,9.87-1.2,14.54.68,1.02,1.14,2.83,2.73,2.33,1.07-.33,1.23-1.86,1.17-3.08-.07-1.33.12-2.74-.25-3.98-1.33-4.47.7-8.21,2.08-12.86,1.86,1.96,3.16,3.43,4.58,4.79,1,.97,1.02,3.98,3.37,2.3,1.73-1.24,1.73-3.35.85-5.46-.66-1.58-2.94-2.65-1.69-5.91,4.73,6.16,4.36,14.2,10.05,18.81.1.08.01.35.09.48,2.5,3.89,2.17,8.74,3.88,13.44,5.12-8.05,8.52-10.47,17.14-12.53,11.98-2.87,20.66,4.09,20.12,16.14-.34,7.64,3.22,12.43,10.81,14.1,2.51.55,6.15,1.69,7.36-.71,1.04-2.07-1.65-4.67-3.49-6.54-1.98-2.02-4.8-3.35-5.77-7.1,2.49.69,3.54,1.18,4.96,3.32,3.12,4.71,9.58,5,15.29,1.93.93-.5,2.62-.74,2.16-2.23-.36-1.16-1.85-1.35-3.03-1.31-3.27.12-6.55.34-9.82.52-.02-.29-.04-.59-.06-.88,2.79-.21,5.58-.42,8.66-.65-3.95-5.28-8.73-2.37-13.2-2.07.29-1.57,1.2-1.68,1.86-2.12,1.26-.85,3.88-.88,3.16-3.07-.54-1.64-2.78-1.67-4.44-1.46-2.67.33-5.31.91-8.47,1.47,2.29-4.34,4.81-7.44,9.05-8.76q-3.15,4.54,2.57,5.93c.8.19,2.18.21,2.31.61,1.93,6.16,8.62,5.92,12.55,9.38,2.39,2.1,2.97,3.23-.11,5.02-3.97,2.32-8.13,3.69-13.03,3.3.65,3.32,3.34,3.8,5.42,4.88,6.11,3.21,9.81,11.12,8.4,17.77-.53,2.51-1.98,1.76-3.32,1.18-3.35-1.45-6.64-3.03-10.28-4.71-.78,2.99.76,4.5,2.82,5.66,3.54,1.99,5.56,5.19,7.09,8.76.63,1.47,1.6,3.19-.63,4.26-1.41.67-.71,1.6-.44,2.49,1.37,4.55.22,9.26.92,13.89.35,2.35-1.17,4.08-4.05,3.76-1-.11-2.27-1.39-2.99.3-.18.43.17,1.34.57,1.72,1.05.99,2.08,2.34,3.83,1.77.94-.3,1.76-.94,2.67-1.33,2.18-.93,3.92-.2,5.21,1.64,1.23,1.75,1.16,3.66-.55,4.88-1.86,1.33-1.67,2.04-.25,3.66,1.52,1.73,2.47,4.06,1.02,6.44-.78,1.27-2.11,1.5-3.53,1.27-2.79-.45-3.76-2.45-4.19-4.91-.31-1.76-.63-3.52-.97-5.43-2.33.35-.52,2.85-2.46,3.52-1.41-1.41-1.9-3.13-.75-5.01.67-1.1,2.17-1.91.47-3.23-.74-.57-1.5-1.53-2.62-.95-.85.43-.95,1.27-.71,2.15.04.16.2.36.15.47-3.28,6.68,1.76,9.64,5.82,13.04-2.74-.6-4.99-3.16-8.5-2.14.76,1.73,1.09,3.53,2.15,4.65,2.03,2.14,3.94,6.43,7.1,4.8,3.44-1.78-.97-4.8-.86-7.43.62.52,1.45.93,1.82,1.59,1.55,2.79,3.7,6.65,1.38,8.72-2.65,2.37-5.05-1.63-7.36-3.25-.91-.64-1.68-1.48-2.79-2.48-.62,3.72.85,6.03,3.09,8.2,3.43,3.32,6.24,7.05,5.5,12.24-.23,1.6-.51,3.45-2.58,3.85-1.77.34-2.74-.87-3.58-2.18-1.05-1.64-2.08-3.29-3.21-5.08-1.42,3.67-1.46,3.72,1.4,6.13,4.19,3.53,6.06,7.72,4.57,13.26-.71,2.66-1.94,2.67-3.95,1.53-3.75-2.12-5-5.87-5.98-9.7-1.28.43-1.02,1.17-.94,1.74,1.46,9.93-.73,12.86-11,13.86-2.42.24-3.14.96-3.14,3.22.01,15.57-1.99,30.89-5.98,45.95-.16.6-.02,1.27-.02,2.26,4.21-1.51,7.9-3.46,12.01-4.13,6.73-1.1,10.26,2.16,9.56,8.96-.14,1.32-.37,2.68-.87,3.89-2.75,6.65-3.83,13.37-1.78,20.47.49,1.69.27,3.65.09,5.46-.83,8.5-5.48,11.3-13.33,8.13-.59-.24-1.21-.43-2.5-.88,2.76,8.51,5.48,16.45,7.31,24.65,3.58,15.99,5.14,32.11-.04,47.91-7.21,22.01-6.11,43.19,3.56,64.18,2.89,6.27,1.7,8.11-4.89,10.76-8.98,3.61-9.07,3.61-9.01,13.42.03,4.29-1.81,9.53.84,12.61,2.51,2.91,7.86,1.65,11.95,2.14,10.1,1.21,20.21,2.18,29.68,6.3,3.44,1.5,6.55,3,6.58,7.71.04,5.4-.85,9.76-6.58,12.05-9.73,3.9-19.97,5.28-30.22,6.3-23.49,2.34-46.92,1.75-70.19-2.56-5.26-.97-10.23-2.78-15.1-5.06-4.54-2.12-3.91-6.02-4.27-9.78-.35-3.62,1-6,4.26-7.64,10.52-5.3,22.01-6.38,33.4-7.71,10.45-1.22,10.48-1.02,10.53-11.72.05-10.18.01-10.07-9.51-13.24-3.93-1.31-7.75-3.06-11.44-4.96-10.49-5.4-21.24-6.57-32.35-2.28-12.91,4.98-25.84,4.12-38.7.05-8.45-2.68-10.03-5.19-9.32-13.87,2.5-30.85,15.35-57.3,34.79-80.84,12.52-15.17,26-29.49,39.4-43.88,1.72-1.85,3.39-3.16,1.36-6.23-2.1-3.18-1.28-7.19-.29-10.72,1.54-5.46.97-10.43-1.84-15.37-1.55-2.73-2.73-5.78-2.35-9.06.24-2.13-1.04-2.87-2.59-3.69-50.22-26.75-90.16-64.8-121.6-111.87-22.63-33.88-38.21-70.84-45.51-111.07-.63-3.47-2.74-5.09-5.16-6.87-5.08-3.73-5.35-4.17-6.29-9.52-3.11,5.9-2.94,6.68,2.27,10.21,4.41,2.99,7.26,13.93,4.74,18.73-1.39,2.65-2.72.9-3.71-.4-2.84-3.71-5.09-7.76-6.57-12.5-3.16,5.89-2.78,8.53,1.52,12.23,3.53,3.04,5.37,10.39,3.76,14.73-.84,2.28-2.14,2.5-3.6.76-2.24-2.67-4.29-5.51-6.49-8.36-1.44.57-.71,1.93-.63,2.85.67,8.54-4.07,14.07-10.29,18.79-.88.67-1.9,1.64-3.14.93-1.26-.72-.74-2.09-.73-3.18.05-8,1.88-15.18,9.07-19.99,1.61-1.08,3.29-2.32,3.86-5.12-4.33,1.88-7.65,5.01-12.02,5.88-2.45.49-3.69.75-4.15-2.7-.59-4.35-4.37-7.22-7.14-10.56-2.22,1.51-1.05,3.46-1.02,5.12.09,5.8,0,5.89-5.3,3.59-3.34-2.61-4.82-6.77-7.88-10.09-.8,7.2-.57,7.47,7.98,10.02.5,4.41,2.8,8.43,2.63,13.02-.11,2.88-.81,3.84-3.48,2.04-4.28-2.88-7.71-6.37-8.59-12.33-1.72,2.03-1.37,3.73-1.07,5.42,1.64,9.3-1.72,16.65-8.82,22.51-.97.8-1.81,2.34-3.34,1.52-1.19-.64-.74-2.1-.76-3.21-.15-8.16.25-16.11,8.08-21.27.75-.5,1.21-1.45,1.54-2.58-3.52,2.4-6.93,4.87-11.07,6.09-.47-8.38,4.21-14.75,11.93-16.78,5.3-1.39,1.89-6.03,3.13-9.08-2.51,4.41-6.87,6.63-10.49,9.64-.89.74-1.78,1.69-3.08,1.15-1.46-.61-.74-2.02-.88-3.08-.09-.65.1-1.34.03-1.99-.16-1.53,1.48-3.63-.53-4.48-1.72-.73-4.21-1.13-5.74-.39-1.56.76-.14,3.05.19,4.54,1.61,7.13-.32,13-5.28,18.3-2.52,2.7-5.09,2.71-8.08,1.78-3.07-.95-3.92-3.37-3.81-6.28.13-3.23.02-6.6,3.84-8.85.45,3.2-1.8,5.29-1.78,7.96.03,4.3,1.43,5.86,5.6,5.6,1.29-.08,2.34-.48,2.95-1.52.7-1.18-.62-1.61-1.09-2.4-2.57-4.3-4.74-8.72-1.97-14.21-2.77.26-5.56,3.05-6.81-1.4-.41-1.44-1.9-.5-2.69.53-2.47,3.23-3.73,6.68-2,10.69.78,1.8,1.57,3.58,2.47,5.61-2.89.53-2.93-2.51-4.8-3.17-1.61,3.29-3.84,5.71-8.01,4.99-1.04-.18-2.25-.07-2.03,1.33.24,1.54,1.54.83,2.4.6,6.6-1.76,11.8.25,15.6,5.83.7,1.03,1.81,2.23,1.08,3.63-.81,1.57-2.28.85-3.56.68-1.45-.19-2.99-.72-4.1.86-.59.85-1.11,1.7-.61,2.75.59,1.22,1.49.79,2.52.58,8.54-1.72,14.26,2.4,15.93,11.11.56,2.9-1.06,2.77-2.78,2.4-3.81-.82-6.95-3.06-10.58-5.75.65,3.65,2.23,4.98,5.28,5.37,7.43.95,10.52,6.29,12.12,12.84.3,1.23.88,2.92-.26,3.78-1.23.93-2.5-.31-3.54-1.07-2-1.47-3.91-3.06-6.84-5.37,1.36,2.64,2.22,4.29,3.07,5.95,2.95,5.79,1.94,12.96-2.27,17.74-1.76,2-2.58,1.53-3.32-.7-2-5.96-3.41-11.89.13-17.82.85-1.42,1.65-2.98-.1-5.12-1.23,2.37-2.2,4.74-4.04,6.44-.97.89-1.93,2.11-3.4,1.71-1.69-.46-1.33-2.11-1.4-3.37-.2-3.36-.43-7.1,1.68-9.67,4.4-5.38.93-8.93-1.92-13.25-1.39,2.49-1.19,4.87-1.67,7.09-.3,1.37-.09,3.32-2.07,3.53-1.76.19-2.51-1.33-3.22-2.68-.39-.73-1.05-1.39-1.22-2.16-1.39-6.11-5.36-7.27-11.09-5.7,2.45,7.86-.15,14.87-3.82,21.77-1.37,2.58-2.61,2.9-4.8,1.04-2.14-1.82-4.46-3.41-6.96-5.29-.42,1.54-1.59,2.48.94,3.08,2.56.61,2.79,3.26,1.97,5.31-1.94,4.87-.13,6.87,4.67,7.88,4.63.98,7.08,4.21,8.18,9.01.96,4.18-.81,4.62-4.03,4.39-3.12-.22-5.37-2.27-7.9-4.23-1.12,4.2-1.15,6.62,4.08,6.67,5.79.06,9.67,4.97,9.56,10.74-.06,3.13-2.68,4.96-5.98,3.83-1.84-.62-3.45-1.89-5.78-3.22.63,3.3,2.21,6.26.36,9.23-1.65,2.65-3.57,4.81-6.8,5.39-1.13.21-2.87.08-3.08,1.23-1.24,6.6-6.53,5.34-10.88,5.64-.46,1.85.96,2.58,1.56,3.69,1.85,3.43,3.77,3.65,6.68.8,4.16-4.07,9.07-3.37,13.92-1.06,2.52,1.21,2.82,2.45.29,4.17-3.25,2.21-6.56,3.86-10.67,3.37-1.57-.19-3.26-.58-4.83.3,2.92,5.56,3.4,5.69,8.74,2.7,1-.56,2.1-1.03,3.2-1.32,2.74-.73,5.3.04,6.36,2.58,1.14,2.74-1.78,3.38-3.42,4.58-1.31.96-3.27.7-4.31,2.27,1.38,2,2.93,1,4.41.32,1.66-.77,3.25-1.7,4.92-2.43,1.48-.65,3.41-1.9,4.51-.12,1.16,1.87-1.42,2.12-2.31,3.08-1.2,1.3-2.62,2.4-4.58,4.15,3.41.45,4.88-1.53,6.61-2.64,2.86-1.85,4.2-1.57,3.49,2.4,3.02-1.34,4.91-5.67,8.78-2.94,2.74,1.93-1.54,2.78-.77,4.69.51-.11,1.12-.24,1.73-.38,2.37-.57,5.05-2.14,7.01.17,2.02,2.38-1.65,3.65-1.82,5.44-.46,4.99-2.49,3.79-5.3,1.96-1.32-.86-3.02-1.13-4.55-1.67-.17.55-.36.85-.33,1.12.2,1.78,3.17,3.69.63,5.16-2.05,1.19-3.88-1.1-5.54-2.46-1.42-1.17-1.53-3.38-3.39-4.18-1.06-1.6-1.84-3.58-4.67-3.38.6,2.3.15,4.8,1.95,6.71,1.94-.53,1.36-2.75,2.78-3.43-1.04,1.9,1.81,5.42-1.52,5.91-3.51.51-3.65-3.07-4.23-5.64-.21-.95-.55-1.87-.96-3.25-.53.74-.86,1.05-.99,1.42-.62,1.86.85,5.12-2.19,5.29-2.92.16-3.36-3.01-4.49-5.23-1.47-2.88,1.74-6.4-1.74-9.08-1.38,1.98-.59,4.22-1.09,6.18-.46,1.78-1.48,3.22-3.36,3.13-1.73-.09-2.44-1.73-2.48-3.28-.06-2.48-.24-5.08.37-7.43.92-3.51-.22-5.76-3.31-7.64-2.03,4.02-1.26,8.9-4.1,12.62-.84,1.1.47,2.2,1.37,2.86,5.09,3.75,5.6,9.01,5.26,14.73-.18,3.08-1.3,4.56-4.51,4.48-2.3-.06-4.6.3-7.23.49.79,3.11,2.86,5.44,3.31,8.44.42,2.83-.45,3.42-2.88,2.33-4.95-2.22-9.89-4.48-15.27-6.92.46,3.22,3.04,3.41,4.95,4.28,8.07,3.66,11.8,9.73,11.12,18.19-.08.95.2,2.12-1.07,2.5-.9.27-1.52-.4-2.15-.96-2.35-2.08-4.72-4.15-7.61-6.69-.49,5.48-2.22,10.5,3.52,13.91,1.22.72,2.21,2.05,2.22,3.72-1.44-2.73-4.26-.46-6.63-2.03,1.08,4.65,2.59,8.47,5.96,11.65,2.36-3.35,1.17-6.56.56-9.74,3.86,3.51,2.34,7.97,1.72,12.01-.38,2.46-2.17,1.2-3.08-.08-2.16-2.99-4.19-6.07-6.47-9.39-1.83,2.92,1.32,4.86.71,7.22-1.46,1.41-.93,3.35-1.34,5.05-1.01-.71-.55-2.65-2.71-2.72-1.73,4.93-1.01,9.38,2.31,14.1,3.63-5.64,3.25-11.02,1.65-16.52,4.15,3.54,3.16,8.04,2.14,12.4-.63,2.68-1.77,5.24-2.89,8.45-6.62-7.74-7.9-15.18-3.07-23.65-1.35,1.9-2.67,3.83-4.06,5.7-.5.67-1.21,1.28-2.09.67-.59-.41-.65-1.11-.36-1.79.98-2.29.1-5.04,1.8-7.24,1.87.67-.17,2.79,1.31,3.54,4.53-4.77,5.26-6.5,5.57-13.17-5.86,2.13-9.79,8.09-9.79,15.01-.04,46.64-.06,93.27-.08,139.91,0,22.99.1,45.98-.08,68.96-.03,4.12,1.22,5.28,5.32,5.5,11.82.62,23.56,2.08,34.85,5.93,4.47,1.52,8.8,3.02,8.45,9.36-.41,7.36-1.34,9.44-8.47,11.59-21.14,6.37-42.88,7.62-64.77,6.79-13.15-.5-26.25-1.86-39.09-4.93-2.42-.58-4.7-1.68-7.11-2.34-5.77-1.57-6.94-5.71-7.06-11.06-.11-5.12,2.93-6.98,6.87-8.51,12.12-4.71,24.85-6.16,37.68-6.8,3.99-.2,4.94-1.49,4.95-5.3.14-71.63-.92-143.26.13-214.88.04-2.49.22-4.45-3.26-5.36-2.78-.73-4.43-3.85-5.67-6.63,1.04.21,2.68,3.11,2.93-.17.36-4.72-.91-9.21-4.16-12.9-.89-1.01-1.96-1.89-3.46-1.08-1.87,1-1.28,2.46-.61,3.84,1.3,2.68,2.66,5.34,4,8-2.13-.63-2.62-2.88-4.4-4.52-.37,4.17,1.52,7.21,3.49,10.11,3.99,5.9,4.5,12.36,3.45,19.12-.14.91.16,2.15-1.1,2.51-1.17.34-1.78-.7-2.43-1.39-5.7-5.98-8.97-12.69-6.8-21.26.4-1.57,1.93-3.37.1-5.09,0-.99.19-2.02-.03-2.95-.3-1.21.62-2.98-.79-3.57-1.5-.62-2.82.7-3.88,1.67-3.6,3.3-4.84,7.28-3.09,12.16,3.62-1.63,4.72-5.65,7.9-7.43-1.05,3.47-3.53,5.99-5.86,8.57-.9,1-1.38,3.24-3.2,2.42-1.44-.65-1.09-2.65-1.21-4.1-.54-6.74,1.51-12.05,8.01-15.19,3.3-1.59,4.24-3.9,5.01-10.53-3.9,4.74-8.79,6.77-13.16,9.61-.92.6-1.98,1.66-3.11.68-1.01-.88-.63-2.22-.17-3.27.87-1.98,1.51-4.27,2.95-5.74,5.25-5.32,1.8-10.38-.05-15.68-1.58,5.73-3.9,10.97-7.54,15.57-.6.76-.95,1.99-2.13,1.87-1.5-.15-1.5-1.56-1.72-2.66-1.71-8.75-.79-16.91,6.27-24.76-4.43,2.5-7.79,4.44-11.2,6.3-.97.53-2.06,1.51-3.18.55-1.08-.93-.39-2.25-.05-3.28,2.33-7.14,5.98-12.9,14.19-14.42,2.46-.46,6.01.37,6.86-4.04-4.19.59-7.92,2.56-12.01,2.62-1.09.02-2.43.97-3.13-.44-.61-1.22.54-2.16,1.2-3.05,3.82-5.19,8.22-9.6,14.87-11.03,1.37-.3,2.65-1.05,3.84-2.12-2.12-1.01-3.86.29-5.72.86-1.35.41-2.65,2.24-4.04.98-1.54-1.4-.06-3.16.47-4.6,1.65-4.54,4.5-8.43,7.94-13.38-6.03,2.55-10.94,4.85-16.01,6.7-5.37,1.97-5.96,1.36-6.04-4.28-.05-3.48,1.37-6.87.49-10.68-4.29,2.08-5.95.05-5.89-4.16-2.38.71-1.37,2.61-1.98,3.79-.94,1.82-.77,4.85-3.48,4.85-2.62,0-3.07-2.62-3.54-4.76-.32-1.45-.66-2.9-1.03-4.57-3.33,1.34-3.96,3.56-2.67,6.59-2.98-1.04-3.64.56-3,2.94.81,2.98,2.13,5.76,4.96,7.74,2.5-4.5-1.22-7.35-2.08-10.79,4.04,2.15,4.38,5.91,4.16,9.83-.07,1.2.18,2.89-1.65,3.19-1.53.26-2.5-.82-3.25-1.92-1.36-2.01-2.59-4.11-3.95-6.31-2.31,1.9-1.87,3.83-1.16,6,1.55,4.75,1.11,9.46-.85,14.04-1.23,2.87-2.57,2.78-3.92.15-2.45-4.77-2.15-9.54.82-14.25-.91-.06-1.23-.17-1.48-.08-2.08.68-4.64,3.35-6.2.93-1.56-2.4,1.08-4.83,2.74-6.88,2.31-2.87,6.43-2.5,9.17-4.92-1.56-.98-2.61.4-3.85.41-1.53.02-3.27,1.88-4.53-.06-1.32-2.03.54-3.47,1.75-4.67,2.29-2.28,4.97-4.22,8.44-2.85,3.36,1.32,4.36-1.52,6.01-3.11,1.06-1.02.16-1.78-.93-2.06-.8-.2-1.65-.17-2.47-.29-2.03-.31-5.12.44-5.35-2.3-.25-2.91,2.8-3.81,5.17-4.56,2.49-.78,5.15-.57,7.14,1.09,2.95,2.48,4.99,1.38,7.49-1.4-2.43-.78-4.6-1.37-6.68-2.18-1.35-.52-3.02-1.06-2.78-3.01.19-1.56,1.07-2.78,2.59-3.41,2.84-1.19,5.68-2.06,8.47.11-2-.49-3.93-.14-5.8.56-1.36.51-3.17.97-3.13,2.66.03,1.47,1.91,1.54,3.03,2.12,3.47,1.79,6.78-.53,10.75-.03-1.31-1.67-2.18-2.78-3.06-3.9,1.31.62,2.6,1.29,3.94,1.85,2.09.87,1.6-.58,1.45-1.69.95.06,2.29.55,2.77.1,1.14-1.05-.13-2.06-.73-2.96-.94-1.4-2.27-2.41-3.85-2.96-1.07-.38-2.49-.91-3.23.15-.9,1.29.61,1.97,1.4,2.68,1.21,1.09,2.51,2.07,3.77,3.09-1.79.02-3.13-1.06-4.5-1.98-1.66-1.1-4.03-2.54-3.05-4.55,1.21-2.47,3.93-1.88,6.2-.84,1.02.47,2.04.95,4.13,1.93-2.39-5.09.59-6.08,3.71-6.59,4.72-.77,5.85-5.42,10.29-8.22-6.21-.14-11.1.83-16.02.32-2.76-.29-4.06-1.09-2.82-4.05,1.78-4.28,2.66-8.97,5.83-12.61.33-.38.9-.8.88-1.17-.1-1.82-2.48-3.52.44-5.42,4.36-2.83,8.61-5.66,13.98-6.2,4.74-.48,5.1-.9,6.48-5.95-2.09-.5-5.11,1.58-6.2-1.36-1.58-4.27,1.45-7.47,3.78-11-3.56-.86-3.77,1.53-4.07,3.55-.56,3.83-1.43,7.53-4.05,10.53-1.09,1.25-2.52,2.66-4.27,1.89-1.74-.77-1.69-2.77-1.48-4.42.27-2.11.78-4.18,1.24-6.57-3.77,1.5-5.17,4.47-5.96,7.71-1.44,5.93-5.32,9.83-10.19,13.03-.99.65-1.98,1.53-3.15.98-1.45-.68-1.41-2.28-1.23-3.54.84-5.98,3.91-10.53,9.24-13.45,2.03-1.11,4.17-2.02,6.33-3.06-.7-1.6-1.78-.74-2.59-.77-1.64-.06-3.96.56-4.67-.77-.95-1.78,1.05-3.31,2.27-4.54,3.24-3.28,7.16-4.79,11.82-3.67,1.44.35,2.85.9,4.76.43-1.9-2.16-3.65-4.1-5.34-6.09-1.79-2.11-1.02-3.34,1.48-3.66,2.85-.37,5.69-.12,8.25,1.29,2.38,1.31,3.08.63,3.42-1.97.45-3.44-.82-6.12-2.6-8.81-1.98-2.97-3.42-6.06.78-8.42,1.46-.82,1.08-1.78.81-2.93-.37-1.59-.14-3.13,1.45-3.87,1.72-.8,3.33-.14,4.47,1.24,1.26,1.54,2.3,3.25,3.87,4.47,1.05-4.66-1.33-7.89-2.46-11.48-.58-1.85-.82-3.62.89-5.02.95-.78,1.84-.24,2.77.18,2.09.96,2.42,2.75,1.95,4.62-1.12,4.38-2.01,8.66,1.58,13.29.85-4.91-1.62-10.37,2.61-13.07,3.62-2.31,8.45-.11,13.14-.6-1.24-5.37.53-10.87-1.39-16.16-1.17-3.21,1.15-3.4,3.2-3.23,7.62.6,16.43,2.46,18.93,12.42.19.75.79,1.39,1.2,2.09,2.32-.74,1.53-2.91,2.38-4.21.72-1.09,1.03-2.77,2.79-2.11,3,1.13,1.88-.92,1.93-2.24.07-1.99-.63-2.7-2.69-2.22-3,.7-5.96.24-8.76-1.01-1.53-.68-3.21-1.49-3.35-3.37-.15-1.98,1.63-2.76,3.07-3.53,3.19-1.7,6.71-2.25,10.19-1.71,3.14.49,4.7-.56,5.3-3.5.03-.16.12-.31.21-.45,1.23-2.1,1.38-5.65,4.02-5.88,2.82-.24,3.9,3.12,5.46,5.2.38.51.8,1,1.34,1.68,2.18-2.84,2.75-5.23.1-7.97-1.92-1.98-2.38-4.56-.14-6.68,2.13-2.01,4.33-.93,6.26.6,1.41,1.11,3.07,2.96,4.58,1.23,1.84-2.11,1.17-4.79-.85-6.73-1.42-1.36-3.41-2.11-4.26-4.09-.84-1.96-.56-3.72,1.3-4.77,1.67-.94,3.24-.26,4.37,1.25,1.95,2.58,1.87,5.59,2.13,8.74,1.33-3.83,4.39-6.93,3.74-11.53-.34-2.41.45-4.74,3.11-5.62,1.59-.53,2.93.06,3.7,1.69,1.27,2.7-.15,4.5-2.1,6-5.43,4.15-6.05,10.24-6.18,16.78,4.01-5.19,8.06-10.33,12-15.57,5.64-7.48,6.04-7.59,11.21,0,1.83,2.69,2.99,3.59,5.28.62,1.2-1.56,3.18-2.52,4.34-4.1,2.77-3.79,4.52-3.34,6.29.81,3.12,7.34,3.72,15.42,7,22.7.85,1.9.17,3.51-2.2,5.31,1.17-3.28.52-5.78-.47-8.74-2.64,3.31-5.05,6.69-9.98,7.53.89-2.61,3.19-2.74,4.52-3.95,1.94-1.77,4.01-4.29,2.53-6.42-1.69-2.44-3.58.63-5.32,1.49-.56.28-.97.95-1.77.52-.14-1.45,1.15-1.84,1.99-2.48,5.19-3.97,5.82-10.66,1.61-15.81-1.53-1.87-2.33-.34-3.14.45-2.38,2.31-4.88,4.57-6.87,7.19-2.18,2.87,1.13,6.34-.55,9.75-.67-1.93-1.25-3.61-2.09-6.05-4.19,6.5-.69,11.42,2.21,16.86-5.53-3.85-7.42-11.2-4.67-16.36,2.71-5.09,2.13-7.2-3.68-11.73-.58,6.3.24,12.63-3.97,18.18.73-6.3,3.74-11.92,2.67-18.16-9.87,4.62-3.58,13.17-5.23,20.81-1.05-4.18-.7-7.65-2.26-10.65-4.57,2.96-6.12,8.46-3.35,13.03,1.31,2.17,3.43.65,4.88,0,3.48-1.55,4.51-.94,4.62,3.09.2,7.18-1.46,13.47-6.46,18.71.9,1.33,2.8-.72,3.41,1.51-3.23,2.67-6.11,2.56-8.94-1.42,6.19-2.84,8.93-8.16,9.93-14.52.75-4.79-.42-5.71-5-4.34-1.59.47-3.2.94-4.84,1.16-3.32.45-4.91,2.39-5.44,5.55-.35,2.08-.43,4.52,1.21,5.55,1.98,1.24,2.85-1.56,4.23-2.52,2.18-1.51,4.23-3.21,6.54-4.99-6,8.14-15.03,14.14-17.31,25.94-1.27-3.03-.57-4.3,0-5.42,3.35-6.67,6.93-13.25,3.86-21.01-5.94,3.43-5.46,9.51-4.22,16.55-3.26-2.26-2.54-5.06-3.47-7.11-.48-1.05-.47-2.38-2.06-2.34-1.5.04-1.84,1.19-2.08,2.38-.99,4.81-1.53,9.55,1.82,13.8.8,1.02,1.9,2.04.86,3.51-.17.24-.57.52-.81.48-1.8-.31-1.31-2.03-1.84-3.13-2.08-4.28-3.64-8.71-2.06-13.47,2.11-6.34-.47-11.23-4.88-16.48-.71,5.83,1.53,10.48,2.75,15.28-3.92-2.81-2.39-8.1-5.25-11.64-2.21,3.11-1.88,5.89.15,8.79,1.22,1.75,3.07,3.13,3.42,5.43-1.04-1.06-1.96-2.3-3.15-3.14-1.19-.84-1.42-3.74-3.61-2.33-1.7,1.1-1.19,3.22-.95,5.09.82,6.42,2.69,12.57,4.87,18.71-3.92-3.37-4.6-8.88-8.72-12.52-2.26,2.95-1.8,6.42-2.72,9.44-3.55-2.04-4.96-5.33-6.26-9.11-1.83-5.36-9.42-9.57-14.92-9.25-2.55.15-2.92,1.56-2.65,3.72.46,3.79.99,7.6,1.06,11.42.06,3.04,1.95,4.5,4.05,5.81,2.27,1.41,3.33,3.07,1.92,6.29-3.04-7.9-9.37-8.07-16.47-7.72,2.46,5.48,7.38,7.78,12.56,11.7-4.55-.93-7.09-3.01-9.6-4.73-1.19.72-.62,1.66-.84,2.37-1.65,5.32.35,6.85,5.53,5.75,1.83-.39,3.96-.64,5.28,1.66,1.09,1.9,3.14,2.06,4.88,1.29,2.86-1.28,4.7.33,7.5,1.98-3.18,0-5.56-.04-7.93.01-1.84.04-3.25.56-3.11,2.9.13,2.2,1.22,3.26,3.33,3.64,3.29.59,6.19-1.64,9.83-1.55-1.15,2.6-3.89,1.59-5.18,3.42.92,1.45,4.3,1.02,3.04,4.76-.8,2.38,3.34,2.77,5.41,2.97,2.7.26.88-2.06,1.18-3.22,2.14-8.41,1.98-17.9,10.89-23.16.97-.57,1.63-1.65,2.45-2.47,6.12-6.06,13.22-6.4,19.52-.68,2.24,2.04,4.45,3.48,7.51,4.33,4.8,1.32,7.87,4.87,8.31,10.11.58,6.95-.53,13.25-6.7,17.74-1.86,1.35-3.43,3.15-4.99,4.88-6.85,7.57-17.27,8.08-25.12,1.26-4.61-4-9.7-7.05-16.03-7.33-2.67-.12-5.39-.31-6.86,2.74-.32.66-.86,1.64-1.86.64-.69-.7-.62-1.5-.06-2.24.4-.52.94-.95,1.33-1.48,1.04-1.39,3.79-2.16,1.47-4.73-1.96-2.17-4.04-2.1-6.25-.75-4.79,2.94-9.89,4.75-15.59,4.48-1.62-.08-3.25-.23-4.98-.04,3.95,1.57,8.14,2.5,11.87,4.57,1.5.83,1.96-.21,2.64-1.26,2.76-4.22,4.09-4.22,6.93,0,.5.74,1.37,1.49.93,2.56-2.8.98-2.66-5.49-5.55-2.33-1.44,1.57-1.15,4.73-1.78,7.82-3.79-6.28-9.81-7.58-16.12-7.96-2.51-.15-6.14-1.41-7.15,1.68-1.06,3.27-.07,6.94,2.67,9.61.93.91,2,1.68,3.01,2.52l.1-.08c-2.37.22-3.99-1.19-5.6-2.61-.75-.67-1.47-1.46-2.47-.42-2.61,2.72-2.17,6.75-4.31,9.79-1.38,1.96,2.19,2.49,2.28,4.34l.07-.09c-6.88-4.42-13.04-2.6-19.24,1.78-2.97,2.1-3.43,3.23.02,5,1.23.63,2.96.81,3.38,2.61-5.9-.92-11.91,4.63-12.17,11.01-.07,1.66.89,2.14,1.96,2.31,4.1.67,8.1,1.88,12-1.56.9-.8,3.71-.32,5.16-2.19,1.35-1.75,2.21-3.99,4.6-5.36.25,3.15-2.43,4.54-3.17,7.44,3.67-1.81,7.79-1.81,9-6.77.91-3.73,5.03-.39,7.07-3.19.52,3.69-7.76,2.88-2.45,7.57-3.26.65-6.5-.33-9.13,2.55,2.82,1.5,6.36-.67,8.88,1.92-1.18,1.82-3.25.24-4.51,1.54-.43,1.68,1.78,2.59,1.65,4.32l-.2.17c-1.22-1.1-2.28-2.53-3.7-3.25-3.05-1.53-6.47-6.48-9.23.44-.2.5-1.15.66-1.62,1.11-2.13,2.04-5.92,3.33-4.43,7.25,1.08,2.83,7.6,4.75,10.84,3.7,1.54-.5,2.92-1.68,4.92-1.08.48,1.7-1.08,2.47-1.77,3.62-.72,1.2-2.23,1.95-2.18,3.94,4.51-.96,8.16-3.56,12.62-5.82-.55,3.83-1.02,7.06-1.56,10.84,3.83-2.34,4.95-6.08,6.88-9.45,2.37,2.71.63,5.98,2.51,8.69,2.97-2.56,4.22-5.8,5.04-9.28.21-.89-.42-2.11.92-2.5.37-.11.99.16,1.3.46,1.07,1.01.55,2.02-.03,3.13-1.59,3.08-3.07,6.21-4.86,9.86,3.11.15,6.22-.66,8.98,1.11.9-2.71-2.39-4.27-1.15-6.81,2.61,2.23,2.22,6.44,5.62,7.94.01,1.26.74,2.06,1.59,2.94,8.57,8.88,9.48,14.65,4.17,25.89-3.61,7.63-12.76,11.3-20.37,8.01-2.46-1.06-4.9-1.97-7.54-2.5-4.16-.84-6.7-3.23-7.25-7.72-.95-7.76.54-14.41,5.96-20.57,2.8-3.19,8.7-6.48,4.21-12.87-3.83,4.65-8.4,8.19-13,11.67-3.76,2.85-6.21,1.87-7.5-2.73-1.49-5.34-1.49-10.33,3.22-14.52-3.37.65-8.54.92-6.91,4.58,2.15,4.8-.94,5.13-3.2,6.25-2.16,1.07-2.92,3.1-4.23,4.7-2.12,2.6-1.13,7.79-6.55,7.67-.28,0-.65.72-.86,1.17-2.37,5.19-4.07,10.52-3.83,16.36.1,2.35.93,2.72,3.1,2.2,8.68-2.07,11.07-4.59,12.17-13.26.01-.11.39-.18.71-.32.19,2.46.36,4.81.6,7.92,2.79-2.54,3.81-4.79,3.55-7.6-.1-1.09-.89-2.55,1.14-2.5,3.98.1,6.27-2.71,9.28-5.98-.15,5.45-2.81,7.01-6.67,7.36-3.43.31-3,2.96-3.15,5.22-.03.38.33.79.59,1.36,1.27-.8,2.34-1.47,4.38-2.75-3.24,8.46-11.01,13.02-12.21,22.1,3.03-2.32,7.31-1.34,8.12-5.29.62-3.01,3.38-3.99,4.77-6.21.5-.8,1.42-.98,2.09-.2.73.84.07,1.76-.57,2.09-5.97,3.01-4.15,8.21-4.01,13.79,1.87-2.4,3.28-4.18,4.66-6,1.48-1.95,3.38-2.3,3.99.21,1.25,5.08,5.66,8.13,7.47,12.77.34.88.53,2.13,1.9,1.7.87-.27,1.09-1.23,1.1-2.08.03-3.8.54-7.73-2.59-10.76-.72-.7-1.77-1.43-.52-2.33,1.15-.83,1.6.54,2.3,1.14,1.96,1.68,2.22,4.14,2.51,6.33.5,3.8,1.65,5.81,5.93,3.17-1.67,4.95-6.62,4.97-9.27,7.9-.8.88-1.51,2.63-3.1,1.99-2.07-.83.7-2.53-.84-4.39-1.24,3.21-2.51,5.85-2.62,9.97,3.07-3.38,6.67-3.7,10.14-5.45.06,5.15,2.15,4.86,5.18,2.2.85-.75,1.96-1.19,2.95-1.78-.23.6-.32,1.31-.71,1.78-4.32,5.09-3.86,11.15,1.16,15.48,1.41,1.22,2.62,1.26,3.77-.22,2.13-2.74,4.41-5.52,5.15-8.92.64-2.96-2.97-3.6-4.11-5.69-.22-.41-.23-.93-.34-1.39,2.04.07,2.97,1.99,4.59,2.79,3.57,1.77,4.84-1.05,6.19-3.2,1.54-2.46-.25-3.54-2.32-4.35-2.73-1.07-5.43-2.23-8.14-3.35,2.47-.53,4.55-.06,6.63.37,1.2.25,2.69,1.68,3.53.08.77-1.47-.68-2.73-1.61-3.9-1.91-2.39-5.4-2.29-7.98-4.86,4.08-.53,6.63.97,8.88,3.3.82.85,1.34,2.97,2.94,1.64,2.58-2.14,5.3-1.01,8.38-.6-1.02-4.45-9.51-5.71-4.47-11.82,1.5,1.61,1.21,4.39,3.46,5.7,1.79-1.76,1.62-4.63,3.98-5.7-1.18,3.97-4.15,7.99.4,11.8,1.06.88,2.11,1.8,3.52,1.39,1.62-.48,1.54-2.03,1.54-3.34,0-3.23-1.23-6.16-2.36-9.11-.75-1.96-2-1.16-3.21-.62,2.49-4.59.15-9.35.58-14.11.03,8.68,5.57,15.64,6.75,24.38,4.24-8.2,5-15.3-3.32-21.08,4.44,1.97,7.61,4.84,8.23,9.56.59,4.48.68,9.02.99,13.54,1.22-3.15,5.84-6.13,4.07-8.39-3.4-4.34-4.11-8.45-3.56-13.57.26-2.46-1.86-4.53-3.67-6.3-1.09-1.07-2.26-2.06-4.28-3.88,4.52.93,6.42,3.33,8.71,5.19,1.53,1.24,3.43,1.49,5.16.63,1.6-.8,1.09-2.63,1.27-4.06.28-2.22-1.27-2.79-2.98-3.26-3.51-.96-6.91-2.22-10.72-1.9-4.56.39-8.24-1.08-9.34-6.17-.4-1.86-.78-2.58-3.25-1.91-2.83.76-5.83.62-6.72-3.99-.68-3.54-1.46-7.18-2.06-11.34-2.81,2.93-2.65,6.94-5.87,8.66ZM533.09,275.31c-2.84.62-3.07,4.54-6.15,4.87.69-3.33,4.96-5.86,2.05-10.53-1.3,3.25-2.45,6.07-3.56,8.9-.71,1.8.21,1.94,1.62,1.51,0,2.16-3.83,3.17-1.82,5.99,3.56-2.97,8.04-5.2,7.76-10.83q9.53-9.04,8.57-11.13c-1.17,1.55-2.27,3.2-3.58,4.69-1.81,2.05-4.82,3.18-4.9,6.53ZM412.07,152.01c1.26,3.63,2.88.33,3.21-.21,1.57-2.51,5.61-4.45,2.55-8.38,0-.87,2.31-2.92-.89-2.18-4.05.94-7.91,7.41-7.14,11.39.12.64.16,1.46,1.08.92.52-.31.8-1.01,1.19-1.54ZM368,119.12c.57,3.04,3.59,3.07,5.5,4.47.69.51,1.65.77,2.11-.19.49-1.01.12-2.03-1.02-2.38-2.2-.67-4.45-1.21-6.68-1.81,1.09-1.85,2.57-.77,3.96-.55,1.25.2,2.87.78,3.03-1.28.11-1.4.49-3.4-1.24-3.9-1.99-.57-4.44-.8-6.17.53-2.13,1.64-.74,3.5.51,5.11ZM326.97,103.14c4.07.65,4.52-3.76,7.15-5.12-2.21,6.65-1.52,9.86,3.46,13.28-1.19-4.4,1.22-9.6-3.56-13.2,1.1-2.9-.93-3.9-3-4.74-1.28-.52-2.84-.59-3.68.62-1.17,1.7-.06,3.16,1.14,4.39,2.46,2.51-1.33,3.14-1.43,4.86-1.12-.23-2.23-.52-3.36-.68-1.47-.22-3.59-1.64-4.16.48-.45,1.66-.31,4.32,1.37,5.4,1.58,1.01,2.84-.95,4.02-2.02.98-.9,1.84-1.88,2.05-3.27ZM37.32,297.09c.2,1.37-2.18,2.18-.76,4.01,4.29-2.12,8.56-4.22,11.86-7.73.61-.65,3.71-2.35.05-3.52.72-1.48,1.58-3.05-1.39-2.2-4.92,1.42-8.42,4.31-9.76,9.43ZM354.66,135.51c-.09-6.44-.08-12.9-3.18-19.56-3.73,7.9-.56,13.76,3.24,19.49,1.37-.61,1.66,4.04,3.44.82,3.3-5.96,1.47-15.14-3.72-19.46-.83,1.16.26,2.16.27,3.22.06,5.17,2.92,10.35-.05,15.49ZM342.81,88.03c2.99-.3,5.88-.31,8.63,1.37,1.36.83,3.63,2.57,4.46-.05.75-2.36-.7-6.25-2.97-5.87-5.85.98-8.76-2.67-12.35-5.95,1.02,3.61,2.64,6.89,2.35,10.6-.96.57-2.01,1.03-2.87,1.73-1.11.9-.71,2.01-.08,3.05,1,1.63,2.23.77,3.39.3,1.3-.52,1.73-1.35.88-2.65-.53-.81-.96-1.69-1.44-2.53ZM549.96,228.07c.98.88.75,3,3.08,2.8,0-2.31.09-4.59-.02-6.86-.29-5.78-2.15-7.3-8.09-6.79,1.67-1.15,3.33-2.14,5.53-1.34,1.03.37,2.42.86,2.94-.71.42-1.25-.41-2.29-1.32-3.01-2.5-1.99-5.2-3.36-8.55-3.57-4.52-.28-7.68-2.9-9.86-6.75,2.33,1.18,4.38,2.79,6.59,4.12,1.41.85,3.21,1.63,4.03-.81,1.13-3.36-2.5-10.95-5.72-12.55-2.63-1.31-5.82-1.52-8.68-4.12,9.62,2.19,9.49,2.32,15.4,8.18,2.39,2.37,5.45,4.11,9.62,4.44-1.45-2.53-2.61-4.53-3.76-6.53,2.43.8,3.04,3.74,5.37,4.91.78-6.34-1.44-10.98-6.05-12.86-1.92-.78-3.92-1.49-4.43,1.65-1.7-1.06-3.58-.54-5.35-.44-3.67.21-7.18-.6-9.63-3.18-3.18-3.35-5.95-3.47-9.14-.4.47-2.96,4.32-5.23,1.78-9.18-2.13,2.33-2.99,5.01-4.03,7.55-1.73,4.27,1.82.61,2.35,1.52-4.05,3.77-7.76,8.27-13.8,8.7-9.92.71-17.93-6.92-18.04-16.91-.01-1-.1-1.99-.08-2.99.1-4.58-1.86-3.86-4.39-1.37-.29-1.61.73-2.89-.07-4.1-2.08,1.3-.09,5.24-3.63,5.64.41-3.28.24-6.3-3.62-7.71-.25,2.15-.17,5.37-2.73,5.18-4.94-.37-6.5,2.08-7.08,6.17-.02.14-.18.36-.3.38-5.12.96-5.5,6.34-8.6,9.18-5.05,4.63-5.49,9.04-1.53,15.01,2.95-2.38,3.14-6.5,5.75-9.11v4.5c1.82-.58,3.49-1.48,5.2-1.58,4.14-.23,4.67-3.28,4.93-6.19.25-2.81-1.97-5.26-3.94-6.17-1.57-.72-2.5,2.38-3.39,4.13-.93,1.82-.41,4.45-2.9,5.43.28-1.28.68-2.54.81-3.83.47-4.9,5.24-7.05,7-11.12,2.5-5.77,4.46-6.56,10.33-4.22,1.2,1.98,2.6,3.87,3.55,5.96,1.3,2.88.35,5.68-1.65,7.82-1.18,1.26-2.52,3.42-4.99,1.82-1-.65-2.25-1.21-2.96.25-.63,1.3-1.46,2.88-.5,4.24.78,1.1,2.19.55,3.17-.01,1-.57,1.82-.7,2.7.07,2.63,2.29,3.64.41,4.76-1.71.62-1.17.8-2.95,2.86-2.94.48,2.66-2.96,4.96-.89,7.77,2.62-.81,2.8-3.97,5.45-4.62.49,3.58-3.8,6.08-1.91,9.85,1.49,2.97.68,4.36-2.9,3.6-1.4-.3-3.34-.4-4.17.87-1.01,1.54.96,2.54,1.61,3.77.92,1.76,1.96,3.46,3.01,5.15,1.88,3.05,1.75,5.31-2.3,6.15-.93.19-2.29.25-1.8,1.69.52,1.51,1.92,2.21,3.45,2.56,2.44.57,4.81.02,6.56-1.51,1.32-1.15-.44-2.36-1.11-3.33-3.22-4.64-3.95-8.98.67-13.29,1.75-1.64,1.99-4.12,2.32-6.46.15-1.08-.35-2.79,1.65-2.89,1.15,1.6-.5,4.59,2.29,5.04,2.4.39,3.85-1.16,4.83-3.43.82-1.89,2.46-1.86,4.16-.71.97.66,1.23,2.5,2.93,1.96,1.17-1.79-.58-5.05,2.4-5.5,2.55-.39,2.8,2.31,3.57,4.08.33.74.78,2.02,1.57,1.53,3.65-2.28,3.36,1.46,4.59,2.84,1.03,1.16.76,4.08,2.73,3.57,2.38-.62,1.61-3.26,1.47-5.21-.14-1.92-1.38-3.34-2.28-4.92-.92-1.61-2.6-2.88-2.69-5.74,4.43,3.77,7.18,7.96,6.4,12.91-1.06,6.7-.19,12.87,2.25,19-2.14-1.54-3.18-3.67-3.71-6.24-1.38-6.72-1.46-6.73-6.88-2.72-1.25.92-3.63.73-2.79,3.73.75,2.7,1.68,4.31,4.65,4.73,4.17.59,7.91,2.35,11.27,4.96,1.02.8,1.75,2.62,4.2,1.37-2.37-2.05-4.55-3.92-6.72-5.79,2.56.07,2.21-1.68,2.21-3.36-.01-3.55.34-7.05,1.59-10.39,1.78.15,1.87,1.9,2.95,2.56-5.07-.08-3.34,4.13-3.2,6.22.19,2.74-.5,6.7,3.86,7.62.15.03.38-.01.47-.11,2.45-2.65,2.46.33,3.47,1.4,1.67,1.77,3.42,4.69,5.85.7ZM530.81,238.05c1.3-.81,3.75,1.83,4.08-.89.27-2.29,2.02-4.85-.18-7.12-2.99-3.08-6.73-4.86-10.82-5.88-2.11-.52-2.77.04-2.35,2.62.94,5.79,4.31,9.2,9.41,11.38-.65-.05-1.31-.04-1.94-.18-1.35-.3-2.97-1.86-3.96-.43-.64.92-.07,2.85.3,4.23.23.88,1.09,1.6,1.66,2.39-3.65,2.1-1.75,4.54-.39,6.89,1.33,2.29,4.01,3.65,4.33,6.79-2.2-1.29-3.74-3.17-5.34-5-.69-.79-1.86-1.52-2.27-.08-.96,3.3-.89,6.45,1.93,9.17,2.55,2.46,4.68,2.43,7.3.15,3.72-3.25,4.19-7.63.89-11.86-1.11-1.42-2.36-2.74-3.54-4.1,2.23.2,4.47.4,6.71.61.14-4.55-2.95-6.54-5.81-8.69ZM120.9,306.08c3.33,1.76,4.71.94,4.28-2.96-.26-2.39-.05-4.83-.05-7.48,2.3,2.03,1.54,2.03,1.57,4.47.03,3.08-1.29,6.8,1.76,9.29,1.74,1.42,13.19,1.21,14.05-.14.49-.76.6-1.92.51-2.87-.84-8.61-1.47-12.75-10.8-11.15-.39.07-.84-.23-2.14-.63,2.73-.75,4.65-1.28,6.6-1.82-2.91-6.45-7.93-6.76-14.77-4.63,3.08-2.85,5.33-3.02,7.69-2.81,1.16.1,2.42.37,2.25-1.57-.33-3.72-.58-7.44-.89-11.62q-4.05,7.68-11.46,6.69c-.11,2.06,1.41,4.38-.34,6.14-2.09,2.09-1.05,2.92.81,4.39,3.09,2.44,3.47,6.43,1.05,8.85-3.21,3.21-1.99,5.32,0,7.97-3.36-.48-4.34-4.65-7.83-5.4,2.23,12.05,7.2,17.29,18.82,20.14.79.19,1.66.65,2.32-.11.66-.75.07-1.58-.22-2.3-1.42-3.5-3.49-6.39-7.32-7.63-2.57-.83-4.87-2.05-5.88-4.81ZM89.63,338.63c-1.67,2.56.38,6.67-2.54,8.28-3.3,1.82-3.02,4.41-2.98,7.17.44,32.47.23,64.94.34,97.41.09,29.96.21,59.95-.22,89.92-.19,13.49-.22,26.98.4,40.46.13,2.77.79,4.94,3.87,5.43,5.1.82,10.12,1.24,15.26-.29,3.3-.98,4.49-2.45,4.36-5.93-.36-9.65-.46-19.31-.48-28.97-.16-68.45-.28-136.89-.42-205.34,0-2.33-.05-4.56,1.58-6.61,1.58-1.98.86-4.2-.99-5.59-2.05-1.55-3.35-3.62-4.82-5.57-1.69-2.26-2.67-4.46.18-6.92,2.57-2.22-.23-3.01-1.65-4.94-.99,4.89-2.01,9-4.24,12.46-2.43,3.78-2.34,6.39,1.44,9.16,2.84,2.08,4.01,5.71,1.2,8.16-2.35,2.05-2.82,3.91-2.94,6.65-.13,2.98-1.75,5.41-4.78,6.39-1.76.57-3.5.02-4.21-1.73-1.22-3.02-.48-5.91,1.46-8.44.48-.62,1.29-1.03,2.02-1.42.8-.42,1.6-.95,1.02-1.86-2.06-3.23-.64-6.79-1.13-10.15,2.52-3.88,5.44-7.56,6.76-12.09.57-1.94,2.23-5.11.41-5.76-2.65-.94-6.42-3.68-9.18.99.68.26,1.23.54,1.82.68,2.85.7,3.52,2.65,3.16,5.3-.44,3.23-2.71,2.13-4.57,1.99-1.73-.13-3.34.43-4.73,1.26-1.45.86-3.13,2.08.03,3.2.78.28,1.86.73,1.91,1.96-1.24.69-4.19.11-2.95,2.68.92,1.9,2.79,3.98,5.6,2.04ZM363.87,147.11c-3.71-7.59,1.4-12.88,5.21-18.51-4.58,3.08-8.93,6.13-9.58,12.07-.1.92-.73,2.07-1.82,2.17-1.2.11-1.38-1.18-1.86-2-3.35-5.7-6.71-11.39-10.18-17.27q-2.29,4.78-7.45,2.96c-1.65-.58-2.9-.16-3.74,1.43-.76,1.44-1.59,2.85-2.39,4.27-3.01.48-6.02.95-9.33,1.48,3.3,4.59,5.87,4.65,8.13.06.29-.58.74-1.08,1.12-1.62,3.38-.94,7.18-2.46,9.39,1.48,1.91,3.42-.59,6.28-2.75,8.87-.1.13-.25.22-.38.32-.81.58-1.82,1.14-.91,2.31.96,1.23,1.81.84,2.88-.12,2.33-2.09,5.26-3.32,7.16-.01,1.85,3.23.18,6.05-3.05,7.78-.72.38-2.46-.23-1.8,1.45.49,1.24.47,3.1,2.56,3.26.97.07,2.01.25,2.87.68,2.57,1.31,2.92,3.58,1.8,5.91-1.05,2.19-2.82,2.83-4.75.83-.93-.97-1.54-.97-2.31.15-1.06,1.54-2.46,2.53-4.09.89-1.47-1.47-1.48-3.68-.39-5.09,2.93-3.81-.25-6.93-.26-10.37-2.07,2.61-3.35,6.5-7.4,3.81-3.39-2.24-3.26-5.81-.75-8.65,2.01-2.28.93-3.25-.7-4.74-2.2-1.99-4.69-3.19-7.7-4.39.38,2.52,1.98,3.9,1.74,5.85-1.64-.54-1.48-3.86-3.97-2.83-1.91.78-3,2.6-3.39,4.62-.3,1.6-.48,3.27-.36,4.88.11,1.44.42,3.15,2.14,3.59,1.84.47,2.53-1.17,3.34-2.37,1.64-2.42,2.05-5.17,2.14-8.01,2.44,3.94.31,7.34-1.46,10.63-.8,1.49-1.86,3.55-4.08,3.05-1.96-.44-2.75-2.35-3.25-4.13-1.42-5.05-.63-9.6,3.46-13.21,1.57-1.39,1.04-2.68-.09-3.84-1.13-1.16-2.35-2.85-4.11-2.28-1.68.55-.65,2.34-.53,3.54.24,2.43-.3,4.67-1.47,6.72-.78,1.37-1.11,3.51-3.19,3.43-2.35-.09-3.67-2.09-3.85-4.02-.51-5.72-5.64-6.22-9.15-8.3-2.4-1.42-4.52-.86-3.43,3.05,2.45,8.82,4.2,17.85,6.98,26.56,25.91,81.21,75.82,143.5,148.52,187.73,7.16,4.35,14.17,9.47,23.18,3.89-31.89-19.4-60.22-43.22-82.3-74.03-22.25-31.04-35.18-65.78-41.57-103.22,9.48,39.57,23.73,76.91,49.19,109.31,20.37,25.93,77.57,72.84,93.43,75.43-26.26-23.75-48.17-50.16-63.74-81.44-15.31-30.78-28.91-81.57-26.55-99.48.3,1.55.57,2.5.66,3.46,3.33,34.74,12.82,67.6,29.49,98.35,16.62,30.66,38.31,57.2,64.46,80.19,1.48,1.3,2.81,2.37,4.99.99-22.9-42.25-42.47-85.77-50.11-133.74,10.34,47.27,29.42,91.05,52.96,133.06-3.44-24-13.34-46.58-15.48-71.54,2.82,3.01,1.33,6.77,4.14,10.06v-36.77c.74,8.16.64,16.31.76,24.46.13,8.62-1.23,17.31,1.6,25.8,3.74,11.23,6.07,22.84,8.71,34.36,1.08,4.74,1.62,9.68,4.07,15.12,6.69-22.61,5.3-44.62,3.74-66.66,4.57,21.68,4.75,43.32-1.24,65.24,5.4-1.41,8.01-3.97,9.38-9.02,6.06-22.35,6.45-45.11,5.56-67.97-.22-5.74-1.7-11.48-5.33-16.69-2.13,2.01-4.17,3.68-7.19,2.72-1.13-.36-2.61-2.37-3.54.27-.8,2.25.79,2.86,2.43,3.5,2.64,1.03,3.06,3.48.72,4.27-5.75,1.95-4.79,5.59-3.49,9.7.62,1.96,1.05,4.03-.94,5.42-.99.69-2.38.28-3.24-.53-1.79-1.71-1.04-3.57-.14-5.48,1.3-2.73,2.3-5.56,1.68-9.21-2.77,2.99-5.28,6.2-9.12,3.22-2.61-2.02-.9-4.64.44-6.71,2.55-3.93,5.73-2.69,9.31-.11.66-7.02.87-13.32-2.33-19.27l.11.12c-.13-2.87-.89-5.54-2.43-8.05-3.56,5.91-8.94,8.39-13.44,6.34-2.98-1.36-2.96-3.82-2.22-6.33.86-2.91,3.29-4.42,5.8-5.87,2.8-1.63,5.23.5,7.96.9-1.68-6.67-3.57-8.35-6.87-6.1v-5.74c-1.67,5-2.71,6.04-5.44,5.89-5.15-.28-9.43-5.78-8.18-10.8.65-2.61,1.15-4.99-1.16-7.23-1.16,2.19-1.35,4.63-2.99,6.4-2.06,2.21-4.49,4.13-7.38,2.34-2.51-1.55-1.64-4.4-.94-6.84.57-1.98,1.53-4,3.29-4.86,5.03-2.48,5.38-6.25,3.6-11.02-2.23,1.01-4.42,2.1-6.69,2.99-1.41.55-2.84.77-4.04-.75-4.21-5.3-7.46-10.92-6.8-18.06.12-1.28.04-2.32-1.31-3.4-7.63-6.08-6.67-12.25,2.5-16.31,2.05-.91,2.98-1.93,2.04-4.34-1.17.69-2.29,1.36-3.43,2-2.13,1.2-4.46,2.02-6.48.17-2.07-1.9-1.05-4.31-.3-6.53.66-1.96,2.98-3.17,2.68-5.73-1.6.4-1.8,1.88-2.5,2.86-5.39,7.55-6.17,7.54-10.6-.24-.13-.23-.53-.3-1.67-.92,2.28,2.97-3.44,3.57-.84,5.97,3.75,3.47,4.67,7.86,5.4,12.52.58,3.69-.93,3.89-3.95,2.98-5.88-1.77-8.48-6.38-10.69-12.67-.89,3.25-1.44,5.44-2.1,7.59-.93,3.02-2.22,3.13-4.43.82-5.49-5.78-5.56-11.25.63-19.1,2.07-2.62,2.42-4.71.27-7.68-1.93,3.38-4.71,5.45-7.74,7.23-.95.56-1.87,1.81-3.08,1-1.11-.74-.56-2.14-.56-3.25,0-4.46.98-8.56,4.28-11.87.68-.68,2.56-1.63,1.02-2.67-2.84-1.91-2.35-5.54-4.48-8.23-2.02,6.05-2.92,11.96-5.93,17.84-1.02-1.79-1.64-2.88-2.5-4.39-1.34,3.2-3.48,5.33-5.43,7.57-1,1.14-2.31,2.89-4.12,2.26-1.61-.56-1.26-2.57-1.44-3.96-.87-6.66-1.76-13.32-1.38-20.99-2.67,2.33-5.05,3.43-4.79,6.47-2.86-.96-5.72-1.92-9.11-3.06.93,2.78,2.47,3.95,4.09,5.11,2.93,2.09,4.53,1.38,4.94-2.16,2.72,1.03,2.39,2.95,1.03,4.69-1.27,1.64-2.87,1.74-4.79.42-1.48-1.02-2.8-2.66-5.22-2.87.54,3.12,2.74,3.96,4.67,5.17,2.92,1.83,8.16,3.16,2.18,7.62-.2.15-.39.72-.3.82,3.94,4.18-1.7,7.89-.6,11.95.24.87.34,2.12-.87,2.54-1.04.36-1.96-.31-2.68-.98-.88-.82-1.61-1.81-2.55-2.9-1.12,2.27-1.13,4.65-3.04,6.02-1.98,1.43-4.52,4.09-6.4,2.4-2.03-1.83-.3-4.9,1.35-7.12,1.43-1.91,3.96-2.89,5.04-5.88-2.51.69-4.53,1.25-6.63,1.83-.9-2.72-.54-5,1.29-7.06.5-.56,1.92-1.73-.08-1.92-3.44-.32-1.55-2.54-1.72-4.04,4.04-1.18,6.28-4.11,8.52-9.01-4.03,3.19-6.28,6.1-8.44,9.1ZM517.77,524.55c.35,0,.7,0,1.05,0,0,4.82-.02,9.64,0,14.47.04,9.51.7,9.88,9.38,6.16,3.54-1.52,5.01-3.51,3.16-7.33-1.23-2.54-2.1-5.25-3.08-7.91-4.41-11.99-7.57-24.19-5.38-37.12.86-5.08,1.47-10.3,3.09-15.15,7.68-23.11,4.29-45.63-2.68-68.16-2.88-9.29-7.29-17.33-15.73-24.23,7.79,21.43,12.95,42.33,7.42,64.3-.26-11.04.85-22.15-1.03-33.15-1.85-10.81-4.39-21.44-9.47-31.37,2.93,25.38,5.08,50.57-2.62,75.42-.4-.8-.34-1.58-.2-2.35,4.34-23.5,4.6-47.01.17-70.52-.21-1.12.56-3.17-1.53-2.97-1.45.14-.93,1.87-.99,2.97-.32,5.35-1.48,10.56-2.81,15.71-2.79,10.81-5.95,21.51-9.27,32.19-5.18,16.69-7.68,34.01-7.77,51.6-.32-1.17-.35-2.32-.45-3.47-2.2-26.46,6.75-50.94,13.65-75.74,1.83-6.58,3.72-13.12,4.98-19.84.23-1.25.54-2.72-1-3.54-1.06-.56-2.15-.29-2.54.74-1.49,3.94-5.53,5.92-7.22,9.69-2.95,6.58-7.22,12.34-11.29,18.24-14.33,20.78-27.38,42.24-34.12,66.88-2.18,7.98-3.92,16.09-5.85,24.14.59-13.8,3.78-27.01,8.57-39.83,7.89-21.13,20.43-39.6,33.35-57.83,1.96-2.77,4.2-5.37,5.78-9.49-4.66,2.11-7.46,6.45-11.81,5.69-3.58-.63-5.2,1.07-7.1,3.19-11.55,12.91-23.15,25.78-34.66,38.73-21.27,23.9-34.94,51.36-38.81,83.36-1.02,8.42.08,10.57,8.32,13.1,10.98,3.37,22.34,4.79,33.4.8,14.21-5.13,27.45-4.32,40.85,2.91,12.46,6.73,26.01,7.35,39.82,4.42,3.28-.69,4.53-2,4.46-5.26-.15-6.48-.04-12.96-.04-19.44ZM96.73,599.26c10.02-.55,17.18-.76,24.3-1.37,10.64-.91,21.08-2.95,31.06-6.86,1.59-.62,3.77-1.29,3.63-3.58-.12-1.92-2.07-2.46-3.51-3.2-1.17-.6-2.47-1-3.75-1.35-10.78-3-21.84-4.34-32.9-5.73-4.09-.52-6.02.56-5.23,4.95.69,3.86-.7,5.93-4.78,7.04-4.8,1.31-9.51,1.53-14.31.92-7.25-.91-8.69-2.28-9.37-9.5-.25-2.69-1.15-3.48-3.64-3.23-3.81.38-7.63.54-11.44.94-9.63,1-19.07,2.84-28.11,6.45-1.58.63-3.29,1.26-3.39,3.22-.11,2.11,1.86,2.63,3.32,3.21,3.09,1.21,6.2,2.45,9.42,3.19,16.96,3.9,34.2,5.04,48.68,4.91ZM502.68,599.22c14.06-1.33,28.29-.4,42.28-3.11,6.39-1.24,12.77-2.35,18.5-5.68,2.99-1.73,2.85-3.5-.01-5.06-1.89-1.03-3.93-1.8-5.98-2.49-10.84-3.62-22.21-4.17-33.39-5.81-4.18-.62-5.67.85-4.91,4.67.92,4.58-1.67,6.22-5.35,7.39-5.58,1.76-11.14,1.44-16.78.3-4.5-.9-7.82-2.52-6.81-8.1.66-3.63-1.31-4.65-4.66-4.24-5.45.67-10.94,1.04-16.38,1.75-6.95.92-13.74,2.64-20.23,5.33-1.63.68-3.81,1.31-3.82,3.48,0,1.92,2.04,2.53,3.49,3.19,2.26,1.03,4.62,1.88,7.01,2.54,15.37,4.22,31.21,4.62,47.01,5.84ZM521.13,383.93c-2.55-1.49-5.05-3.08-7.67-4.42-1.08-.55-2.51-1.88-3.6-.67-1.11,1.24-1.36,3.22-.16,4.63,5.15,6.1,10.2,12.4,17.76,15.74,4.19,1.85,6.5.66,7.96-3.8,1.24-3.76.86-7.6.05-11.36-1.01-4.72-.65-9.24,1.11-13.71.67-1.7,1.17-3.47,1.62-5.24,1.92-7.63-.86-10.31-8.56-8.47-6.81,1.62-12.39,5.55-18.02,9.39-1.35.92-2.94,2.14-1.9,4.08,1.05,1.97,2.69.38,3.98.14,3.3-.62,6.51-2.09,9.94-1.04-4.49,1.88-9.18,2.84-14.24,5.35,4.47,3.15,9.73,4.24,11.71,9.38ZM480.59,385.94c1.68-4.13,4.98-6.28,8.42-8.28,1.2-.7,3.63-.24,3.42-2.19-.25-2.36-2.75-1.85-4.45-2.22-3.32-.73-7.07.04-10.63-2.89,4.69-.52,8.35.73,12.08,1.34,1.08.17,2.5,1.02,3.05-.45.53-1.4.42-3.11-1.26-3.9-7.16-3.39-13.64-8.47-21.99-8.96-5.5-.33-7.99,2.44-6.92,7.89.32,1.61.86,3.25,1.65,4.69,2.98,5.5,4.12,11.13,2.18,17.29-.69,2.18-.8,4.58-.35,6.92.88,4.6,3.62,6.74,7.85,4.77,7.96-3.72,14.12-9.77,18.92-17.15.56-.86.7-1.99.08-2.84-.98-1.35-2.17-.42-3.07.13-3.04,1.88-5.99,3.9-8.98,5.87ZM516.87,567.85c.06,0,.12,0,.18,0,0-4.65-.1-9.31.04-13.96.08-2.47-.67-3.25-3.17-2.72-6.19,1.32-12.46,2.14-18.8,1.54-2.19-.21-2.54.74-2.52,2.55.12,9.31.21,18.61.24,27.92,0,2.13.77,3.24,2.95,3.85,6.15,1.72,12.13,1.02,18.1-.69,2.25-.64,3.06-2.23,3.01-4.53-.09-4.65-.03-9.31-.03-13.96ZM565.62,593.92c-40.8,10.36-80.89,11.94-121.2-1.43-.57,2.47.69,4.35,3.07,5.7,3.06,1.73,6.32,2.93,9.77,3.66,23.61,5.06,47.43,6.04,71.43,3.74,10.94-1.05,21.83-2.4,32.18-6.41,2.65-1.03,5.4-2.1,4.75-5.27ZM156.46,593c-40.76,12.34-80.98,12.49-121.46.16-.83,3.13,1.11,4.95,4.07,5.91,3.47,1.13,6.97,2.24,10.54,2.97,24.52,4.99,49.18,6.04,74.01,2.49,8.56-1.23,17.25-1.69,25.52-4.48,3.64-1.23,7.3-2.59,7.32-7.04ZM306.17,111.79c-5.77-5.59-14.75-3.79-18.03-13.13-1.49,7.26-5.52,7.91-10.15,7.29,1.49,5.1,4.58,9.43,2.93,14.79-.29.95.22,2.33.74,3.31.77,1.46,1.95,3.21,3.61,3.06,1.91-.17,1.1-2.41,1.56-3.71.57-1.64.14-3.63,1.72-5.03q.37,12.43,4.86,13.05c.71-1.47-1.98-2.38-.7-3.98,1.67-.11,1.49,1.54,2.26,2.26,1.77,1.67,3.62,4.69,5.92,3.73,2.95-1.22,1.9-4.89,2.01-7.64.05-1.32-.99-2-1.83-2.81-.46-.44-1.81-.96-.39-1.76,2.9-1.64,1.67-3.73.38-5.38-1.89-2.43-5.33-3.79-7.54-2.37-3.42,2.2-3.93.03-5.57-2.02,6,.46,11.53,1.78,18.22.33ZM351.88,41.97c-.6,1.65-1.31,2.59-1.08,3.14,1.04,2.47,1.13,2.49-1.39,2.88-.81.12-1.71-.11-2.47.13-2.53.79-4.72,4.81-3.51,6.26,1.2,1.42,9.13.97,9.76-.85,1.83-5.27,4.58-10.33,4.42-16.17-.05-1.67-.62-1.83-2.16-1.5-6.29,1.33-12.62,2.46-13.48,10.66-.09.81-.32,1.96-1.9,1.85-.16-3.11,2.59-5.56,2.2-9.12-5.43,2.84-9.35,6.3-10.71,11.35,9.86,5.38,13.27-4.37,20.31-8.63ZM519.03,227.68c.88,3.85,1.74,7.7,2.64,11.54.8,3.44.27,6.12-3.38,7.76-3.92,1.77-5.05,5.3-5.42,9.38-.52,5.75,3.61,9.01,6.37,13.04,2.53,3.68,3.81-.05,5.36-1.06,1.64-1.07,3.5-2.36.65-4.47-2.06-1.53-4.73-2.74-4.65-6.94-.85,1.79-1.19,2.54-1.57,3.27-.28.54.11,1.72-2.38,1.14,8.16-10.79,8.65-22.12,2.38-33.66ZM311.21,70.08c4.88-3.22,7.66-8.51,7.06-12.95-2.47.46-3.94,5.59-7.35,1.64-1.99-2.3-1.41-5.01.22-6.87,3.03-3.46,6.2-1.55,9.08.92q1.14-7,5.27-8.29c-.83-1.62-1.89-2.86-3.9-2.24-3.02.93-2.89,3.99-3.96,6.78-2.13-4.89-4.35-2.49-5.9-.37-1.83,2.5-4.02,4.44-6.64,5.91-3.01,1.69-6.14,3.18-10.2,5.26,3.71.48,5.53,6.07,9.13.93.71-1.02,2.07-.33,3.23.02,4.82,1.45,4.24,5.38,3.98,9.27ZM322.34,62.42c1.93.26-.22,3.37,2.34,3,1.49-.21,2.98-.44,3.75-2.04.54-1.11.7-2.31.2-3.38-.53-1.12-7.93.18-8.35,1.67-.95,3.38-3.73,5.81-4.94,9.49,2.41,0,4.49-.41,6.33.08,4.84,1.28,8.17-.48,11.2-4.15,2.39-2.88,5.73-4.74,9.55-4.83,3.59-.09,5.7-2.07,7.7-4.34-7.58-5.32-12.57,2.77-18.99,3.29-1.26,7.01-7.97,5.58-12.7,8.81,1.21-3.36,1.67-5.99,3.9-7.6ZM102.72,137.02c-4.1-.71-5.12-3.39-5.36-6.76-.17-2.39-1.43-4.12-4.08-4.16-1.58-.02-3.91-.99-4.56.63-.71,1.77.81,3.72,1.69,5.51.67,1.35,3.44,2.06,2.01,3.92-1.24,1.61-3.4,1.39-5.53.91-3.59-.81-7.3-1.62-11.27-.45,7.01,8.33,14.51,8.44,27.09.4ZM495.04,374.98c-.25,3.3-.29,7.18,5.5,7.04,5.86-.14,6.89-1.78,6.79-9.87-.05-4.16-2.59-5.1-5.84-5.13-5.21-.05-6.65,1.66-6.46,7.96ZM446.7,74.12c-.57,1.97-2.73,2.56-2.39,4.52,6.14-.96,10.47-4.12,13.1-9.58-11.16-3.49-17.18,3.29-22.63,11.14,6,2.34,6.99-4.97,11.92-6.08ZM472.01,76.88c-5.03-3.06-9.93-3.58-14.92-1.08-2.74,1.37-2.94,3.68-1.24,5.94.61.81,3,.2,2.48,2.13-.33,1.22-1.83,1.99-3.17,2.1-1.83.14-3.38.31-3.06,2.73.18,1.34.4,2.89,1.91,3.13,2.04.33,2.9-1.45,3.43-2.97,1.66-4.78,5.2-7.39,9.67-9.22,1.6-.65,3.54-.8,4.91-2.75ZM111.22,298.07c-2.88,4.65-4.86,9.92-11.17,5.52-.91-.63-1.63.1-1.86.94-.59,2.1-2.07,3.26-3.84,4.35-2.22,1.37-1.85,3.47-.63,5.21,1.22,1.74,3.23,2.55,5.3,1.93,2.58-.78,1.5-2.82,1.23-4.59-.2-1.27-1.45-2.3-.7-4.17,1.41,1.12,2.59,2.23,4.31.03,1.49-1.91,3.84-1.52,5.28.9,1.31,2.19,2.75,4.25,5.59,4.94-1.15-4.91-2.24-9.56-3.52-15.05ZM344.92,72.58c3.87,2.41,7.57,2.32,11.08,3.85-5.59,3.16-9.63-3.47-14.94-1.66,6.58,8.26,11.14,7.59,19.16,2.53,2.84-1.79,2.21-3.31-.25-4.65-4.7-2.58-9.47-2.48-15.05-.07ZM381.66,99.27c-7.85-3.76-10.76-11.32-14.85-18.71-2.33,5.21-3.19,10.47-.04,14.46,3.5,4.44,9.34,4.79,14.89,4.25ZM69.48,266.33c-4.45,5.31-6.3,9.92-4.81,16.19,1.6-1.98.41-4.16,2.3-5.44.35,4.32,1.18,8.12,3.61,12.33,1.36-3.76,1.65-6.83,3.65-9.19,1.1-1.3.56-2.46-.45-3.5-2.48-2.55-3.97-5.59-4.3-10.39ZM520.79,240.8c-.78-1.21,0-4.15-1.9-3.89-3.71.51-6.39,3.84-10.28,4.68-.98.21-1.3,3.51-1.9,5.4-.42,1.31-.76,2.63.98,3.31,1.55.61,3.13,1.43,4.42-.45,1.65-2.4,4.09-3.81,6.46-5.33,1.28-.83,2.36-1.85,2.22-3.72ZM53.29,290.25c-3.53,7.58,1.62,12.93,2.55,18.88,1.75.07.68-1.95,2.03-1.97,1.04,1.86-1.02,3.73-.03,5.64,6.53-6.27,6.6-8.94.53-15.47-1.28,1.27.67,3.22-1.24,4.75.42-4.28-1.34-7.6-3.83-11.82ZM384.28,48.86c2.78.07,5.52-.71,7.55,1.61.88,1,1.65.66,2.24-.49,1.92-3.71,2.46-7.47.63-11.39-.67-1.45-1.77-2.55-3.27-2.75-1.84-.24-2.45,1.44-3.02,2.77-1.4,3.29-2.68,6.63-4.13,10.25ZM257.87,171.06c.88,1.04-1.21,4.74,1.6,3.61,4.34-1.76,7-5.97,8.38-10.62.53-1.78.15-2.27-2.69-4.49-1.94-1.52-1.97-1.54-3.39.23-2.59,3.23-3.78,6.96-3.9,11.27ZM223.71,162.27c-6.02,4.67-8.01,11.88-5.5,17.77,7.6-5.01,10.63-12.04,8.05-19.34-1.27,3.33-2.43,6.37-3.59,9.41-.22-.05-.44-.1-.67-.16.51-2.32,1.03-4.64,1.7-7.68ZM73.85,215.02c-3.23,2.02-5.6,4.6-8.28,4.96-6.03.81-3.7,4.52-3.47,7.65.2,2.68,1.09,3.43,3.79,1.95,5.5-3.02,8.26-7.38,7.96-14.56ZM161.09,142.33c4.21-7.31,4.45-14.14.64-18.13-2.09-2.18-4.45-3.77-7.84-1.55,5.2,5.64,4.18,13.08,7.2,19.68ZM460.88,180.31c1.44-5.76-3.91-5.57-6.25-6.07-3.13-.67-4.42,2.93-4.49,5.89-.07,3.19.84,6.19,4.86,6.05,3.69-.13,5.48-2.59,5.87-5.87ZM503.5,108.52c-1.15-4.42-2.39-8.73-6.89-10.92-.97-.47-2.41-2.22-3.21-.14-.66,1.71-3.27,3.2-1.89,5.08,2.12,2.89,4.68,5.58,7.5,7.79,1.54,1.21,4.21,1.78,4.48-1.82ZM44.24,321.37c4.63-5.96,7.43-11.73,6.66-19.04-2.16.84-1.33,2.99-2.89,4.24.25-2.44.46-4.49.7-6.85-5.61,5.19-6.83,10.86-4.47,21.65ZM483.95,181.98c-.11-3.86-3.87-8.51-6.53-8.08-3.42.55-3.76,3.29-3.75,6.1.03,4.32,2.31,6.33,6.52,6.43,3.4.08,3.4-2.46,3.75-4.45ZM72.04,364.46c1.98-7.21-.2-17.65-3.99-18.14-.11,1.17-.23,2.33-.36,3.72-1.28-1.12-.61-2.92-2.63-3.67-1.06,7.5.66,13.58,6.98,18.09ZM491.76,79.71c4.54,5.38,9.69,3.01,14.76.89.96-.4,2.55-.79,2.23-2.23-.17-.76-1.27-1.45-2.1-1.91-4.88-2.75-10.26-1.47-14.89,3.26ZM513.05,216.34c-4.42-.36-5.53,2.53-5.61,5.3-.1,3.14,2.18,5.42,5.34,5.42,3.63,0,5.07-2.77,5.22-6.07.17-3.75-2.16-4.85-4.95-4.65ZM131.47,118.26c4.11.18,7.11,1.45,10.19,2.27,3.08.82,6.65.88,9.99-.78-6.5-7.3-12.74-7.91-20.19-1.49ZM345.56,114.2c-.58-3.14.82-6.1-1.67-8.49-2.17,5.39-2.56,10.78-3.51,16.05-.23,1.27-.76,3.03.92,3.44,1.84.45,1.54-1.73,2.25-2.7.84-1.14-.05-3.07,1.8-3.94.87,1.1-.19,3.34,2.35,3.58.84-3.98,1.97-7.93-.4-12.76-.74,2.04-1.15,3.18-1.74,4.82ZM92.37,200.36c-5.32-4.59-6.65-11.02-9.18-17.48-1.98,4.73-4.79,8.86-1.66,13.22,2.49,3.47,6.53,4.5,10.85,4.26ZM52.19,329.05c7.8-3.12,13.63-7.36,16.07-15.29-2.29.2-3,3.67-4.36,3.03-4.72-2.23-5.94,1.66-7.82,4.02-1.73,2.17-3.15,4.68-3.89,8.24ZM242.57,146.39c-.08-3.76-3-9.22-6.19-11.49-.91-.65-1.85-1.65-3.09-.79-1.33.92-1.15,2.24-.69,3.58,1.39,3.95,3.41,7.55,6.38,10.53.74.74,1.48,2.17,2.78,1.4,1.09-.65.66-2.1.8-3.22ZM458.97,133.46c5.25-2.97,7.5-6.94,7.76-11.87.24-4.67-2.84-7.5-7.15-10.56,3.24,7.93,1.37,14.74-.62,22.44ZM456.09,51.02c-4.68-.05-5.28.5-4.06,3.39.34.81-.4.48-.66.58-3.36,1.31-.87,2.33.25,3.14,1.67,1.21,3.72,1.45,5.68,1.25,2.5-.26,5.45-.9,5.58-3.86.13-2.89-2.66-3.81-5.15-4.39-.63-.15-1.31-.1-1.65-.12ZM436.85,139.05c1.86,2.6,3.09,4.72,4.71,6.48,2.29,2.49,4.54,7.54,7.07,6.65,2.81-1,2.8-6.25,3.52-9.81.02-.12-.14-.28-.22-.42q-5.03,1.22-15.08-2.89ZM167.49,240.79c-.67-1.84-1.02-3.87-2.06-5.47-2.52-3.89-5.24-3.6-7.55-.37-2.52,3.54.73,4.65,2.01,6.41,1.42,1.94,3.63,2.88,6.15,1.69.95-.44,1.71-1.03,1.44-2.27ZM492.89,230.85c.09,2.35.67,4.94,3.14,6.1,1.92.9,3.83-.39,5.42-1.66,1.76-1.39,2.38-3.23,1.58-5.32-.75-1.95-1.22-5.33-4.12-1.45-.41.54-1.23,1.04-1.09-.1.34-2.74-1.25-2.31-2.71-1.78-1.77.63-2.5,2.08-2.22,4.22ZM129.36,151.16c7.06,6.89,17.31,6.98,22.01,1.01-6.9-3.51-13.96.8-22.01-1.01ZM529.93,304.63c4.9-.11,8.47-2.91,8.19-6.76-.11-1.5.53-4.01-2.29-4.04-3.54-.04-8.49,5.44-8.64,9.19-.1,2.48,1.66,1.37,2.74,1.61ZM438.26,67.79q-8.2-8.09-12.76-.97c-.18.28-.4.52-.61.78-1.35,1.7.63,2.2,1.17,3.2.61,1.12,1.31,1.91,2.68.89,2.8-2.1,6.34-2.5,9.51-3.9ZM255.2,153.73c6.33-1.04,10.26-4.49,14.13-7.96.81-.73,1.6-2.6.46-2.91-2.58-.7-5.85-1.83-7.88.51-2.5,2.86-4.21,6.41-6.7,10.36ZM390.72,133.6c-1.09,5.3-.42,13.14,1.1,18.15,5.59-3.96,7.01-6.67,5.56-10.69-2.23,1.41-1.84,4.65-4.25,6.46-.15-3.31,3.08-5.21,2.57-7.7-.52-2.54-4.27-3.23-4.99-6.22ZM488.06,233.5c-.29-3.54-.3-7.51-4.75-7.58-1.81-.03-5.21.79-4.67,4.62.43,3.04,4.62,7.3,7.44,7.03,3-.28,1.54-2.73,1.98-4.07ZM394.44,75.62c-1.93-6.57-6.22-7.6-10.66-8.32-4.55-.74-7.35,1.69-10.16,6.17,7.3-1.71,13.64-1.64,20.83,2.16ZM56.92,271.15c-6.33,1.61-10.66,5.49-14.67,11.73,8.02-1.07,14.96-1.55,14.67-11.73ZM420.67,175.15c1.74-4.88,3.35-9.27,1.82-14.01-.32-.99-.72-2.54-2.08-2.4-.77.08-1.57,1.12-2.11,1.9-3.39,4.86-2.81,8.88,2.38,14.52ZM137.46,149.21c-4.08-6.3-7.73-12.35-6.86-20.22-2.92,4.35-5.45,8.69-2.3,13.39,2.17,3.24,4.84,6.38,9.16,6.83ZM228.35,131.74c-1.83-.66-3.47,1.42-3.4.76.45-4.24-1.61-1.16-2.29-.81-5.17,2.63-5.16,7.76-5.95,13.11,5.12-3.57,10.55-6.19,11.65-13.06ZM430.67,168.5c-.24.08-.49.16-.73.24-.95-1.07-1.9-2.13-3.55-3.98,1.39,5.76,2.89,10.29,7.38,12.97,2.04,1.22,3.97,1.3,3.56-2.14-.6-4.94-2.84-8.56-8.25-10.63.72,1.6,1.15,2.57,1.59,3.54ZM267.36,70.59c-3.23-4-7.32-4.6-11.27-2.84-3.64,1.62-6.27,4.63-5.71,10.48,5.14-4.95,10.17-8.35,16.97-7.64ZM147.71,249.85c.6,1.75,0,5,3.32,4.78,4.59-.3,7.42-7.11,4.88-11-.47-.71-.93-1.43-1.86-1.44-2.8-.04-6.44,4.22-6.34,7.66ZM489.96,254.91c3.24-.27,6.46-1.14,6.79-5.4.18-2.22-1.51-3.45-3.53-3.27-3.4.3-6.72,1.19-7.29,5.38-.38,2.78,1.47,3.35,4.03,3.29ZM335.58,71.66c4.8,1.67,8.4-.8,12.14-2.74,2.92-1.52,1.92-2.83-.34-3.98-4.36-2.24-10.21-.07-14.71,5.79,4.49-.5,7.71-3.83,12.05-3.45l-9.15,4.39ZM311.35,113.04c-3.61.2-5.11,2.94-5.61,6.23-.39,2.5,1.67,3.48,3.74,3.74,2.75.36,6.41-3.61,6.32-6.59-.09-2.67-1.95-3.19-4.44-3.38ZM520.71,108.64c6.65,1.57,8,1.72,10.96.69,1.65-.57,4.04-.9,3.94-3.08-.1-2.14-2.55-2.38-4.19-2.87-4.69-1.39-8.27.46-10.71,5.25ZM436.72,115.82c-5.61.66-5.09,4.61-4.61,8.16.68,5.1,3.72,7.38,9.03,6.92-3.48-4.47-4.48-9.56-4.41-15.08ZM518.05,203.55c-2.55.77-5.27,1.74-5.06,5.07.19,3.02,2.79,4.13,5.35,4.21,3.12.1,5.13-1.94,5.1-4.97-.03-3.09-2.68-3.85-5.4-4.32ZM137.16,121.18c-7.29-1.35-11.53.19-13.6,4.38-2.16,4.37-1.93,6.69,1.09,9.53,1.67-6.81,5.03-12.14,12.51-13.92ZM331.09,105.34c-1.59,6.17-.74,10.6,2.51,15.66.69,1.07,1.16,2.72,2.76,2.48,1.58-.23,1.56-1.93,2.01-3.13.72-1.92.44-3.54-1.2-4.9-2.87-2.39-4.59-5.56-6.08-10.11ZM202.5,186.94c-1.51-6.87-6-11.18-10.73-10.55-1.13.15-2.47.28-2.83,1.58-.3,1.09.71,1.81,1.46,2.42,3.55,2.93,7.32,5.48,12.1,6.54ZM422.3,147.34c.61,7.04,3.66,10.5,11.31,12.89-.58-7.1-4.4-11.09-11.31-12.89ZM86.25,231.81c-5.89-.28-10.82,2.59-12.2,6.77-1.11,3.35-1.38,6.67,2.71,9.7-.04-7.55,3.68-12.35,9.49-16.46ZM131.34,148.94c-3.95-3.28-5.88-6.69-7.32-10.43-.52-1.36-1.21-3.3-2.85-2.99-1.94.37-1.73,2.6-1.8,4.15-.29,6.16,3.16,9.09,11.97,9.26ZM155.86,132.03c-2.83-8.39-6.13-10.46-13.41-9.23-1.08.18-2.63-.1-2.88,1.36-.28,1.66,1.28,2.23,2.48,2.66,4.33,1.56,8.94,2.32,13.81,5.2ZM284.71,142.46c-.58-4.01-.72-8.31-4.83-10.84-.82-.51-1.77-1.31-2.71-.68-.87.59-.86,1.76-.66,2.75.77,3.8,2.35,7.27,4.71,10.34.65.84,1.26,2.32,2.66,1.7,1.32-.58.59-2.07.83-3.26ZM147.58,194.37c-4.05,3.18-5.21,8.8-2.65,12.78.77,1.2,1.45,3.62,3.5,2.47,1.59-.89,3.03-2.46,2.16-4.95-1.13-3.24-1.94-6.59-3.01-10.31ZM154.76,215.6c.39,5.67,3.08,9.02,8.14,10.42,2.23.62,3-.25,2.66-2.56-.72-4.79-3.63-7.05-10.8-7.86ZM405.11,134.48c2.41-7.63,1.44-11.02-3.4-12.77-1.07-.39-2.23-.97-3.27-.03-1.03.93-.73,2.17-.37,3.27,1.27,3.9,4.07,6.63,7.05,9.53ZM432.97,52.74c3.67-3.07,3.17-6.03,1.78-9.07-1.13-2.49-2.96-3.17-5.13-1.4-2.4,1.96-4.69,4.99-3.11,7.63,1.56,2.61,3.35-.78,5.25-1.85.37,1.42.71,2.76,1.21,4.7ZM434.93,113.89c4.68-7.38,12.73-4.69,19.42-6.54-6.23-6.79-16.06-3.5-19.42,6.54ZM32.89,175.14c5.52-3.46,9.22-7.52,10.49-13.75-8.49,2.73-11.71,6.78-10.49,13.75ZM546.86,237.33c-.4-2.53-1.33-5.02-3.44-6.37-3.42-2.19-.57,2.25-2.12,2.27-.33,0-.67.08-.99.03-2.95-.49-3.5,1.21-3.05,3.52.54,2.79,2.54,4.44,5.21,4.49,2.25.04,4.05-1.33,4.4-3.94ZM182.41,189.11c1.66-3.77,1.57-7.44,2.14-10.93.35-2.15-.98-3.28-3.4-2.85-1.93.34-4.24.04-3.75,3.13.63,3.89,1.71,7.58,5,10.65ZM119.02,333.54c-7.26,4.15-9.82,9.34-8.47,16.75,4.88-4.48,8.17-9.67,8.47-16.75ZM328.55,106.48c-4.28,2.76-9.59,4.52-7.53,11.36.26.87-.4,2.3.92,2.44.78.08,1.84-.64,2.49-1.29,3.36-3.36,5.82-7.09,4.12-12.51ZM321.19,132.26c2.12-.56,4.98-.54,4.81-3.37-.18-2.9-1.81-5.67-5.26-5.49-2.94.15-5.83,2.8-5.77,4.95.07,2.21,3.57,3.44,6.22,3.9ZM265.39,125.72c3.98-2.04,7.81-4.01,6.42-8.65-1.13-3.78-5.05-3.8-9.68-4.26,4.77,4,1.47,8.69,3.26,12.91ZM506.53,108.74c6.09-.2,10.26-2.55,12.3-8,.54-1.45.69-2.61-1.63-2.23-4.22.68-9.35,5.36-10.67,10.23ZM110.51,332.71c2.15-.3,3.19-1.67,3.27-3.72.09-2.64-4.63-7.05-7.18-6.63-1.92.32-2.69,1.87-2.74,3.66-.07,2.3,4.43,6.73,6.66,6.7ZM442.96,49.43c.2,1.07-.39,2.61,1.03,3,.75.2,1.9-.41,2.65-.96,2.04-1.49,3.69-3.38,4.37-5.88.48-1.77.92-3.93-.88-5.01-1.98-1.19-3.36.63-4.52,2.02-1.63,1.96-2.64,4.21-2.65,6.83ZM183.69,152.49c-.45-2.64-2.02-4.26-4.92-4.34-2.64-.07-4.81,1.12-4.7,3.86.11,2.75,1.8,5.22,4.81,5.39,2.87.16,4.27-2.03,4.81-4.91ZM120.92,324.69c1.97,5.37,4.68,9.04,8.14,12.18.96.86,2.16,2.02,2.86-.38,1.36-4.59-3.19-11.88-8.23-12.7,1.69,2.87,3.3,5.59,4.9,8.31-3.06-1.65-3.81-5.13-7.68-7.41ZM152.33,76.79c-3.03-5.06-6.67-.59-9.91-.86-1.55-.13-1.27,3.72-1.98,5.72-.55,1.56.56,1.84,1.54,2.51,1.31.9,2.12.62,2.83-.56,1.77-2.93,4.53-4.78,7.51-6.81ZM92.63,186.68c-4.09,2.12-4.25,4.81-1.95,7.86,2.72,3.62,6.21,6.01,10.98,5.6,2.34-.2,4.8-.56,5.65-3.72-11.45,2.18-12.31,1.61-14.68-9.75ZM358.85,103.32c-1.76-2.05-2.6-3.05-3.45-4.03-2.39-2.75-5.35-4.54-9.03-4.54-1.37,0-3.4.26-3.73,1.92-.28,1.42,1.49,2.05,2.59,2.69,3.79,2.17,8.08,2.68,13.63,3.97ZM340.29,84.01c-.74-3.9-2.62-7.32-6.26-9.52-.88-.53-2.06-1.55-3.16-.5-.89.85-.04,1.89.29,2.77,1.3,3.47,3.43,6.44,5.84,9.21.64.74,1.32,1.69,2.46.95.95-.61.93-1.68.83-2.9ZM467.44,206.93c6.46-2.68,2.37-7.09,3.56-10.57-3.44.45-5.55,2.27-7.57,4.19-1.86,1.77-2.8,4.44-1.16,6.17,1.86,1.97,3.17-1.1,4.74-1.9.78-.4,1.04-1.75,2.42-1.25-.52.88-1.01,1.7-1.99,3.36ZM329.01,116.1q-4.4,5.79-1.53,10.79c.86,1.49,1.27,3.8,3.83,1.97,1.7-1.22,3.06-2.38,1.56-4.83-1.44-2.35-2.45-4.97-3.87-7.93ZM74.91,323.29c-1.78-.6-2.16-2.34-3.1-3.57-.57-.75-1.41-1.28-1.94-.38-1.11,1.89-1.65,4.02-.22,6.02,1.22,1.71,2.99,2.15,4.78,1.09,2.38-1.41,3.66-3.72,4.32-6.37.48-1.94-1-2.57-2.26-3.33-.88-.53-1.91-.99-2.74-.24-1.22,1.11-.31,2.39,0,3.64.26,1.07,1.65,1.69,1.17,3.14ZM104.89,178.62c1.77,1.37,3.6,2.51,5.08,4,1.51,1.52,2.69,3.36,3.97,5.09.49.67.87,1.53,1.87,1.23.95-.29.96-1.2,1.03-2.04.6-7.41-4.63-11.16-11.94-8.27ZM117.74,89.85c2.66-.66,6.11.02,5.95-3.95-.13-3.12-3.03-2.67-4.94-2.59-2.97.12-7.11.82-7.22,3.85-.12,3.24,4.29,1.45,6.22,2.7ZM323.7,30.1c-1.43,1.63-2.99,1.31-4.68,1.25-2.42-.09-3.51,2.21-4.99,3.69-.63.64-.52,1.68.31,2.17,1.78,1.05,3.63.29,5.28-.32,2.74-1.01,5.1-2.61,5.12-6.01.01-1.69,1.91-4.08-.39-4.91-2.35-.85-3.48,1.45-4.4,3.37,1.34.79,2.54-.83,3.74.77ZM215.76,159.54c4.64-2.52,8.32-4.39,10.97-7.7.92-1.15,1.85-2.71.61-4.03-.98-1.05-2.53-.48-3.76-.02-4.89,1.8-5.77,6.39-7.81,11.75ZM144.01,271.66c5.91,1.83,8.43,1.72,12.24-.42.82-.46,2.17-.75,1.93-1.82-.17-.76-1.25-1.47-2.08-1.89-4.14-2.12-8.04-.81-12.1,4.13ZM83.93,130.01c-1.86.17-3.18.2-4.47.43-1.21.21-3.01-.12-3.09,1.7-.08,1.72,1.52,1.89,2.85,2.06,2.78.34,5.56.72,8.36.95,1.08.09,3.01-.12,1.97-1.63-1.28-1.86-2.34-3.79-3.51-5.69-.92-1.49-3.01-1.16-3.96-.15-1.12,1.18.8,1.26,1.86,2.34ZM482.77,203.29c1.65-.71,4.14.57,4.85-1.63.69-2.13-1.51-3.01-2.92-4.06-1.18-.87-2.38-2.09-3.7-2.3-1.93-.31-5.07-.43-4.38,2.6.61,2.71,2.66,5.29,6.16,5.38ZM239.49,162.88c.44-8.1-2.13-11.49-8.33-12.02.16,5.3,3.09,11.36,5.16,10.66.62-.81-.91-1.87.32-2.64.76,1.07,1.51,2.13,2.85,4ZM507.82,208.31c-4.1.11-6.53.64-6.83,3.83-.3,3.16,2.08,4.01,4.49,3.91,2.51-.1,5.06-1.52,5.46-4,.47-2.89-1.89-3.85-3.13-3.75ZM199.07,218.5c3-3.96,2.89-7.61,1.29-11.22-.45-1.01-.96-2.91-2.53-2.58-.78.16-1.44,1.66-1.85,2.68-1.59,3.97-1.27,7.88.59,11.98,1.13-1.08,1.5-2.13,1.57-3.32.08-1.18.17-2.36.26-3.55.07,0,.15.01.22.02.13,1.77.26,3.53.44,5.99ZM195.63,190.43c1.81,5.47,6.39,10.39,10.85,11.9-.4-7.58-3.04-10.61-10.85-11.9ZM336.19,133.16c-2.87,0-5.17,1.4-5.53,4.41-.33,2.77,2.27,3.55,4.37,3.75,3.27.3,4.85-2.07,5.29-4.86.43-2.75-1.84-3.09-4.13-3.3ZM500.6,246.13c3.71-4.49,6.84-9.07,8.18-14.66.23-.96.92-2.52-.83-2.83-1.48-.27-2.11.95-2.02,2.21.23,3.12-1.57,5.23-3.88,6.47-4.3,2.31-3.86,5.11-1.46,8.81ZM495.67,174.7c.84-3.93,1.47-7.79,3.62-11.16.59-.92.99-2.35,0-3.22-1.05-.92-2.15.05-3.12.61-4.83,2.81-5.21,9.78-.51,13.76ZM61.66,296.51c1.94-4.12,1.27-7.55-.86-10.76-.86-1.31-2.04-3.48-3.58-2.58-1.74,1.02-2.74,3.24-1.52,5.63,1.44,2.81,3.11,5.41,5.96,7.71ZM461.64,165.84c-2.1-.86-1.85,1.91-1.87,3.6-.04,3.61,2.41,5.89,5.48,6.78,1.92.56,2.64-1.78,2.46-3.44-.31-2.97-.34-6.41-6.07-6.94ZM311.11,135.8c-.07,0-.14,0-.22-.01,0-.82.01-1.64,0-2.46-.02-1.3.26-3.04-1.19-3.46-1.73-.51-2.53,1.31-3.24,2.48-1.61,2.66-1.74,5.55-.81,8.54.52,1.66,2.04,2.19,3.22,2.38,1.35.22,1.48-1.58,1.72-2.59.37-1.58.37-3.24.52-4.87ZM113.89,286.09c1.88-.61,4.58-1.26,4.12-4.56-.4-2.84-2.69-4.32-5.37-4.14-3.37.23-3.26,3.49-3.47,5.7-.24,2.53,1.93,3.11,4.72,3ZM328.5,78.08c-1.49-3.85-4.66-4.12-7.79-4.29-1.46-.08-3.88-.84-3.6,1.85.39,3.64,3.83,4.95,6.57,5.85,1.74.57,3.5-1.8,4.82-3.4ZM81.97,313.72c-.16,2.59.5,4.18,2.94,3.99,2.66-.21,5.67-.46,5.71-4.07.04-3.07-2.36-4.37-5-4.39-3.07-.02-3.34,2.62-3.65,4.48ZM477.73,79.84c7.99-.15,9.83-1.52,11.48-8.56-6.98.73-9.87,2.89-11.48,8.56ZM173.59,136.91c-2.98.63-4.14,2.84-4.15,5.42,0,2.57,1.99,3.71,4.37,3.65,2.82-.06,4.17-1.93,4.1-4.55-.07-2.63-1.7-4.15-4.32-4.53ZM168.13,153.44c-2.76.5-3.88,2.37-3.69,4.98.18,2.46,1.64,4.11,4.22,3.88,2.79-.25,4.79-1.96,4.52-4.87-.24-2.67-2.5-3.67-5.05-3.98ZM139.96,277.42c-.08-.85-.07-2.19-.36-3.46-.37-1.64-1.57-1.87-2.33-.48-2.05,3.74-4.02,7.6-2.59,12.11.24.77.47,1.68,1.47,1.76.95.08,1.41-.68,1.81-1.4,1.41-2.51,1.71-5.28,2-8.54ZM136.52,252.72c3.73,1.02,7.12,2.21,11.33,3.73-2.8-5.62-2.86-10.26.71-14.68-2.91,1.28-6.58,1.56-6.16,5.85.41,4.26-1.13,6.15-5.87,5.1ZM84.24,124.86c.69-3.47,1.14-6.39,1.86-9.24.65-2.58-.91-4.04-2.43-5.53-1.04-1.02-1.93-.94-2.61.59-1.31,2.98.23,10.94,3.18,14.18ZM506.78,113.46c.12.29.16.7.37.85,4,2.82,7.11,6.94,12.08,8.35,1.49.42,1.65-.33,1.37-1.58-.82-3.64-8.79-9.27-12.31-8.66-.68.12-1.29.26-1.51,1.03ZM207.18,142.44c-1.01-3.12-1.12-7.01-4.88-8.99-1.89-.99-3.84-.74-4.77,1.1-1.08,2.14,1.04,2.85,2.51,3.38,1.71.62,3.59.24,1.88,3.33-1.37,2.47,2.03,2.84,3.54,3.55,1.77.83,1.56-.95,1.72-2.36ZM116.87,299.02c2.31-.32,4.19-1.19,4.06-3.63-.17-3.21-2.27-5.3-5.37-5.47-2.33-.13-3.5,2.06-3.27,4.14.29,2.59,1.88,4.49,4.58,4.96ZM493.07,175.51c-2.22,5.72.33,10.99,5.72,12.18,1.07.24,1.96.25,2.66-.63.66-.82.21-1.62-.36-2.19-2.91-2.89-4.66-6.79-8.02-9.36ZM302.82,25.65c-1.94-.04-2.02,1.14-1.94,2.34.26,3.85,2.17,6.48,5.94,7.55,1.06.3,2.38.69,2.91-.86.91-2.64-4.26-9.12-6.91-9.03ZM83.92,300.36c.07-1.97.51-4.65-1.59-5.22-2.12-.57-2.86,2.27-4.04,3.74-.49.61-.81,1.53-.81,2.31,0,2.53,1.14,4.95,3.54,5.38,2.97.53,2.09-2.63,2.76-4.24.24-.57.1-1.31.13-1.97ZM180.03,163.52c-2.05.4-3.54,1.34-3.08,3.64.46,2.3.19,5.45,3.61,5.55,2.17.06,4.47-1.08,4.34-3.75-.15-2.88-2.03-4.72-4.87-5.44ZM543.18,286.2c-1.83,4.29-.73,7.86,1.85,11.12.68.85,1.49,2,2.82,1.5,1.13-.42.84-1.65.9-2.59.29-4.5-1.4-7.89-5.57-10.04ZM474.12,220.92c-.57-1.28.3-3.32-1.96-3.44-2.19-.12-6.06,5.06-6.01,7.72.04,1.97,1.46,2.93,2.81,2.62,3.5-.8,4.62-3.73,5.16-6.9ZM546.4,271.44c-1.86,4.53-.9,8.17,1.48,11.62.65.94,1.2,2.32,2.55,1.84,1.15-.42,1.31-1.82,1.34-2.99.13-4.29-1.87-7.51-5.37-10.46ZM445.85,131.92c3.83,2.42,7.32,2.2,10.2.14,3.03-2.17,3.51-5.86,3.43-9.46-.03-1.11-.69-1.87-1.83-2.02-.71-.09-1.34.21-1.48.98-.18,1.07-1.24,2-.38,3.25,1.92,2.79,1.87,3.26-1.01,4.37-2.71,1.04-5.56,1.72-8.93,2.74ZM455.51,160.43c-3.93-.1-7.38,2.89-7.45,6.14-.03,1.77.93,2.27,2.49,2.21,3.12-.11,7.27-3.8,7.32-6.4.04-2.06-1.36-1.88-2.37-1.95ZM39.41,238.09c.99-5.12,1.97-10.24,3.05-15.83-1.34.35-1.96.53-2.6.67-3.49.77-6.15,1.7-2.93,6,1.91,2.56,1.48,5.94,2.48,9.15ZM511.15,258.28c.73-3.95-1.62-5.6-5.2-5.92-1.6-.14-2.63,1.32-2,2.62,1.12,2.31-.42,6.45,3.91,6.6,1.66.06,4.46.25,3.29-3.3ZM108.75,296.22c-.37-1.49-.53-4.08-2.31-3.69-3.49.75-4.18,4.46-5.15,7.31-.58,1.71,1.14,3.32,3.03,2.92,3.31-.69,4.06-3.52,4.43-6.53ZM279.22,157.64c-.37-3.56-.9-7.12-4.99-8.19-1.27-.33-2.26.86-2.19,2.58.11,2.79,3.92,8.93,5.73,8.72,2.01-.23,1.1-2.01,1.46-3.11ZM518.29,232.46c-.93-1.09.61-3.82-2.15-3.6-3.14.25-5.75,1.48-5.78,5.3-.01,1.84.53,3.54,2.71,3.26,2.77-.35,5.08-1.56,5.21-4.96ZM525.38,289.18c-.08,4.03-.39,7.08.84,10.38,2.05-5.49,7.63-6.44,11.54-9.61-3.99.3-7.77,2.22-12.39-.77ZM132.09,196.63c4.74-1.93,7.38-.36,9.28,3.53.79-3.18,1.45-5.56,3.55-7.22.68-.54,2.19-.92,1.43-2.14-.57-.91-1.68-1.63-2.71-2.06-1.66-.71-1.68.88-2.24,1.83-1.13,1.91-1.96,4.29-5.21,3.01-1.03-.41-2.46.62-4.1,3.05ZM513.44,158.85c4.68,3.85,8,7.53,10.62,12.41,1.66-8.53-2.25-13.38-10.62-12.41ZM97.19,203.1c.59.04.09-.04-.4-.02-1.85.08-4.77-1.02-5.12,1.24-.33,2.19,2.51,3.15,4.59,3.78,1.61.48,3.28.59,4.83-.25,1.59-.86,3.82-1.77,3.43-3.73-.45-2.21-2.81-.63-4.28-.99-.62-.15-1.32-.03-3.06-.03ZM103.62,253.52c-5.63,4.31-11.92,5.22-18.31,7.24,7.23,3.51,13.84.89,18.31-7.24ZM82.2,338.98c-2.74.47-3.6,2.48-3.66,4.67-.06,2.07.73,4.18,3.45,3.61,2.18-.46,4.96-.94,4.84-3.96-.11-2.66-2.4-3.66-4.63-4.31ZM438.73,58.15c-.7.8-3.92-1.85-2.88,2.22.48,1.87-1,5,3.08,2.75,1.11-.61,2.03.84,3.1,1.17,1.34.42,2.89,1.5,3.75-.58.63-1.52.1-2.94-1.19-3.95-1.62-1.28-3.58-1.56-5.85-1.62ZM148.79,148.75c9.24,1.01,11.51-2.47,8.15-11.61-2.57,3.9-3.69,8.39-8.15,11.61ZM33.72,242.94c2.69-4.74,3.66-8.94,1.62-13.5-.4-.89-1.04-1.85-2.17-1.73-1.18.12-1.55,1.17-1.48,2.2.3,4.13-.34,8.42,2.03,13.03ZM500.38,167.12c4.72-1.64,8.57-2.06,12.52-1.69,1.03.1,2.64.4,2.97-.99.4-1.66-1.3-2.05-2.43-2.58-4.7-2.2-9.46-.56-13.06,5.26ZM389.66,66.66c6.56.99,5.57,9.12,10.98,11.49.03-8.03-4.12-12.56-10.98-11.49ZM479.96,211.8c-1.11.38-3.85-.42-3.24,1.6,1.2,4.02,5.19,4.71,8.84,5.36.96.17,2.11.3,2.32-1.12.34-2.32-4.31-5.8-7.91-5.84ZM128,174.63c-.66-1.59-.69-4.7-2.23-3.62-2.13,1.48-4.66,3.75-4.9,6.81-.09,1.18,1.04,3.15,2.09,3.57,1.39.55,2.63-1.06,3.32-2.34.77-1.42,1.19-3.02,1.72-4.42ZM146.02,224.56c.79,1.65-1.79,2.44-.67,4.39,4.32-3.13,5.91-7.3,6.57-12.54-6.91,3.33-8.4,5.3-7.94,10.08.71-.67,1.37-1.3,2.04-1.93ZM106.88,202.54c7.03-2.45,8.56-10.61,3.33-15.35-1.64,5,1.03,10.88-3.33,15.35ZM310.59,28.27c.51,1.15.27,3.82,2.46,3.15,2.5-.77,4.55-2.85,4.2-6.06-.18-1.68-.51-3.91-2.59-3.53-3.07.56-3.82,3.33-4.07,6.44ZM100.59,237.71c-1.84-4.55-4.19-6.58-7.66-7.16-2.39-.4-4.48,1.16-6.29,4.41,4.59-.98,8.59.64,13.95,2.75ZM253.76,93.06c-.99-3.65-3.24-6.57-3.31-10.15-.02-1,.05-2.63-1.65-2.46-1.26.13-1.7,1.4-2.1,2.5-1.37,3.77,1.13,7.53,7.05,10.11ZM505.31,220.73c.7-3.62-2.69-2.87-4.19-3.24-2.78-.69-3.25,2.5-3.24,3.91,0,2.95,3.07,3.2,5.19,3.37,2.85.22,1.98-2.35,2.25-4.04ZM509.43,263.2c-1.64.53-2.6,1.09-2.38,3.12.36,3.3,1.91,5.07,5.2,5.12,1.71.03,3.14-1.19,2.71-2.75-.75-2.74-2.68-4.73-5.53-5.49ZM40,154.69c6.35.67,9.31-.5,13.29-4.98-5.65-2.15-9.43.39-13.29,4.98ZM490.24,91.17c3.03-.25,3.85-2.33,4.2-4.77.32-2.26-1.18-3.05-2.96-3.03-2.24.02-4.77.9-4.96,3.21-.16,1.98,1.4,3.98,3.73,4.6ZM310.19,81.02c2.59,2.62,5.41,3.33,7.84,4.71,1.45.83,3.06.9,4.04-.53,1.25-1.81-.54-2.51-1.65-3.46-3.04-2.6-6.25-2.19-10.23-.72ZM94.62,255.44c8.98-3.57,10.42-8.58,4.55-13.44.79,4.97-1.82,8.69-4.55,13.44ZM474.18,199.12c-.74,3.02-.53,5.49-.23,7.94.16,1.25.04,2.95,1.97,2.8,1.57-.12,3.46.02,4.37-1.71.73-1.4-.13-2.5-1.07-3.51-1.56-1.67-3.08-3.36-5.04-5.51ZM207.13,148.96c-1.03-2.48-3.61-3.26-6.02-4-1.43-.44-2.18.68-1.75,2.06.86,2.75,1.37,6.28,4.66,6.77,2.05.31,2.57-2.5,3.11-4.84ZM375.74,86.78c-.9,4.49,1.32,7.93,5.49,9.26,3.32,1.05,4.34.46,5.93-3.66-5.49,1.9-8.74-1.06-11.42-5.6ZM62.39,147.37c-.81-1.28-1.29-2.03-1.75-2.76,1.29-1.1,2.38,1.08,3.64.16-.07-.34-.04-.7-.2-.94-2.01-3.06-4.92-4.14-8.45-3.78-.85.09-1.8.53-1.47,1.52,1.13,3.45,3.61,5.3,8.23,5.8ZM101.55,232.64c1.15,4.58,1.22,8.99,3.4,13.06,4.21-4.95,3.38-8.27-3.4-13.06ZM80.74,309.83c-.9-2.13-2.69-4.09-4.8-4.36-1.98-.25-2.49,2.36-2.69,4.12-.26,2.22.6,4.2,3.15,4.1,2.09-.08,3.64-1.48,4.34-3.86ZM531.69,289.2c2.11-.55,5.26-.65,5.79-3.33.39-1.96-2.34-2.32-4.08-2.37-2.41-.06-4.9.5-5.39,3.27-.45,2.49,1.84,2.16,3.68,2.42ZM72.25,246.8c-.92,8.44.94,11.17,9.08,12.16-4.95-3.26-4.82-8.68-9.08-12.16ZM505.21,185.26c2.76,1.79,5.68,1.46,8.6,1.08,2.87-.37,3.66-2.54,4.14-4.91.21-1.04-.08-2.1-1.07-2.58-1.03-.49-1.36.61-1.81,1.2-2.46,3.27-5.85,4.64-9.86,5.2ZM327.66,42.02c-2.46-.86-.34-5.93-4.36-4.37-2.79,1.08-5.5,2.24-8.48,2.58-1.35.16-2.16.85-2.32,2.15-.08.61-.1,1.58.25,1.84,1.22.91,2.11-.35,3.03-.87,3.66-2.05,7.1-5.58,11.89-1.34ZM264.08,134.78c3.83-2.05,6.19-4.82,8.78-7.31.58-.56,1.3-1.22.83-2.12-.61-1.14-1.67-.8-2.61-.48-4.34,1.46-6.84,4.33-6.99,9.91ZM377.09,66.5c-7.96.69-11.21,4.18-10.54,11.34,3.81-3.73,6.01-8.62,10.54-11.34ZM372.53,85.98c1.75-1.11,1.25-2.24,1.08-3.35-.46-3-1.71-6.7,3.91-4.08,1.29.6,2.49-.27,2.76-2.31-3.3.38-6.89-2.88-9.53.93-2.3,3.32.39,5.94,1.79,8.82ZM188.96,204.51c5.21-4.27,5.76-7.01,2.85-12.5-3.67,3.35-3.32,7.53-2.85,12.5ZM409.94,40.88c-4.69,2.21-8.27,4.64-10.8,8.5,3.87-2,10.51.04,10.8-8.5ZM229.74,127.97c-.04-5.52-2.97-9.41-3.72-14.87-3.57,5.91-2.7,8.94,3.72,14.87ZM498.48,205.69c-3.71,4.43-6.49,8.17-2.38,13.67,2.17-4.38,3.55-8.33,2.38-13.67ZM443.53,161.26c5.04-5.87,4.8-6.99-2.21-12.16.31,4.1.89,7.86,2.21,12.16ZM66.8,296.29c1.37,3.79,3.13,1.77,4.89.48.84-.62,1.82-1.54.94-2.38-2.02-1.93-4.75-1.54-6.95-.67-2.32.92-1.62,3.27-1.02,5.2.21.66.64,1.15,1.48.87,1.22-.91-.33-2.2.66-3.5ZM250.7,69.05c-5.49.98-6.5,4.66-7.51,8.18-.37,1.3-1.12,3.39.6,3.96,2,.66,2.75-1.71,3.16-3,.91-2.9,1.25-5.98,3.75-9.14ZM467.45,155.45c5.85-4.86,6.03-7.56.97-11.76-1.29,3.82-1.63,7.61-.97,11.76ZM81,229.82c5.81.57,10.67-2.71,15.95-1.07-5.41-4.48-10.48-4.2-15.95,1.07ZM392.31,85.79c3.61-2.28,2.92-4.71,1.42-6.82-2.66-3.74-6.6-4.3-10.87-3.96,6.31.67,8.63,4.84,9.45,10.78ZM51.45,164.37c4.26-2.97,5.66-7.3,6.58-13.35-5.42,3.89-6.07,8.56-6.58,13.35ZM477.26,150.17c-1.37.24-3.77.53-3.52,2.62.21,1.79,2.22,3.38,4.37,3.17,1.62-.16,4.03-.42,3.86-2.76-.16-2.26-2.08-3.13-4.71-3.03ZM152.75,233.05c-4.26.38-7.29,1.63-8.98,5.15-.41.86-1.02,1.97-.26,2.79.84.91,1.89.15,2.67-.37,2.63-1.75,5.15-3.64,6.58-7.57ZM139.6,261.25c1.85-.68,5.31.09,5.51-2.53.17-2.22-2.99-2.6-5.16-2.73-2.09-.13-3.96,0-4.04,2.94-.08,2.91,2.06,1.87,3.69,2.32ZM398.32,94.33c-3.36,1.44-6.35,3.45-9.77,4.6-1.03.35-2.53.57-2.05,2.16.42,1.38,1.9,1.25,2.97,1.11,4.59-.63,6.81-4.13,8.86-7.87ZM89.74,185.62c3.06-3.78,7.66-5.1,12.08-7.33-6.75-2.66-9.4-1.06-12.08,7.33ZM326.99,90.15c2.43,2.47,5.28,1.5,7.74,2.11,1.08.27,2.31,2.11,3.16.11.73-1.7-.49-3.15-1.72-4.34-.91-.88-1.74-2.29-3.06-.38-1.37,1.98-4.02.95-6.12,2.5ZM88.87,176.11c2.93-.94,5.22-1.74,7.65-2.05,2.72-.35,2.76-2.96,2.26-4.66-.63-2.12-2.64-.66-3.74-.19-2.78,1.18-4.72,3.34-6.16,6.9ZM520.57,112.53c2.38,4.12,4.53,6.95,7.58,9.02.7.47,1.53.75,2.29.21.9-.64.61-1.55.02-2.12-2.65-2.55-4.64-5.99-9.89-7.1ZM519.51,178.11c1.79-3.32,2.46-6.32.9-9.42-.52-1.03-.97-2.8-2.83-1.97-1.2.53-1.71,1.73-1.28,2.93.93,2.61.79,5.61,3.21,8.45ZM175.61,174.07c-.1-1.33-.7-2.9-1.95-1.94-1.7,1.31-5.14-.13-5.33,3.32-.13,2.43,1.54,3.28,3.52,3.11,2.61-.21,3.38-2.31,3.76-4.5ZM85.47,326.4c1.91-.64,5.65.49,5.97-2.42.26-2.45-3.35-2.88-5.43-3.23-2.73-.46-2.11,2.34-2.59,3.89-.44,1.41.02,2.31,2.05,1.76ZM47.84,208.29c-1.14.25-2.68-.12-3.17,1.07-.68,1.68,1.04,2.18,2.09,2.75,1.88,1.03,3.82,1.97,5.83,2.71,1.04.38,2.34-.28,1.56-1.47-1.51-2.29-3.12-4.75-6.31-5.07ZM91.5,357.71c2.07-.64,3.42-2.16,3.77-4.44.27-1.76-.63-2.86-2.45-2.89-2.55-.04-3.32,1.78-3.58,3.85-.2,1.55.22,2.95,2.26,3.49ZM475.84,166.02c-.18-1.46-.29-3.72-2.29-2.77-1.77.85-5.14-.88-5.23,2.19-.07,2.26,2.24,3.5,4.65,3.61,2.09.1,3.12-.88,2.86-3.04ZM396.8,78.3c.27,4.83.49,8.77.73,13.08,4.65-4.28,4.54-7.37-.73-13.08ZM262.22,64.87c5.87.04,7.9,5.82,12.46,8.57-.03-6.67-4.28-9.52-12.46-8.57ZM526.85,126.97c-2.72.9-4.93,2.72-5.8,5.77-.26.92.68,1.23,1.64,1.2,2.72-.07,7.29-3.44,7.01-5.3-.22-1.45-1.34-1.68-2.84-1.67ZM332.48,42.78s.27-.56.53-1.16c.74-1.68.36-3.23-.64-4.66-1.15-1.64-2.49-3.09-4.52-3.59-.3-.07-.91.39-1.1.75-.8,1.48,3.22,8.63,5.74,8.66ZM27.26,240.28c-.23-1.93.14-4.98-1.92-5.03-2.48-.06-2.35,3.01-2.4,5.03-.06,2.09.14,5.11,2.48,5.05,1.89-.05,1.53-3.18,1.84-5.04ZM477.44,88.35c2.6,2.92,4.44,5.65,8.23,3.69,1.21-.62.94-1.5.4-2.43-2.17-3.73-5.07-2.44-8.63-1.26ZM130.91,184.15c-.28-2.11-1.81-2.44-3.31-2.25-2.25.29-4.31,1.36-4.41,3.9-.07,1.83,1.64,2.37,3.24,2.24,2.42-.2,3.81-1.71,4.48-3.88ZM272.77,81.11c-2.35-7.83-6.11-9.87-11.09-6.19,4.29.86,6.89,4.14,11.09,6.19ZM514.35,174.24c-.28-2.68.11-5.96-3.26-6.94-3.33-.97-6.15.76-8.49,3.03-1.71,1.66-1.84,3.59.33,6.64-.64-4.46.24-7.21,3.76-7.96,4.17-.89,5.89,2.12,7.66,5.24ZM77.58,252.14c2.95,3.95,4.96,6.53,8.84,6.13,1.08-.11,2.62.35,2.99-1.05.41-1.58-1.26-1.68-2.22-2.01-2.73-.97-5.51-1.78-9.62-3.07ZM456.37,106c2.87,3.12,7.3,4.42,9.62,8.22-1.4-7.17-2.51-8.17-9.62-8.22ZM501.82,279.66c0-1.87-.97-3.07-2.63-3.07-2.38,0-3.29,1.91-3.82,3.9-.4,1.53.16,2.68,1.87,2.78,2.58.14,3.78-1.57,4.58-3.61ZM9.86,256.57c-2.98,4.77-3.42,8.41-.55,12.72,2.13-4.16,2.62-7.79.55-12.72ZM149.88,132.71c1.84,2.82-1.3,6.2,1.19,9,4.98-5.78,4.89-6.9-1.19-9ZM110.86,204.22c7-2.13,8.71-6.03,5.72-12.39-1.4,4.41-2.27,8.48-5.72,12.39ZM95.25,188.38c-.18,4.73,2.13,6.55,5.89,6.81,3.36.23,5.16-1.52,5.29-5.16-4.52,6.22-7.61,1.58-11.18-1.64ZM99.33,342.35c-.25-1.39-1.04-3.49-3.18-3.66-3.29-.26.39,3.91-2.35,4.36.38,1.68,1.11,3.28,2.97,3.43,2.36.18,2.25-1.85,2.56-4.13ZM332.25,153.13c2.38-.04,2.87-1.72,2.97-3.35.11-1.85-.4-3.89-2.68-3.93-1.83-.03-2.84,1.58-2.86,3.38-.02,1.84.37,3.63,2.57,3.9ZM401.34,27.32c-2.06,4.74-2.33,8.73-2.25,13.42,4.17-3.82,4.94-7.64,2.25-13.42ZM500.59,207.28c3.56.08,6-2.26,8.95-.96,1.13.5,1.66-.87,1.35-1.94-.41-1.4-2.3-3.43-2.4-3.15-1.31,3.49-6.02,2.2-7.9,6.06ZM447.85,111.71c-5.51-2.29-8.39.11-8.54,6.87,2.82-2.27,5.45-4.39,8.54-6.87ZM109.22,313.4c-1.23,1.22-4.1.59-4.47,2.86-.25,1.55,1.03,3.28,2.98,3.15,2.2-.14,3.52-1.72,3.79-3.86.16-1.28-.66-2.13-2.3-2.15ZM533.84,279.28c4.88-1.81,8.31-3.61,8.49-9.04-4.26,1.65-7,4.05-8.49,9.04ZM427.95,144.73c.12-2.68-.65-4.48-3.79-4.49-1.67,0-2.52.52-2.44,2.19.13,2.93,2.55,3.64,4.65,4.36,1.84.63,1.58-.97,1.58-2.06ZM115.07,332.39c3.76-1.84,5.38-3.85,3.54-7.28-.48-.9-.42-2.58-2.12-2.05-1.25.39-1.53,1.47-1.44,2.78.12,1.94.03,3.9.03,6.55ZM134.95,177.26c.09-1.87-1.04-3.03-2.58-3.09-2.25-.08-3.71,1.57-4.08,3.63-.3,1.69,1.36,2.03,2.69,2.2,2.12.27,3.48-.67,3.98-2.74ZM11.31,247.4c-4.59,1.6-7.98,3.17-9.13,8.28,4.43-1.48,7.81-3.05,9.13-8.28ZM370.62,132.08c-4.17,3.04-6.09,6.12-6.5,11.25,3.43-3.35,6.55-5.72,6.5-11.25ZM313.83,75.9c.05-1.46-.44-3.24-1.98-2.57-2.02.88-4.4.03-6.14,1.6,1.83,1.32,3.49,3.08,5.53,3.81,1.5.54,2.51-1.13,2.59-2.84ZM475.49,96.8c1.82-.14,2.97-.9,3.07-2.68.11-2.12-1.13-3.47-3.03-3.85-1.83-.37-2.65,1.07-2.76,2.66-.14,2,.76,3.44,2.72,3.87ZM157.83,277.6c-2.37.48-5.03.87-6.24,3.2-.57,1.1,1.13,2.01,2.28,1.8,2.55-.46,5.42-.98,6.56-3.55.53-1.21-1.52-1.16-2.61-1.45ZM152.26,224.2c-.64,4.99-6.47,5.09-9.08,9.67q10.01-3.75,9.08-9.67ZM514.91,188.21c-4.35,0-7.28,0-10.22,0-.86,0-1.77.07-1.88,1.09-.11.97.76,1.5,1.52,1.62,3.35.51,6.73.93,10.57-2.71ZM524.68,137.65c-.99-.17-1.92.27-1.5,1.2,1.18,2.68,2.46,5.38,5.02,7.08.57.38,1.28,0,1.57-.69.72-1.68-3.24-7.55-5.09-7.59ZM83.9,252.07c-2.36-4.48-2.4-8.13-2.66-12.32-3.69,6.62-3.27,9.5,2.66,12.32ZM539.88,258.07c-5.63,4.77-6.02,5.74-4.11,9.76,3.31-2.24,4.98-5.16,4.11-9.76ZM467.2,161.04c2.9.04,5.78,1.23,7.08-1.94.53-1.28-1.07-3.46-2.09-3.5-3.18-.1-3.68,2.83-4.99,5.44ZM135.73,205.02c1.59-.41,2.58-1.43,2.42-3.18-.19-1.99-1.64-2.85-3.44-2.99-1.51-.12-2.72.49-2.39,2.31.34,1.87,1.08,3.53,3.41,3.86ZM510.91,180.83c-4.6-.43-8.53-.87-11.95-4.49,2.23,6.57,5.57,7.81,11.95,4.49ZM388.29,95.72c6.21-.94,7.78-3.25,5.63-7.97-2.73,2.03-3.96,4.99-5.63,7.97ZM80.59,291.51c.15-1.18-.35-1.9-1.32-1.64-2.13.57-4.2,1.5-4.01,4.21.09,1.25.71,3.05,2.28,2.55,2.31-.74,2.53-3.21,3.04-5.12ZM43.1,233.11c4.76-3.77,5.2-6.26,1.75-10.34-1.48,3.38-1.81,6.7-1.75,10.34ZM450.7,111.28c2.63,2.05,5.07,3.96,7.79,6.09-.49-6.28-2.29-7.67-7.79-6.09ZM62.16,157.42c2.79-1.55,4.43-2.57,6.16-3.39,1.15-.55,1.95-1.15,1.74-2.54-.15-.95-.77-1.41-1.67-1.43-1.24-.03-2.73-.67-3.49.88-.84,1.71-1.49,3.52-2.73,6.49ZM80.65,323.41c-1.89,1.41-2.6,3.83-4.76,4.86-1.23.59-2.33,1.48-.66,2.91,1.17,1,2.12,1.26,3.31-.08,1.96-2.2,3.04-4.56,2.11-7.7ZM62.09,314.04c1-.38,2.15-.6,3.04-1.2,1.82-1.24,4.62-1.36,5.11-4.17.04-.23-.67-.87-.99-.84-2.76.23-5.17,1.22-6.71,3.69-.41.66-1.03,1.31-.45,2.52ZM183.55,162.33q4.75,6.77,8.74,6.28c-1.89-3.22-4.22-5.45-8.74-6.28ZM542.45,250.85c1.9-5.38,1.5-6.06-4.37-7.78.74,2.93,1.33,5.77,4.37,7.78ZM336.71,31.22c-.47-3.61-1.41-7.02-4.93-9.92-.61,4.89,1.38,7.76,4.93,9.92ZM337.89,55.43c-.08-1.7-1.22-2.76-2.46-2.71-2.03.08-3.9,1.21-4.13,3.44-.17,1.59,1.42,2.08,2.74,2.17,2.11.15,3.25-1.14,3.85-2.9ZM5.55,244.04c3.33.17,5.68-.91,7.97-2.15.72-.39,1.36-1.06,1-1.99-.35-.9-1.29-1.04-2.06-.93-2.88.39-5.25,1.63-6.91,5.07ZM95.57,249.18c-2.94,1.05-6.07.87-9.25,1.34,3.29,4.57,5.32,4.32,9.25-1.34ZM68.55,138.67c-1.6.58-2.82,1.62-2.72,3.54.09,1.72,1.12,2.79,2.88,2.66,1.84-.13,2.35-1.57,2.41-3.16.06-1.69-.62-2.85-2.57-3.04ZM23.81,229.01c-.98-2.11-2.42-2.17-3.67-2.22-2.2-.09-4.27.5-5.68,2.36-.19.25-.05,1.11.18,1.24,1.76.97,3.54.23,5.27-.15,1.25-.28,2.46-.77,3.89-1.24ZM536.22,138.64c1.93.33,2.73.46,3.54.6,2.5.42,4.55-.49,6.2-2.29.17-.18-.03-1.09-.31-1.25-2.24-1.33-4.13.08-6.06.96-.88.4-1.67.97-3.38,1.99ZM452.46,158.71h7.91c-1.51-1.93-1.13-3.97-2.72-5.26-1.7,1.72-3.36,3.4-5.19,5.26ZM157.66,298.28c1.29-.51,1.15-1.41,1.11-2.18-.09-1.9.46-4.04-1.52-5.37-.58-.39-1.29-.2-1.61.53-.93,2.13-.75,4.14.78,5.94.38.45.88.79,1.23,1.09ZM444.8,89.07c2.02-.16,2.56-1.6,2.56-3.11,0-1.75-1.29-2.74-2.93-2.58-1.62.16-2.65,1.45-2.56,3.09.09,1.72,1.37,2.48,2.93,2.59ZM266.3,139.66c5.91.49,6.16.2,6.67-7.43-2.18,2.43-4.22,4.71-6.67,7.43ZM75.83,126.98c-2.54-2.46-3.84-4.82-6.8-3.42-1.08.51-1.62,1.97-.92,2.97,1.94,2.78,4.29.65,7.73.45ZM132.91,187.17c2.1.8,1.12,5.52,4.98,3.89,1.01-.43,1.41-1.45,1.05-2.5-1.1-3.13-3.49-2.25-6.02-1.39ZM367.1,123.9c-2.29,2.27-5.92,1.87-5.63,5.64.06.71.47,1.54,1.09,1.31,2.65-.98,4.1-3,4.53-6.95ZM346.33,147.72c-.24-1.39-.49-2.8-2.32-2.64-1.74.15-2.73,1.23-2.66,2.98.06,1.42.78,2.72,2.36,2.68,1.75-.05,2.52-1.36,2.62-3.02ZM74.42,133.03c-.18-1.54-.97-2.68-2.69-2.79-1.25-.08-3.13-.42-3.22,1.27-.08,1.59,1.14,3.12,2.88,3.55,1.46.36,2.47-.51,3.03-2.03ZM371.25,162.1c-2.29,1.74-5.14,2.1-5.02,5.42.04,1,.49,1.68,1.52,1.18,2.35-1.14,4.15-2.73,3.5-6.6ZM538.64,131.2c-3.5.21-5.55,1.83-6.71,4.66-.08.21.52,1.01.75.98,2.92-.27,4.8-1.96,5.95-4.57.06-.14,0-.33,0-1.07ZM523.26,278.79c1.68-3.02,3.16-5.59,3.71-9.32-3.81,2.35-6.8,4.29-3.71,9.32ZM256.04,86.23c2.8,3.61,5.29,4.65,8.22,3.68,2.59-.86,4.01-2.81,3.32-5.84-2.62,4.74-4.58,5.24-11.54,2.16ZM232.33,107.75c-1.17.49-2.61.93-2.46,2.59.13,1.54.91,3.13,2.67,2.96,1.56-.15,2.57-1.57,2.56-3.19-.01-1.57-1.24-2.18-2.77-2.36ZM156.96,70.88c.02-1.32-.41-2.35-1.66-1.66-1.45.79-3.92.57-4,2.92-.06,1.64,1.46,2.01,2.84,1.91,2.02-.14,2.68-1.56,2.82-3.18ZM480.5,162.43c1.5-.94,2.98-2.25,3.45-4.13.24-.93-1.18-1.17-1.84-.83-1.46.76-3.86.38-4.04,2.8-.1,1.35.9,1.99,2.43,2.15ZM73.41,142.18c.28,1.31-.4,3.3,1.84,3.34,1.34.02,2.61-.81,2.61-2.39,0-1.98-1.74-2.93-3.17-3.29-1.84-.46-1.27,1.29-1.28,2.33ZM318.96,95.93c3.14-.21,2.85-3.25,5.01-4.19,1.73-.75.38-2.29-.61-3.05-1.13-.87-2.19-.48-2.63.94-.61,1.99-1.13,4.01-1.77,6.3ZM148.11,284.73c-1.25,2.75-2.02,5.61-.39,9.52,1.89-3.64,2.62-6.41.39-9.52ZM75.41,300.8c-.23-1.33-1.11-1.78-2.42-1.64-1.65.18-2.86.91-2.64,2.77.13,1.15.73,2.5,2.01,2.39,1.83-.16,2.49-1.82,3.05-3.52ZM303.73,72.74c-2.81-.47-4.77.61-5.36,2.79-.47,1.74,1.84,2.03,2.79,1.99,3.14-.12.73-3.58,2.57-4.78ZM311.36,125.65c6.05-2.18,7.94-5.19,6.93-11.69-1.4,5.13-2.81,9.29-6.93,11.69ZM66.21,306.48c.97-.7,3.32.1,2.87-2.39-.24-1.31-1.14-1.91-2.5-1.93-2.1-.02-2.45,1.27-2.37,2.96.06,1.27.6,1.86,2,1.36ZM440.38,82.56c-2.25.34-4.31.64-7.03,1.05,2.36,2.1,4.12,3.66,5.87,5.22-.29-2.31.73-4.09,1.16-6.27ZM72.32,120.82c-.92-2.46-2.23-4.53-5.09-4.63-1.04-.04-1.39.76-1.12,1.69.91,3.22,3.97,2.13,6.22,2.94ZM116.66,319.27c-.87-.64-.63-2.9-1.82-2.38-1.66.73-3.16,2.37-4.12,3.98-.66,1.11,1,1.5,1.88,1.5,1.94,0,3.43-.86,4.06-3.1ZM536.63,248.8c-.88-.02-1.65.29-1.36,1.05.72,1.93,1.45,3.95,2.67,5.55.38.51,1.68-1.02,1.57-1.96-.23-1.96-.77-3.91-2.88-4.64ZM416.57,126.52c-.62-1.08-.66-3.09-2.1-2.92-1.4.16-2.45,1.75-2.13,3.4.22,1.12-.09,3.12,1.8,2.88,1.54-.2,2.14-1.82,2.43-3.36ZM138.68,125.86c-5.5.35-6.53,1.95-5.4,6.68,1.81-1.85,2.2-4.52,5.4-6.68ZM61.6,160.93c3.93.26,6.02-2.19,7.82-5.08-3.27.71-5.72,2.63-7.82,5.08ZM486.63,100.79c1.66-.26,3.34-.73,3.56-2.69.15-1.25-1.18-1.4-2.11-1.5-1.98-.22-3.15,1.05-3.54,2.7-.31,1.32,1.17,1.22,2.09,1.49ZM339.85,109.93c1.43-3.54.83-6.7-1.76-10.43-.38,4.23.31,7.4,1.76,10.43ZM559.72,244.33c-.17-1.43-.91-2.42-2.48-2.31-1.3.09-2.86.46-2.83,2.05.03,1.74,1.73,2.29,3.14,2.45,1.24.14,2.02-.83,2.17-2.19ZM145.57,68.49c-1.72.33-2.6,1.61-2.96,3.05-.4,1.59,1.03,2.01,2.17,1.98,1.22-.02,2.94.17,3.19-1.62.24-1.7-1.04-2.65-2.39-3.41ZM535.71,142.11c.74,2.47-.16,5.02,2.58,5.8,1.15.33,1.48-.92,1.66-1.96.49-2.82-1.45-3.27-4.24-3.84ZM139.5,146.79c4.51,2.91,7.13.92,9.47-2.35-2.9.72-5.8,1.44-9.47,2.35ZM219.11,131.83c1.06-.64,1.8-.95,2.34-1.45,1.25-1.15,3.49-1.41,3.51-3.66,0-.3-.67-.93-.92-.87-2.15.46-4.05,1.36-4.75,3.67-.18.57-.1,1.22-.17,2.31ZM329.77,45.99c-2.54,1.21-2.52,3.77-4.17,5.11-.82.67.28,1.73,1.15,2.23,1.03.59,1.56-.17,1.78-.94.57-1.94,2.23-3.65,1.24-6.4ZM446.19,81.36c1.81,1,2.81,3.39,4.39,2.27,1.27-.9,1.6-3.13,2.72-5.57-2.84,1.32-4.6,2.14-7.11,3.3ZM329.92,85.33c-.3-1.19-.08-2.96-1.93-2.82-1.45.11-2.92.92-2.9,2.71.01,1.27.98,2.12,2.23,2.19,1.35.08,2.68-.21,2.61-2.08ZM323.7,54.07c-1.22.4-2.39,1.05-2.43,2.54-.05,1.58,1.21,1.73,2.39,1.59,1.28-.15,2.86-.39,2.91-1.96.05-1.56-1.48-1.86-2.87-2.17ZM313.68,57.01c1.46-.45,3.07-1.11,3.23-3.02.12-1.46-1.15-1.9-2.37-1.84-1.79.08-2.59,1.24-2.67,2.92-.05,1.1.32,1.94,1.81,1.94ZM353.34.98c-1.87,3.64-2.88,5.95-.9,8.83,2.19-2.58,1.9-4.98.9-8.83ZM82.11,334.5c-.37-.89-.48-2.27-2.01-2.12-1.59.15-2.13,1.34-1.96,2.8.12,1.04-.13,2.73,1.4,2.58,1.47-.14,2.45-1.44,2.56-3.26ZM267.95,90.11c1.86.29,2.54-.49,3.24-1.13,1.11-1.02,2.1-2.2,1.4-3.83-.21-.5-1.02-1.17-1.4-1.09-1.66.39-.78,2.25-1.65,3.23-.62.7-.95,1.65-1.59,2.81Z"></path><path class="cls-1" d="M243.45,54.06c-1.45-.8-2.83-1.85-4.38-2.33-1.56-.48-3.51-2.61-4.8-.58-1.06,1.67-.03,4,1.44,5.45,1.39,1.37,3.16,2.35,4.76,3.51,1.97,1.43,2.5,2.44.14,4.48-2.77,2.39-6.81,4.34-5.46,9.58.47,1.83-1.77,3.33-3.62,4.32-.84.45-2.78.33-1.93,2.13.73,1.55,2,.49,3.03.18,1.8-.53,3.64-1.25,4.4,1.41-2.34-.28-4.61-.28-6.43,1.35-.03,1.69,2.41.1,2.21,1.89-1.95.51-3.86.96-5.74,1.54-.73.22-2.08,1-1.26,1.57,3.67,2.53-.06,1.38-.74,1.56-1.21.32-2.36-1.17-3.69-.23,2.09,1.42,4.23,2.68,6.13,4.22,2.36,1.9,4.71,1.41,6.97.19,2.41-1.29,3.48-3.42,3.05-6.26-.3-1.96-.41-3.96-.61-5.94,4.06,7.95,3.04,11.49-4.52,15.62-.43.24-1.22.29-1.32.6-1.24,3.89-2.5,7.29-7.69,4.07-.81-.51-1.15,1.66-1.63,2.65-1.16,2.37-1.17,5.72-4.88,6.04,0,0,.09.09.09.09,1.01-2.55,2.63-5.06-1.53-6.64-1.67-.63-1.89-2.65-1.25-4.39.54-1.47,1.48-2.81,3.16-2.82,1.87-.02,3.32.67,4.72-1.86.84-1.52,1.79.7,1.52,1.99-.25,1.23-.49,2.32.93,2.95.65.29,1.47.38,1.68-.36.36-1.23,1.27-2.96.04-3.72-2.06-1.29-3.12-6.33-7.07-2.2-.95.99-1.68-.39-2.03-1.32-.5-1.32-1.74-2.77.3-3.84,1.86-.98,3.79-1.83,5.78-2.78-1.74-2.36-4.41-2.36-6.79-4.49,3.31.45,5.43-.17,4.97-3.51-.27-1.99.96-2.19,2.45-1.98.65.09,1.3.29,1.92.51,3.11,1.11,6.32.27,7.32-2.43,1.13-3.05-3.46-1.38-4.36-3.91,3.33-.32,5.53-2.63,7.55-5.16.88-1.1,3.03-1.97,2.07-3.51-.59-.94-2.66-1.08-4.11-1.32-7.58-1.3-14.41-.79-17.61,8.15-.6-4.78,2.57-7.11,5.23-9.62,3.27-3.09,7.46.41,11.11-1.34-.37-1.71-.7-3.47-1.13-5.2-.27-1.08.56-3.2-1.71-2.64-1.35.33-1.07,1.84-.62,3,.27.7.5,1.4.9,2.54-4.07-2.47-4.18-2.92-2.69-9.85-1.52-.31-1.55.71-1.59,1.71-.04,1-.04,2-.07,3-.05,1.78-.32,3.48-2.63,3.42-.87-.03-2.09-.12-1.15-1.76,4.13-7.18.63-13.88-1.71-20.52-.26-.75-3.13-.36-4.44,1.08-5.11,5.61-5.5,12.36-1.14,18.49.73,1.03,1.41,1.21,2.49.82.55-.2,1.32-.53.81.74-2.43,5.99-7.17,9.62-12.66,12.49-.78.41-2.02.54-1.9-.57.58-5.33-.03-10.9,2.71-17.04.94,6.27-1.45,11.04-1.28,16.52,3.25-2,5.99-4.01,8.28-6.61,1.28-1.46,1.16-3.29.22-4.66-1.06-1.54-1.78.87-3.11.73.4-1.31,1.14-2.56,1.08-3.77-.16-3.21-.97-6.82-3.75-8.22-1.89-.95-2.73,2.72-4.28,4.08-.25.22-.43.51-.64.77q-5.78,7.03-1.67,14.36c-4.52-2.66-5.96-6.27-3.38-10.51,2.49-4.11,4.92-9.47,8.78-11.24,6.3-2.89,7.79-9.29,12.92-13.1,1.44,1.1,2.04,2.96,2.7,4.75,1.24,3.39,1.41,7.28,6.99,7.03,2.5-.11,3.71,3.06,2.19,5.88-.68,1.26-2,2.37-.06,4.68,2.11-4.97,4.57-9.32,5.61-14.29.74-3.52,2.09-4.1,4.79-1.48,2.15,2.08,4.2,4.23,5.79,6.67.52-.15.94-.14,1.07-.33.92-1.32.52-3.82,2.36-4.09,2.19-.32,2.49,2.28,3.55,3.63,1.18,1.5,2.05,3.23,3.16,5.02,1.78-1.85.44-3.44.22-4.9-1.07-7.11,1.57-12.71,6.67-17.4.85-.78,1.82-1.86,3.01-1.35,1.18.5,1.11,1.95,1.18,3.1.24,3.81.36,7.62-.43,11.65,2.16-1.26,2.43-3.39,3.2-5.11,2.78-6.24,8.13-9.54,13.87-12.35,2.66-1.3,3.78-.18,3.19,2.67-1.57,7.53-4.52,13.94-12.7,16.44-1.98.61-4.22.98-6.06,3.09,2.63.42,5.22-.05,7.18,1.69,1.6,1.42,2.26-.14,3.18-1.01,3.48-3.3,6.69-6.91,10.76-9.54-.41,2.93-2.91,4.32-4.73,6.12-4.84,4.79-8.84,10.13-12.1,17.19,2.11-1.24,3.64-1.85,4.79-2.89,1.9-1.71,3.43-5.62,5.59-.21.38.94,1.38.78,2.04.04,4.24-4.77,8.2-9.67,6.94-16.72-.28-1.59-.28-3.43-2.64-3.43.2-1.45.9-2.76,2.43-2.53,1.16.17,1.46,1.63,1.73,2.78.92,3.96-.05,7.91-.3,12.4,3.09-1.3,5.74-2.52,8.47-3.53,1.41-.52,3.05-.73,4.08.79,1.09,1.61-.65,2.32-1.33,3.31-3.06,4.49-5.74,9.37-11.91,12.21,3.22-5.57,8.7-8.45,11.05-14.92-7.68,2.5-14.26,5.06-17.77,11.92-2.04,4-5.38,6.27-9.29,9.96.53-4.85,3.67-6.35,6.11-9.83-6.09.91-10.43,3.15-14.92,6.42.19-4.68,3.98-7.41,4.7-11.58-4.86.64-8.79,2.5-11.31,6.61-2.21-1.7,2.43-3.47-.77-5.19-4.09-2.21-5.2-1.98-6.7,2.47-.75,2.24.05,5.01-2.77,7.41.89-4.84-.93-8.29-3.01-12.28-1.16,2.96-2.11,5.41-3.1,7.85-1.54,3.8-2.04.23-2.95-.42,1.96-.94,1.03-2.42.68-3.77-1.05-4.07-2.12-8.14-3.17-12.21,3.61,2.96,2.74,8.1,5.38,11.91,2.82-7.21,1.27-11.21-6.17-16.26.34,1.68.62,3.08.9,4.47-1.28-1.65-2.52-4.26-3.68.12-.59,2.23-1.41,4.41-2.24,6.57-.86,2.26-.53,3.55,2.09,4.38,2.55.81,5.64,1.39,6.29,4.86ZM286.61,18.33c-6.26,2.45-11.13,5.32-13.42,11.19-.39,1.01-2.05,2.36-.37,3.24,1.22.64,2.51,1.61,4.52.53,5.79-3.12,8.57-7.83,9.26-14.96ZM261.37,40.11c5.43-5.06,6.27-11.11,5.28-18.11-6.9,5.09-8.7,11.25-5.28,18.11ZM277.22,43.06c-5.35-2.24-9.73-2.11-14.05.08-1.24.63-3.43,1.04-3.07,2.69.36,1.63,2.49,2.21,4.12,2.17,4.58-.14,8.19-2.86,12.99-4.94ZM251.81,37.39c-3.44,5.14-.05,8.67,1.63,13.86,1.85-5.66,2.97-9.85-1.63-13.86ZM227.8,82.68c-.22-1.45-.39-3.25-2.47-3.59-1.35-.22-2.14.71-2.31,2.04-.23,1.78.69,2.83,2.3,3.34,1.41.45,2.23-.09,2.49-1.8ZM220.15,102.01c-.06-1.64-1-2.61-2.69-2.77-1.21-.12-1.84.68-1.85,1.77-.02,1.73,1.02,2.7,2.69,2.9,1.25.15,1.69-.72,1.86-1.9Z"></path><path class="cls-1" d="M206.92,87.16c7.13,8.5,3.79,22.8-6.28,26.94-1.54.63-3.12,1.16-4.63,1.87-6.58,3.06-12.85,3.76-17.99-2.67-3.28,4.43,1.66,5.87,2.21,9.31-4.47-4.73-9.78-5.79-15.88-4.21,1.9-2.62,4.55-2.66,7.03-3.03,1.59-.24,3.87.22,3.5-2.29-.37-2.47-2.35-2.93-4.6-2.18-1.25.41-2.52.78-3.99,1.23,0-2.13,3.5-2.22,2.49-4.12-.99-1.88-3.42-1.85-5.36-2.15-3.14-.49-6.17.77-9.52.61,3.97-2.34,8.52-3.7,11.42-7.74.24.69.52,1.12.42,1.24-2.5,3.02-3.22,5.01,2.04,5.42,2.27.18,4.41,1.89,6.6,2.91.6-1.05-.03-1.75-.39-2.43-5.78-11.07,2.02-25.26,14.58-26.5,8.41-.84,15.67,2.27,18.43,7.89-2.68-1.27-4.66-3.93-8.85-4.47,4.02,3.94,6.48,7.91,9.02,12.4,1.41-3.3.08-5.62-.25-8.02ZM196.67,84.03c-3.36-3.25-8.56-3.7-12.94-1.23-2.57,1.44-4.87,3.24-3.71,7.25,5.27-3.2,10.58-5.3,16.65-6.01ZM186.46,109.34c-2.54-3.85-3.99-7.92-3.56-12.54.1-1.1-.26-2.04-1.48-2.17-1.49-.16-1.91.99-2.25,2.15-1.7,5.84.06,9.11,7.3,12.56ZM202.99,102.39c-5.2,3.9-5.21,3.81-11.46,4.18-1.06.06-3.17-.61-3.25,1.24-.07,1.65,1.22,3,3.04,3.42,3.96.92,10.8-3.98,11.66-8.84ZM177.61,107.73c1.18,4.73,4.14,7.66,8.85,8.58,1.57.31,3.74.48,4.22-1.51.42-1.77-1.55-2.47-2.91-2.82-3.55-.92-6.78-2.47-10.16-4.25ZM176.33,104.52c.32-5.57.59-10.22.92-15.98-5.71,6.67-5.95,10.83-.92,15.98ZM191.8,87.88c.72,1.61,2.39,1.69,3.65,2.31,1.53.76,2.99,2.26,4.93,1.1.29-.17.53-.93.4-1.24-.87-1.97-2.65-2.82-4.6-3.3-1.61-.4-3.2-.44-4.37,1.13ZM194.46,104.06c2.7.28,4.04-.77,4.49-2.73.52-2.28.62-4.61-1.71-6.35.77,3.47-1.21,6.06-2.78,9.08ZM204.78,96.69c-.4-1.36-.32-3.2-2.15-3.44-1.28-.17-2.27.92-1.84,2.23.5,1.53-.35,4.13,2.17,4.28,1.48.09,1.5-1.83,1.82-3.07ZM190.34,103.88c-2.84-1.42-3.34-4.5-5.17-7.94-.12,4.81-.22,8.28,5.17,7.94ZM205.98,105.99c2.26-2.14,3.39-4.52,1.63-8.05-1.44,2.82-2.73,5.12-1.63,8.05ZM203.17,108.98c-3.19,1.68-6.37,3.36-9.56,5.04,4.36.33,7.47-1.63,9.56-5.04Z"></path><path class="cls-1" d="M111.99,71.53c-2.83-3.29-4.45-1.58-6-.02-4.39,4.4-9.83,5.21-15.68,4.68-1.15-.11-2.47-.05-2.85-1.46-.31-1.17.84-1.68,1.46-2.4,3.48-4.01,8.22-5.43,14.73-6.59-6.62-1.61-12.25-2.25-16.22-6.43-1.52-1.6-4.54-3.01-3.43-5.43.89-1.94,3.91-.91,6-.98,5.43-.17,9.06,2.85,11.83,7.08,1.47,2.25,2.78,4.54,5.81,5.79-.87-4.47-2.37-8.7-.79-13.06.4-1.09.6-2.49,1.78-2.81,1.45-.4,1.82,1.18,2.44,2.06,3.03,4.25,4.37,9.01,3.13,14.13-.86,3.55.33,5.7,3.82,7.44.14-5.47.4-10.7,3.38-15.31,6.03,5.54,7.27,14.54,3.23,21.46-1.83,3.15-3.25.69-3.98-.48-2.23-3.53-4.38-2.99-7.2-.75-2.89,2.3-6.25,3.81-10.09,3.65-1.27-.05-2.92.41-3.59-1.07-.67-1.47.7-2.41,1.58-3.34,2.76-2.94,6.04-5.1,10.63-6.16ZM121.6,61.18c-2.84,7.59-2.21,13.3,1.6,16.15,2.32-5.46,3.01-10.69-1.6-16.15ZM85.69,55.19c3.45,3.81,6.47,6.81,11.19,7.16,1,.07,2.15.19,2.73-.74.76-1.23-.16-2.2-.95-3.07-3.35-3.7-7.49-4.58-12.97-3.35ZM90.58,73.42c9.18,1.33,12.13.19,14.6-5.26-5.47-.58-10.02.92-14.6,5.26ZM104.68,80.23c2.5-.01,9.26-3.45,9.91-5.03.27-.67.3-1.46-.45-1.62-4.11-.88-7.22,1.32-10.28,3.57-.13.1-.26.2-.38.31-.59.57-1.33,1.15-.94,2.07.39.93,1.34.69,2.13.7ZM111.55,66.77c2.23-5.21,1.34-9.71-2.43-13.2-1.91,5.75-1.59,7.64,2.43,13.2Z"></path><path class="cls-1" d="M102.51,97.15c1.95-.91,2.81-.1,3.71,1.41,3.75,6.31,6.27,13.36,12.45,19.22-3.66-.29-4.24-3.34-6.89-3.77-.57,4.63.77,8.64,3.14,12.55-3-1.87-4.64-4.75-4.75-8.05-.17-4.92-1.21-8.82-8.3-9.4,3.65-1.67,5.33.48,7.7.45-.72-5.02-5.37-7.96-7.06-12.42Z"></path><path class="cls-1" d="M77.94,162.21c1.8.17,3.61.31,5.42,1.71-2.49,2.16-5.76,1.14-8.57,2.54,1.95,2.8,5.4,2.89,8.94,5.47-5.57.76-10.14,1.47-14.48,3-.81.29-1.1-.99-1.23-1.82,0,0-.07.09-.07.09,2.77-.87,5.54-1.73,8.3-2.6-.36-1.57-1.76-1.62-2.63-2.29-1-.78-2.9-.98-2.67-2.56.22-1.47,1.92-1.58,3.22-1.81,1.46-.26,3.03-.26,3.87-1.83l-.1.08Z"></path><path class="cls-1" d="M216.92,60.46c-4.22,6.51-9.37,12.38-12.44,19.56-2.32-.83-2.02-2.58-2.26-3.9-.15-.83-1.58-4.01,1.76-1.69.05.04,1.22-1.38,1.74-2.2,2.91-4.63,6.86-8.31,11.2-11.78Z"></path><path class="cls-1" d="M62.6,180.7c-1.84-2.87-5.35-2.75-8-5.07,4.67-.29,7.55,2.21,10.45,4.63.96.8.99,2.22-.1,2.36-6.65.82-11.17,6.09-18.19,8.6,4.58-5.82,10.54-7.61,15.85-10.52Z"></path><path class="cls-1" d="M232.34,63.59c-7.3,4.35-15.29,7.69-21.18,14.08,4.49-8.42,12.65-11.52,21.18-14.08Z"></path><path class="cls-1" d="M183.44,74.58c.45-5.91,2.52-11.6.44-18.03,1.84,3.43,3.5,4.45,5.96.82-2.93,5.68-4.74,11.41-6.4,17.21Z"></path><path class="cls-1" d="M71.06,202.1c1.38,1.11,3.4,2.28,2.46,4.22-.87,1.8-2.99.63-4.52.43-3.49-.46-7.25.37-11.08-2.1,3.85-.94,6.99-.46,10.13.18,2.12.43,3.67.27,2.82-2.56,0,0,.2-.17.2-.17Z"></path><path class="cls-1" d="M76.75,151.1c6.22,1.03,8.08,7.26,12.45,10.57-5.45-1.9-7.29-8.24-12.45-10.57Z"></path><path class="cls-1" d="M69.1,176.52c2.99,1.49,6.18.26,9.33.88-4.33,4.19-5.05,4.15-9.33-.88Z"></path><path class="cls-1" d="M245.6,115.47c-2.75-4.41-.07-7.92-.14-11.48-.11,3.5,1.8,6.93.14,11.48Z"></path><path class="cls-1" d="M133.42,216.69c-3.22,1.41-6.49,2.15-11.26.62,4.55-1.4,7.89-1.11,11.26-.62Z"></path><path class="cls-1" d="M501.95,258.14c.82,4.2,1.39,8.32-3,11.11-1.65,1.05-3.34,1.66-5,.12-1.7-1.57-2.81-3.41-1.42-5.72,2.14-3.58,4.69-6.56,9.54-5.4,0,0-.11-.11-.11-.11ZM500.8,263.5c-.38-1.48-.2-3.64-2.28-3.22-2.65.54-4.01,2.72-4.29,5.42-.2,1.97.99,2.71,2.73,2.58,3-.22,3.5-2.5,3.84-4.78Z"></path><path class="cls-1" d="M513.41,474.28c.25-5.26.51-10.52.76-15.78.1,0,.19.01.29.02v15.67c-.35.03-.7.06-1.05.09Z"></path><path class="cls-1" d="M487.85,139.94c-.02,2.13-2.78,5.58,2.95,4.66,2.6-.42,1.81,3.15,2.52,4.95-9.2-8.31-20.63-15.22-18.33-30.52.92,2.71,2.52,5.4,2.61,8.15.24,7.11,4.03,10.9,10.35,12.88l-.1-.12Z"></path><path class="cls-1" d="M386.96,122.04c-1.2,3.41-4.23,3.05-8.24,3.5,5.41-4.85,4.4-10.59,4.82-16.21,2.02,3.26,1.64,6.8,1.05,10.84,3.32-2.33,2.86-5.9,4.14-9.45,2.38,4.85-.34,8.03-1.86,11.42,0,0,.09-.11.09-.11Z"></path><path class="cls-1" d="M487.95,140.06c-.53-3.7-3.19-7.05-1.68-11.62.94,2.56,1.8,4.64,2.47,6.78.91,2.91,2.69,5.1,5.58,5.92,5.3,1.51,4.5,5.84,4.76,9.67.07.98-.52,2-1.81,1.84-.79-.1-1.09-.97-.89-1.53,2.23-6.2-1.42-8.4-6.46-9.78-.76-.21-1.37-.91-2.06-1.39,0,0,.1.12.1.12Z"></path><path class="cls-1" d="M430.5,96.6c-7.24-.29-14.61,2.36-21.71-1.04,7.16,1.93,14.59-1.79,21.71,1.04Z"></path><path class="cls-1" d="M475.57,104.6c3.83.3,6.56.52,9.35.74-1.08,2.86-7.25-2.75-5.81,4.55-1.31-1.95-2.17-3.23-3.54-5.28Z"></path><path class="cls-1" d="M510.35,136.8c1.96,1.24,3.89,2.45,6.09,3.84q-7.15.27-6.09-3.84Z"></path><path class="cls-1" d="M118.69,244.56c-11.5,5.57-8.84,16.45-9.64,26.32-5.67-7.88.85-25.48,9.64-26.32Z"></path><path class="cls-1" d="M47.07,252.51c-2.76-.91-1.32-2.5-2.19-3.39-1.83-.21-1.73,2.63-4.21,2.41,3.41-6.44,8.08-11.39,14.01-17.25-1.52,7.75-10.72,10.04-7.61,18.22Z"></path><path class="cls-1" d="M96.04,288.21c-1.49-.13-1.9.48-1.85,2.01.08,2.22,1.26,4.45.15,6.97-4.85-2.3-.05-7.57-3.44-10.03,2.67-1.98,1.56-5.14,2.27-8.94,1.18,4.12,2.02,7.05,2.86,9.99Z"></path><path class="cls-1" d="M403.11,68.84c6.76-3.32,12.37-8.62,20.42-9.78-6.39,3.91-12.79,7.82-19.18,11.73-.41-.65-.83-1.3-1.24-1.95Z"></path><path class="cls-1" d="M545.02,217.12c.26,4.34,4.94,6.68,5,11.11-3.06-3.39-6.4-6.6-7.11-11.44.7.11,1.41.22,2.11.33Z"></path></g></svg>