<svg xmlns="http://www.w3.org/2000/svg" id="Capa_2" viewBox="0 0 240.34 343.99"><defs><style>.cls-1{fill:#717e5d;stroke-width:0px;}</style></defs><g id="Capa_1-2"><g id="Capa_2-2"><g id="Capa_1-2"><path class="cls-1" d="M126.83,296.38c3.1-2.6,5.2-4.8,7.6-6.4,8.7-5.5,17.4-11.1,26.4-16.2,4.1-2.4,5.8-4.9,4.9-9.9-3.6-21.4-6.3-42.9-10.4-64.2-3-15.4-12.1-26.4-28.3-30.9-1.9,6.6-3.5,12.8-5.4,19-3.6,11.6-10,20.9-21.4,26.2-13.5,6.4-21.1,17.1-22.5,31.9-2,22.1-3.9,44.2-5.4,66.3-.2,2.4,2.3,6.1,4.6,7.5,9,5.1,18.4,9.4,27.5,14.1,2.8,1.5,5.4,3.5,8.1,5.2v2.5c-4,.9-8,2.7-11.9,2.5-19.1-.9-38.1-2.3-57.2-3.7-8-.6-16-1.4-23.9-2.7-3.8-.6-7.5-2.4-11.2-3.7v-2.5c2.7-1.5,5.4-3.3,8.4-4.3,10-3.4,20.3-6.1,30.1-9.9,2.7-1,5.8-4.7,6.1-7.4,2.1-21.6,3.7-43.2,5-64.9,1-15.7-5.6-27.9-18.8-36.6-12.2-8.1-15.8-21-16.5-34.3-.7-12.6-.7-25.5,1.7-37.8,4.9-25,11.3-49.8,17.7-74.5,3.2-12.2,7-14.7,19.8-15.1,6.4-.2,12.9.4,19.3.7,4.3.2,8.7.6,14.1,1,.4-8.4,1-16.3,1-24.2s3.9-13.4,11.8-16.1C125.33,2.38,142.73-.52,160.83.08c5.7.2,10.3,2.4,12.3,7.8,13.3,36.3,28.6,72.1,30.8,111.4,1,16.9-3.1,31.9-17.5,43.3-8.3,6.6-13.3,16.2-11.9,27.3,3.1,24.3,6.7,48.5,10.5,72.7.3,2.1,3.7,4.7,6.2,5.4,10.7,3,21.6,5.2,32.3,7.9,2.6.6,4.9,2,7.7,3.2-7.7,9.4-90.9,23.4-104.3,17.2h0l-.1.1h0ZM101.73,340.08l.6-2.4c-9.2-4.5-18.3-9.2-27.7-13.4-5.2-2.3-7.5-5.6-7-11.4,1.8-22.6,3-45.3,5.1-67.9,1.3-13.8,7.6-25.1,20.7-31.6,15.7-7.8,23.3-21.3,26.6-37.7,2.7-13.1-1-16.5-14.5-15.6-25.9,1.7-51.9,5.8-78.4-.4-1.1,19.3,2.3,36.4,18.5,48.4,12.7,9.4,18.3,22,17.2,37.6-1.5,20.8-3.5,41.7-4.6,62.5-.4,8.7-3.8,12.9-12.3,14.8-9.3,2.1-18.3,5.5-27.5,8.4.1.7.3,1.3.4,2,27.6,2.2,55.2,4.4,82.8,6.5h0v.2h.1,0ZM127.53,116.18c0,13.2.5,26.9-.2,40.5-.3,5.9,1.8,8.8,6.5,10.5,16.5,5.9,24.2,18.4,26.8,34.8,3.3,20.6,6.3,41.3,9.9,61.9,1.2,6.7-.6,10.6-6.5,13.8-8.9,4.8-17.5,10.3-26.2,15.5.3.7.5,1.5.8,2.2,27.3-4.4,54.5-8.9,81.8-13.3v-2.2c-9.9-2.2-19.8-4.9-29.9-6.6-6.7-1.2-9.5-4.5-10.5-11.1-2.5-16.6-5.1-33.1-8.6-49.5-4.8-22.8-1.5-42.2,17.2-58.8,13.5-12.1,11.5-29.6,10.1-44.2-24.4,2.3-47.9,4.5-71.1,6.7h0v-.2h-.1ZM198.23,96.08c-9.4-28.3-19-57-28-84.1-23.8,3.9-45.6,7.4-69.2,11.3,0,5.5.4,12.4,0,19.3-.4,5.6,1.8,7.9,7.1,8.7,8.3,1.2,12.5,6.1,13.3,14.5.9,10,2.4,19.9,3.7,30.3h73.2-.1,0ZM26.53,146.68h80.8c-12.9-27-9.8-54.5-11.5-80.1-15.4-2.7-29.5-5.3-43.7-7.5-1.4-.2-4.3,2.3-4.8,4-3.9,13.3-7.7,26.7-11,40.2-3.5,14.4-6.5,29-9.7,43.3h-.1v.1h0ZM125.73,100.88c-.9,9-.9,9.2,6.3,9.2s16,.4,23.9-.4c13.1-1.3,26-3.4,39.1-5.2,0-.8-.2-1.6-.3-2.4-22.7-7-45.6-4-69-1.2ZM29.13,152.18v3.1c27.2,7.4,54.3,2.3,81.8-.9-2-2.3-4.4-4.2-6.8-4.2-15.9-.3-31.8-.6-47.8-.2-9.1.2-18.1,1.5-27.2,2.4v-.2h0ZM101.43,65.18v35.6c6.8-1.4,12.4-2.6,18.6-3.8-1.4-11.6-2.8-22.3-4.2-33.8-5.5.8-9.8,1.4-14.4,2.1h0v-.1ZM101.73,110.88c2.6,10,5,18.8,7.1,27.6,1.7,7.3,5.8,11.1,14.6,10.6-.6-10.6-1.1-21.1-2.1-31.5,0-1.5-2.1-3.6-3.6-4-4.6-1.2-9.4-1.7-16-2.7h0ZM103.73,15.48c17.6,4.1,53.6-2.5,60-10.7-20.7-1.5-40.3,0-60,10.7ZM53.03,51.98c7.8,6.9,37.7,11.1,42.6,7.2-.2-1.9-.3-4.2-.6-7.2h-42.1.1ZM121.13,100.78c-6.8,1.5-11.5,2.5-16.2,3.5v2.8c4.8.6,9.5,1.4,14.3,1.5.4,0,1-3.8,1.9-7.8ZM113.63,57.78c-4.7-1.6-8.5-2.8-12.9-4.3,1,8.2,3.3,8.9,12.9,4.3Z"></path><path class="cls-1" d="M233.73,70.18c2.4,3.1,6.1,6.1,6.6,9.4.3,2.1-4.8,7.1-6.8,6.8-2.9-.5-6.7-4.2-7.5-7.2-.6-2.4,2.8-5.8,4.4-8.8,1.1,0,2.2-.2,3.3-.2h0Z"></path><path class="cls-1" d="M30.13,240.88c-8.1-.6-11-3.6-10.9-9.1,0-5,2.2-8.6,7.7-8.3,5.3.3,9.2,3.6,8.5,8.8-.4,3.4-3.9,6.4-5.3,8.6ZM27.03,239.08c2-3.1,4.3-5.1,4-6.5-.5-2-2.9-3.4-4.5-5.1-1.3,1.7-3.5,3.3-3.6,5,0,1.7,2,3.5,4.1,6.6Z"></path><path class="cls-1" d="M214.33,167.28c2.1,2.7,5.7,5.4,5.8,8.2,0,2.3-4,4.7-6.2,7.1-2.3-2.3-6-4.2-6.6-6.9-.5-2.3,2.4-5.4,3.9-8.1,1.1,0,2.1-.2,3.2-.3h-.1,0Z"></path><path class="cls-1" d="M121.93,270.18c-4.7,3-7.6,6.4-9.9,6-2.4-.4-6.1-4.4-6-6.7,0-2.4,4-6.2,6.4-6.3,2.4-.1,5.1,3.5,9.5,7h0Z"></path><path class="cls-1" d="M225.73,57.78c-1.5,7-4.4,9.2-9.3,9.1-5.5,0-7.9-3.4-8-8.4-.2-4.9,2.5-8.7,7.3-7.7,3.7.8,6.7,4.5,10.1,7,0,0-.1,0-.1,0ZM216.73,64.78c1.8-2.5,4.1-4.8,3.7-5.4-1.2-1.9-3.4-3.2-5.1-4.7-1.1,1.5-3.4,3.2-3.1,4.3.4,1.8,2.4,3.3,4.6,5.8h-.1,0Z"></path><path class="cls-1" d="M13.33,261.78c-2.6-4.9-5.4-7.8-5.2-10.6,0-2.2,3.7-4.3,5.7-6.4,2.3,2.7,5.6,5.1,6.4,8.1.4,1.8-3.4,4.6-6.8,8.9,0,0-.1,0-.1,0Z"></path><path class="cls-1" d="M15.43,210.28c-4.4,3.2-7.3,6.7-9.1,6.2-2.6-.6-5.2-4-6.3-6.7-.4-.9,3.6-5.3,5.4-5.2,2.8.2,5.4,2.9,10,5.8h0v-.1Z"></path><path class="cls-1" d="M26.33,16.98c-4.9,3-7.5,5.8-10.3,6.1-1.7.2-3.8-3.4-5.8-5.3,2.4-2.1,4.6-5.2,7.4-6,1.7-.5,4.4,2.5,8.7,5.2Z"></path><path class="cls-1" d="M228.73,105.48c-4.1,3-7.1,6.3-8.4,5.8-2.7-1.1-5.1-4-6.3-6.8-.4-1,3.4-5.5,4.7-5.2,2.9.6,5.4,3.2,10,6.2Z"></path><path class="cls-1" d="M105.63,251.18c-2.3,1.3-4.9,3.9-6.9,3.6-2.2-.4-5.3-3.5-5.5-5.6,0-1.8,3.4-5.4,5.4-5.3,2.4,0,4.8,2.9,7.2,4.5v2.9h0l-.2-.1h0Z"></path><path class="cls-1" d="M231.93,154.68c2.3,4.4,4.6,6.9,4.4,9.2-.2,1.8-3.5,3.3-5.4,4.9-1.7-2.1-4.6-4.1-4.9-6.4-.2-1.7,2.8-3.9,5.9-7.7h0Z"></path><path class="cls-1" d="M39.13,34.58c-2.6-3.5-5.5-5.8-5.2-7.5.3-1.9,3.3-4.3,5.5-4.7,1.3-.2,4.7,2.9,4.7,4.4s-2.5,4.2-4.9,7.8h-.1Z"></path><path class="cls-1" d="M18.93,63.88c-3.7,2.3-6,4.9-7.7,4.5-2-.4-3.4-3.4-5.1-5.3,2-1.5,3.9-3.8,6.1-4.1,1.5-.2,3.4,2.3,6.7,4.9Z"></path><path class="cls-1" d="M238.33,198.08c-3,2.1-5.4,4.9-6.5,4.4-2.1-.8-4.1-3.3-4.7-5.5-.2-1,3.1-4,4.8-4s3.4,2.6,6.3,5.1h.1,0Z"></path><path class="cls-1" d="M111.73,181.98c.5,13.8-13.8,25.1-32.3,27.2-22.8,2.5-41.1-8.3-44.5-27,8.6,14.7,21,22.9,38.2,22.8,16.8,0,29.6-7.3,38.6-22.9h0v-.1Z"></path><path class="cls-1" d="M131.33,157.78c28.2,5.3,51.1,1.4,60.9-29,3,8.5-3.6,20.6-14.9,28.5-12.9,8.8-35.6,9.7-46,.6h0v-.1h0Z"></path><path class="cls-1" d="M167.43,20.58c5.3,17.4,10.6,34.9,15.9,52.3-.9.3-1.9.6-2.8.9-5.4-17.4-10.8-34.8-16.1-52.1,1-.4,2-.7,3.1-1h0l-.1-.1h0Z"></path><path class="cls-1" d="M35.33,126.88c5.2-19.5,10.5-39,15.7-58.6,1.3.4,2.6.7,3.9,1.1-5.5,19.4-11.1,38.9-16.6,58.3-1-.3-2-.6-3-.8h0Z"></path></g></g></g></svg>